  0
SECTION
  2
HEADER
  9
$ACADVER
  1
AC1015
  9
$ACADMAINTVER
 70
     6
  9
$DWGCODEPAGE
  3
ANSI_1252
  9
$INSBASE
 10
0.0
 20
0.0
 30
0.0
  9
$EXTMIN
 10
-62.5409213968
 20
-41.1240826539
 30
0.0
  9
$EXTMAX
 10
62.1868547419
 20
42.3501619183
 30
0.0
  9
$LIMMIN
 10
0.0
 20
0.0
  9
$LIMMAX
 10
420.0
 20
297.0
  9
$ORTHOMODE
 70
     0
  9
$REGENMODE
 70
     1
  9
$FILLMODE
 70
     1
  9
$QTEXTMODE
 70
     0
  9
$MIRRTEXT
 70
     1
  9
$LTSCALE
 40
1.0
  9
$ATTMODE
 70
     1
  9
$TEXTSIZE
 40
3.175
  9
$TRACEWID
 40
1.0
  9
$TEXTSTYLE
  7
Standard
  9
$CLAYER
  8
0
  9
$CELTYPE
  6
ByLayer
  9
$CECOLOR
 62
   256
  9
$CELTSCALE
 40
1.0
  9
$DISPSILH
 70
     0
  9
$DIMSCALE
 40
1.0
  9
$DIMASZ
 40
3.302
  9
$DIMEXO
 40
1.27
  9
$DIMDLI
 40
3.75
  9
$DIMRND
 40
0.0
  9
$DIMDLE
 40
0.0
  9
$DIMEXE
 40
3.175
  9
$DIMTP
 40
0.0
  9
$DIMTM
 40
0.0
  9
$DIMTXT
 40
3.175
  9
$DIMCEN
 40
2.5
  9
$DIMTSZ
 40
0.0
  9
$DIMTOL
 70
     0
  9
$DIMLIM
 70
     0
  9
$DIMTIH
 70
     1
  9
$DIMTOH
 70
     1
  9
$DIMSE1
 70
     0
  9
$DIMSE2
 70
     0
  9
$DIMTAD
 70
     0
  9
$DIMZIN
 70
     0
  9
$DIMBLK
  1

  9
$DIMASO
 70
     1
  9
$DIMSHO
 70
     1
  9
$DIMPOST
  1

  9
$DIMAPOST
  1

  9
$DIMALT
 70
     0
  9
$DIMALTD
 70
     3
  9
$DIMALTF
 40
0.0393700787
  9
$DIMLFAC
 40
1.0
  9
$DIMTOFL
 70
     1
  9
$DIMTVP
 40
0.0
  9
$DIMTIX
 70
     0
  9
$DIMSOXD
 70
     0
  9
$DIMSAH
 70
     0
  9
$DIMBLK1
  1

  9
$DIMBLK2
  1

  9
$DIMSTYLE
  2
ISO-25
  9
$DIMCLRD
 70
     0
  9
$DIMCLRE
 70
     0
  9
$DIMCLRT
 70
     0
  9
$DIMTFAC
 40
1.0
  9
$DIMGAP
 40
1.524
  9
$DIMJUST
 70
     0
  9
$DIMSD1
 70
     0
  9
$DIMSD2
 70
     0
  9
$DIMTOLJ
 70
     0
  9
$DIMTZIN
 70
     0
  9
$DIMALTZ
 70
     0
  9
$DIMALTTZ
 70
     0
  9
$DIMUPT
 70
     0
  9
$DIMDEC
 70
     2
  9
$DIMTDEC
 70
     2
  9
$DIMALTU
 70
     2
  9
$DIMALTTD
 70
     3
  9
$DIMTXSTY
  7
Standard
  9
$DIMAUNIT
 70
     0
  9
$DIMADEC
 70
     2
  9
$DIMALTRND
 40
0.0
  9
$DIMAZIN
 70
     0
  9
$DIMDSEP
 70
    44
  9
$DIMATFIT
 70
     3
  9
$DIMFRAC
 70
     0
  9
$DIMLDRBLK
  1

  9
$DIMLUNIT
 70
     2
  9
$DIMLWD
 70
    -2
  9
$DIMLWE
 70
    -2
  9
$DIMTMOVE
 70
     0
  9
$LUNITS
 70
     2
  9
$LUPREC
 70
     2
  9
$SKETCHINC
 40
1.0
  9
$FILLETRAD
 40
10.0
  9
$AUNITS
 70
     0
  9
$AUPREC
 70
     2
  9
$MENU
  1
.
  9
$ELEVATION
 40
0.0
  9
$PELEVATION
 40
0.0
  9
$THICKNESS
 40
0.0
  9
$LIMCHECK
 70
     0
  9
$CHAMFERA
 40
0.0
  9
$CHAMFERB
 40
0.0
  9
$CHAMFERC
 40
0.0
  9
$CHAMFERD
 40
0.0
  9
$SKPOLY
 70
     0
  9
$TDCREATE
 40
2458452.584421331
  9
$TDUCREATE
 40
2458452.917754665
  9
$TDUPDATE
 40
2458452.584580243
  9
$TDUUPDATE
 40
2458452.917913577
  9
$TDINDWG
 40
0.0000000116
  9
$TDUSRTIMER
 40
0.0000000116
  9
$USRTIMER
 70
     1
  9
$ANGBASE
 50
0.0
  9
$ANGDIR
 70
     0
  9
$PDMODE
 70
     0
  9
$PDSIZE
 40
-1.0
  9
$PLINEWID
 40
0.0
  9
$SPLFRAME
 70
     0
  9
$SPLINETYPE
 70
     6
  9
$SPLINESEGS
 70
     8
  9
$HANDSEED
  5
1B3
  9
$SURFTAB1
 70
     6
  9
$SURFTAB2
 70
     6
  9
$SURFTYPE
 70
     6
  9
$SURFU
 70
     6
  9
$SURFV
 70
     6
  9
$UCSBASE
  2

  9
$UCSNAME
  2

  9
$UCSORG
 10
0.0
 20
0.0
 30
0.0
  9
$UCSXDIR
 10
1.0
 20
0.0
 30
0.0
  9
$UCSYDIR
 10
0.0
 20
1.0
 30
0.0
  9
$UCSORTHOREF
  2

  9
$UCSORTHOVIEW
 70
     0
  9
$UCSORGTOP
 10
0.0
 20
0.0
 30
0.0
  9
$UCSORGBOTTOM
 10
0.0
 20
0.0
 30
0.0
  9
$UCSORGLEFT
 10
0.0
 20
0.0
 30
0.0
  9
$UCSORGRIGHT
 10
0.0
 20
0.0
 30
0.0
  9
$UCSORGFRONT
 10
0.0
 20
0.0
 30
0.0
  9
$UCSORGBACK
 10
0.0
 20
0.0
 30
0.0
  9
$PUCSBASE
  2

  9
$PUCSNAME
  2

  9
$PUCSORG
 10
0.0
 20
0.0
 30
0.0
  9
$PUCSXDIR
 10
1.0
 20
0.0
 30
0.0
  9
$PUCSYDIR
 10
0.0
 20
1.0
 30
0.0
  9
$PUCSORTHOREF
  2

  9
$PUCSORTHOVIEW
 70
     0
  9
$PUCSORGTOP
 10
0.0
 20
0.0
 30
0.0
  9
$PUCSORGBOTTOM
 10
0.0
 20
0.0
 30
0.0
  9
$PUCSORGLEFT
 10
0.0
 20
0.0
 30
0.0
  9
$PUCSORGRIGHT
 10
0.0
 20
0.0
 30
0.0
  9
$PUCSORGFRONT
 10
0.0
 20
0.0
 30
0.0
  9
$PUCSORGBACK
 10
0.0
 20
0.0
 30
0.0
  9
$USERI1
 70
     0
  9
$USERI2
 70
     0
  9
$USERI3
 70
     0
  9
$USERI4
 70
     0
  9
$USERI5
 70
     0
  9
$USERR1
 40
0.0
  9
$USERR2
 40
0.0
  9
$USERR3
 40
0.0
  9
$USERR4
 40
0.0
  9
$USERR5
 40
0.0
  9
$WORLDVIEW
 70
     1
  9
$SHADEDGE
 70
     3
  9
$SHADEDIF
 70
    70
  9
$TILEMODE
 70
     1
  9
$MAXACTVP
 70
    64
  9
$PINSBASE
 10
0.0
 20
0.0
 30
0.0
  9
$PLIMCHECK
 70
     0
  9
$PEXTMIN
 10
1.0000000000E+20
 20
1.0000000000E+20
 30
1.0000000000E+20
  9
$PEXTMAX
 10
-1.0000000000E+20
 20
-1.0000000000E+20
 30
-1.0000000000E+20
  9
$PLIMMIN
 10
0.0
 20
0.0
  9
$PLIMMAX
 10
420.0
 20
297.0
  9
$UNITMODE
 70
     0
  9
$VISRETAIN
 70
     1
  9
$PLINEGEN
 70
     0
  9
$PSLTSCALE
 70
     1
  9
$TREEDEPTH
 70
  3020
  9
$CMLSTYLE
  2
Standard
  9
$CMLJUST
 70
     0
  9
$CMLSCALE
 40
20.0
  9
$PROXYGRAPHICS
 70
     1
  9
$MEASUREMENT
 70
     1
  9
$CELWEIGHT
370
    -1
  9
$ENDCAPS
280
     0
  9
$JOINSTYLE
280
     0
  9
$LWDISPLAY
290
     1
  9
$INSUNITS
 70
     4
  9
$HYPERLINKBASE
  1

  9
$STYLESHEET
  1

  9
$XEDIT
290
     1
  9
$CEPSNTYPE
380
     0
  9
$PSTYLEMODE
290
     1
  9
$FINGERPRINTGUID
  2
{93E3B0BE-B039-4F34-83A8-FC8E38B067D1}
  9
$VERSIONGUID
  2
{FAEB1C32-E019-11D5-929B-00C0DF256EC4}
  9
$EXTNAMES
290
     1
  9
$PSVPSCALE
 40
0.0
  9
$OLESTARTUP
290
     0
  0
ENDSEC
  0
SECTION
  2
CLASSES
  0
CLASS
  1
ACDBDICTIONARYWDFLT
  2
AcDbDictionaryWithDefault
  3
ObjectDBX Classes
 90
        0
280
     0
281
     0
  0
CLASS
  1
VISUALSTYLE
  2
AcDbVisualStyle
  3
ObjectDBX Classes
 90
     4095
280
     0
281
     0
  0
CLASS
  1
MATERIAL
  2
AcDbMaterial
  3
ObjectDBX Classes
 90
     1153
280
     0
281
     0
  0
CLASS
  1
SCALE
  2
AcDbScale
  3
ObjectDBX Classes
 90
     1153
280
     0
281
     0
  0
CLASS
  1
TABLESTYLE
  2
AcDbTableStyle
  3
ObjectDBX Classes
 90
     4095
280
     0
281
     0
  0
CLASS
  1
MLEADERSTYLE
  2
AcDbMLeaderStyle
  3
ACDB_MLEADERSTYLE_CLASS
 90
     4095
280
     0
281
     0
  0
CLASS
  1
SUN
  2
AcDbSun
  3
SCENEOE
 90
     1153
280
     0
281
     0
  0
CLASS
  1
ACDBPLACEHOLDER
  2
AcDbPlaceHolder
  3
ObjectDBX Classes
 90
        0
280
     0
281
     0
  0
CLASS
  1
LAYOUT
  2
AcDbLayout
  3
ObjectDBX Classes
 90
        0
280
     0
281
     0
  0
ENDSEC
  0
SECTION
  2
TABLES
  0
TABLE
  2
VPORT
  5
8
330
0
100
AcDbSymbolTable
 70
     1
  0
VPORT
  5
29
330
8
100
AcDbSymbolTableRecord
100
AcDbViewportTableRecord
  2
*Active
 70
     0
 10
0.0
 20
0.0
 11
1.0
 21
1.0
 12
-0.1770333274
 22
0.6130396322
 13
0.0
 23
0.0
 14
10.0
 24
10.0
 15
10.0
 25
10.0
 16
0.0
 26
0.0
 36
1.0
 17
0.0
 27
0.0
 37
0.0
 40
85.1437294636
 41
1.4942067074
 42
50.0
 43
0.0
 44
0.0
 50
0.0
 51
0.0
 71
     0
 72
   100
 73
     1
 74
     3
 75
     0
 76
     0
 77
     0
 78
     0
281
     0
 65
     1
110
0.0
120
0.0
130
0.0
111
1.0
121
0.0
131
0.0
112
0.0
122
1.0
132
0.0
 79
     0
146
0.0
  0
ENDTAB
  0
TABLE
  2
LTYPE
  5
5
330
0
100
AcDbSymbolTable
 70
     6
  0
LTYPE
  5
14
330
5
100
AcDbSymbolTableRecord
100
AcDbLinetypeTableRecord
  2
ByBlock
 70
     0
  3

 72
    65
 73
     0
 40
0.0
  0
LTYPE
  5
15
330
5
100
AcDbSymbolTableRecord
100
AcDbLinetypeTableRecord
  2
ByLayer
 70
     0
  3

 72
    65
 73
     0
 40
0.0
  0
LTYPE
  5
16
330
5
100
AcDbSymbolTableRecord
100
AcDbLinetypeTableRecord
  2
Continuous
 70
     0
  3
Solid line
 72
    65
 73
     0
 40
0.0
  0
LTYPE
  5
6E
330
5
100
AcDbSymbolTableRecord
100
AcDbLinetypeTableRecord
  2
HIDDEN
 70
     0
  3
Hidden __ __ __ __ __ __ __ __ __ __ __ __ __ __
 72
    65
 73
     2
 40
1.905
 49
1.27
 74
     0
 49
-0.635
 74
     0
  0
LTYPE
  5
6F
330
5
100
AcDbSymbolTableRecord
100
AcDbLinetypeTableRecord
  2
PHANTOM
 70
     0
  3
Phantom ______  __  __  ______  __  __  ______
 72
    65
 73
     6
 40
12.7
 49
6.35
 74
     0
 49
-1.27
 74
     0
 49
1.27
 74
     0
 49
-1.27
 74
     0
 49
1.27
 74
     0
 49
-1.27
 74
     0
  0
LTYPE
  5
70
330
5
100
AcDbSymbolTableRecord
100
AcDbLinetypeTableRecord
  2
CENTER
 70
     0
  3
Center ____ _ ____ _ ____ _ ____ _ ____ _ ____
 72
    65
 73
     4
 40
10.16
 49
6.35
 74
     0
 49
-1.27
 74
     0
 49
1.27
 74
     0
 49
-1.27
 74
     0
  0
LTYPE
  5
71
330
5
100
AcDbSymbolTableRecord
100
AcDbLinetypeTableRecord
  2
CENTERX2
 70
     0
  3
Center (2x) ________  __  ________  __  _____
 72
    65
 73
     4
 40
20.32
 49
12.7
 74
     0
 49
-2.54
 74
     0
 49
2.54
 74
     0
 49
-2.54
 74
     0
  0
LTYPE
  5
72
330
5
100
AcDbSymbolTableRecord
100
AcDbLinetypeTableRecord
  2
DOT2
 70
     0
  3
Dot (.5x) ........................................
 72
    65
 73
     2
 40
0.635
 49
0.0
 74
     0
 49
-0.635
 74
     0
  0
ENDTAB
  0
TABLE
  2
LAYER
  5
2
330
0
100
AcDbSymbolTable
 70
     1
  0
LAYER
  5
10
330
2
100
AcDbSymbolTableRecord
100
AcDbLayerTableRecord
  2
0
 70
     0
 62
     7
  6
Continuous
370
    -3
390
F
  0
ENDTAB
  0
TABLE
  2
STYLE
  5
3
330
0
100
AcDbSymbolTable
 70
     2
  0
STYLE
  5
11
330
3
100
AcDbSymbolTableRecord
100
AcDbTextStyleTableRecord
  2
Standard
 70
     0
 40
0.0
 41
1.0
 50
0.0
 71
     0
 42
3.175
  3
txt
  4

  0
STYLE
  5
1B0
330
3
100
AcDbSymbolTableRecord
100
AcDbTextStyleTableRecord
  2
SLDTEXTSTYLE0
 70
     0
 40
0.0
 41
0.7
 50
0.0
 71
     0
 42
3.175
  3
TXT
  4

  0
ENDTAB
  0
TABLE
  2
VIEW
  5
6
330
0
100
AcDbSymbolTable
 70
     0
  0
ENDTAB
  0
TABLE
  2
UCS
  5
7
330
0
100
AcDbSymbolTable
 70
     0
  0
ENDTAB
  0
TABLE
  2
APPID
  5
9
330
0
100
AcDbSymbolTable
 70
     1
  0
APPID
  5
12
330
9
100
AcDbSymbolTableRecord
100
AcDbRegAppTableRecord
  2
ACAD
 70
     0
  0
ENDTAB
  0
TABLE
  2
DIMSTYLE
  5
A
330
0
100
AcDbSymbolTable
 70
     1
100
AcDbDimStyleTable
  0
DIMSTYLE
105
27
330
A
100
AcDbSymbolTableRecord
100
AcDbDimStyleTableRecord
  2
ISO-25
 70
     0
 41
2.5
 42
0.625
 43
3.75
 44
1.25
 73
     0
 74
     0
 77
     1
 78
     8
140
2.5
141
2.5
143
0.0393700787
147
0.625
171
     3
172
     1
178
     0
271
     2
272
     2
274
     3
278
    44
283
     0
284
     8
340
11
  0
ENDTAB
  0
TABLE
  2
BLOCK_RECORD
  5
1
330
0
100
AcDbSymbolTable
 70
     1
  0
BLOCK_RECORD
  5
1F
330
1
100
AcDbSymbolTableRecord
100
AcDbBlockTableRecord
  2
*Model_Space
340
22
  0
BLOCK_RECORD
  5
1B
330
1
100
AcDbSymbolTableRecord
100
AcDbBlockTableRecord
  2
*Paper_Space
340
1E
  0
BLOCK_RECORD
  5
23
330
1
100
AcDbSymbolTableRecord
100
AcDbBlockTableRecord
  2
*Paper_Space0
340
26
  0
ENDTAB
  0
ENDSEC
  0
SECTION
  2
BLOCKS
  0
BLOCK
  5
20
330
1F
100
AcDbEntity
  8
0
100
AcDbBlockBegin
  2
*Model_Space
 70
     0
 10
0.0
 20
0.0
 30
0.0
  3
*Model_Space
  1

  0
ENDBLK
  5
21
330
1F
100
AcDbEntity
  8
0
100
AcDbBlockEnd
  0
BLOCK
  5
1C
330
1B
100
AcDbEntity
 67
     1
  8
0
100
AcDbBlockBegin
  2
*Paper_Space
 70
     0
 10
0.0
 20
0.0
 30
0.0
  3
*Paper_Space
  1

  0
ENDBLK
  5
1D
330
1B
100
AcDbEntity
 67
     1
  8
0
100
AcDbBlockEnd
  0
BLOCK
  5
24
330
23
100
AcDbEntity
  8
0
100
AcDbBlockBegin
  2
*Paper_Space0
 70
     0
 10
0.0
 20
0.0
 30
0.0
  3
*Paper_Space0
  1

  0
ENDBLK
  5
25
330
23
100
AcDbEntity
  8
0
100
AcDbBlockEnd
  0
ENDSEC
  0
SECTION
  2
ENTITIES
  0
LWPOLYLINE
  5
79
330
1F
100
AcDbEntity
  8
0
  6
Continuous
 62
     7
370
    25
100
AcDbPolyline
 90
       34
 70
   128
 43
0.0
 10
39.1286184388
 20
-1.8203813309
 10
39.5943068577
 20
-1.7268869514
 10
40.0662476456
 20
-1.7150735415
 10
40.5273836329
 20
-1.7853680686
 10
40.9610481635
 20
-1.9352299053
 10
41.3515674713
 20
-2.1592426544
 10
41.6848271712
 20
-2.4493099115
 10
41.9487823891
 20
-2.7949478901
 10
42.1338930959
 20
-3.1836643332
 10
42.2334689083
 20
-3.6014100157
 10
42.243910897
 20
-4.0330865202
 10
42.1648416613
 20
-4.4630919332
 10
41.9991189693
 20
-4.8758847385
 10
41.7527324711
 20
-5.2565455288
 10
41.4345872165
 20
-5.5913162312
 10
41.056181804
 20
-5.8680973604
 10
40.6311927912
 20
-6.0768853252
 10
40.1749803882
 20
-6.2101339845
 10
39.7040332999
 20
-6.2630273846
 10
39.2353727812
 20
-6.2336538203
 10
38.7859374442
 20
-6.1230749286
 10
38.3719710531
 20
-5.9352873188
 10
38.0084354319
 20
-5.6770781245
 10
37.7084697049
 20
-5.3577796987
 10
37.4829154152
 20
-4.9889323183
 10
37.3399246825
 20
-4.5838670888
 10
37.2846655645
 20
-4.1572241229
 10
37.3191352695
 20
-3.724423409
 10
37.4420879727
 20
-3.3011074926
 10
37.649079843
 20
-2.9025761139
 10
37.9326296549
 20
-2.5432332351
 10
38.2824891794
 20
-2.2360664443
 10
38.6860135818
 20
-1.9921775495
 10
39.1286184388
 20
-1.8203813309
  0
LWPOLYLINE
  5
7E
330
1F
100
AcDbEntity
  8
0
  6
Continuous
 62
     7
370
    25
100
AcDbPolyline
 90
       45
 70
   128
 43
0.0
 10
-15.5151425941
 20
-7.4272546448
 10
-14.912120281
 20
-7.2080158566
 10
-14.3447767953
 20
-6.9138546229
 10
-13.8246616142
 20
-6.550759218
 10
-13.3623627829
 20
-6.1261212172
 10
-12.9672913726
 20
-5.6485850258
 10
-12.6474898977
 20
-5.1278719035
 10
-12.4094685941
 20
-4.5745820678
 10
-12.2580728892
 20
-3.9999789042
 10
-12.1963847629
 20
-3.4157596762
 10
-12.2256600075
 20
-2.8338174024
 10
-12.3453026636
 20
-2.2659987494
 10
-12.5528771516
 20
-1.7238628675
 10
-12.8441578536
 20
-1.2184460799
 10
-13.2132151344
 20
-0.7600372148
 10
-13.6525360522
 20
-0.3579681548
 10
-14.1531772998
 20
-0.0204238665
 10
-14.7049472653
 20
0.2457242217
 10
-15.2966135033
 20
0.4350581024
 10
-15.9161313954
 20
0.5437234837
 10
-16.5508893439
 20
0.5695082518
 10
-17.1879655075
 20
0.5118875032
 10
-17.8143908526
 20
0.3720342302
 10
-18.4174131657
 20
0.1527954421
 10
-18.9847566514
 20
-0.1413657917
 10
-19.5048718325
 20
-0.5044611966
 10
-19.9671706637
 20
-0.9290991974
 10
-20.3622420741
 20
-1.4066353888
 10
-20.682043549
 20
-1.9273485111
 10
-20.9200648525
 20
-2.4806383468
 10
-21.0714605575
 20
-3.0552415104
 10
-21.1331486838
 20
-3.6394607384
 10
-21.1038734391
 20
-4.2214030122
 10
-20.9842307831
 20
-4.7892216652
 10
-20.7766562951
 20
-5.3313575471
 10
-20.4853755931
 20
-5.8367743347
 10
-20.1163183123
 20
-6.2951831998
 10
-19.6769973945
 20
-6.6972522598
 10
-19.1763561469
 20
-7.034796548
 10
-18.6245861814
 20
-7.3009446363
 10
-18.0329199434
 20
-7.490278517
 10
-17.4134020513
 20
-7.5989438983
 10
-16.7786441027
 20
-7.6247286664
 10
-16.1415679392
 20
-7.5671079178
 10
-15.5151425941
 20
-7.4272546448
  0
LWPOLYLINE
  5
87
330
1F
100
AcDbEntity
  8
0
  6
Continuous
 62
     7
370
    25
100
AcDbPolyline
 90
       28
 70
   128
 43
0.0
 10
-26.4512720982
 20
1.7318792941
 10
-26.826607703
 20
1.5778547764
 10
-27.1576068826
 20
1.3503773222
 10
-27.4264253856
 20
1.0617102999
 10
-27.6185711368
 20
0.7274158233
 10
-27.7236855092
 20
0.3655157943
 10
-27.7361017596
 20
-0.0044796629
 10
-27.6551505248
 20
-0.3626239975
 10
-27.4851959068
 20
-0.6896095557
 10
-27.2354002031
 20
-0.9678084614
 10
-26.9192299647
 20
-1.1822229396
 10
-26.553730011
 20
-1.3212938502
 10
-26.1586045391
 20
-1.3775238445
 10
-25.7551548655
 20
-1.347881549
 10
-25.3651310665
 20
-1.2339649874
 10
-25.009559426
 20
-1.041915431
 10
-24.7076089033
 20
-0.7820863213
 10
-24.4755577292
 20
-0.4684851126
 10
-24.3259158425
 20
-0.1180181275
 10
-24.2667504761
 20
0.2504208684
 10
-24.3012512502
 20
0.6169692332
 10
-24.4275582191
 20
0.9618662498
 10
-24.6388621415
 20
1.2665184308
 10
-24.9237715682
 20
1.5145018983
 10
-25.2669269582
 20
1.6924477992
 10
-25.6498287157
 20
1.790763024
 10
-26.0518345078
 20
1.8041473736
 10
-26.4512720982
 20
1.7318792941
  0
LWPOLYLINE
  5
88
330
1F
100
AcDbEntity
  8
0
  6
Continuous
 62
     7
370
    25
100
AcDbPolyline
 90
       28
 70
   128
 43
0.0
 10
-22.0443796027
 20
-13.2167577163
 10
-21.6690439979
 20
-13.0627331986
 10
-21.3380448182
 20
-12.8352557444
 10
-21.0692263153
 20
-12.5465887221
 10
-20.877080564
 20
-12.2122942455
 10
-20.7719661917
 20
-11.8503942165
 10
-20.7595499413
 20
-11.4803987593
 10
-20.8405011761
 20
-11.1222544247
 10
-21.0104557941
 20
-10.7952688665
 10
-21.2602514978
 20
-10.5170699608
 10
-21.5764217362
 20
-10.3026554826
 10
-21.9419216899
 20
-10.163584572
 10
-22.3370471618
 20
-10.1073545777
 10
-22.7404968354
 20
-10.1369968732
 10
-23.1305206344
 20
-10.2509134348
 10
-23.4860922748
 20
-10.4429629912
 10
-23.7880427975
 20
-10.7027921009
 10
-24.0200939717
 20
-11.0163933096
 10
-24.1697358584
 20
-11.3668602947
 10
-24.2289012248
 20
-11.7352992906
 10
-24.1944004507
 20
-12.1018476554
 10
-24.0680934818
 20
-12.446744672
 10
-23.8567895594
 20
-12.751396853
 10
-23.5718801327
 20
-12.9993803205
 10
-23.2287247427
 20
-13.1773262214
 10
-22.8458229852
 20
-13.2756414462
 10
-22.4438171931
 20
-13.2890257958
 10
-22.0443796027
 20
-13.2167577163
  0
LWPOLYLINE
  5
89
330
1F
100
AcDbEntity
  8
0
  6
Continuous
 62
     7
370
    25
100
AcDbPolyline
 90
       28
 70
   128
 43
0.0
 10
-7.772413449
 20
-5.754042924
 10
-8.1477490538
 20
-5.9080674416
 10
-8.4787482334
 20
-6.1355448958
 10
-8.7475667364
 20
-6.4242119182
 10
-8.9397124876
 20
-6.7585063947
 10
-9.04482686
 20
-7.1204064237
 10
-9.0572431104
 20
-7.490401881
 10
-8.9762918756
 20
-7.8485462156
 10
-8.8063372576
 20
-8.1755317738
 10
-8.5565415539
 20
-8.4537306795
 10
-8.2403713155
 20
-8.6681451576
 10
-7.8748713618
 20
-8.8072160683
 10
-7.4797458899
 20
-8.8634460626
 10
-7.0762962163
 20
-8.833803767
 10
-6.6862724173
 20
-8.7198872054
 10
-6.3307007768
 20
-8.5278376491
 10
-6.0287502541
 20
-8.2680085393
 10
-5.79669908
 20
-7.9544073307
 10
-5.6470571933
 20
-7.6039403455
 10
-5.5878918269
 20
-7.2355013497
 10
-5.622392601
 20
-6.8689529849
 10
-5.7486995699
 20
-6.5240559682
 10
-5.9600034923
 20
-6.2194037872
 10
-6.244912919
 20
-5.9714203198
 10
-6.588068309
 20
-5.7934744189
 10
-6.9709700665
 20
-5.695159194
 10
-7.3729758586
 20
-5.6817748445
 10
-7.772413449
 20
-5.754042924
  0
LWPOLYLINE
  5
8A
330
1F
100
AcDbEntity
  8
0
  6
Continuous
 62
     7
370
    25
100
AcDbPolyline
 90
       28
 70
   128
 43
0.0
 10
-10.3910017435
 20
3.128480517
 10
-10.0156661386
 20
3.2825050347
 10
-9.684666959
 20
3.5099824889
 10
-9.4158484561
 20
3.7986495112
 10
-9.2237027048
 20
4.1329439878
 10
-9.1185883325
 20
4.4948440168
 10
-9.1061720821
 20
4.864839474
 10
-9.1871233169
 20
5.2229838086
 10
-9.3570779349
 20
5.5499693668
 10
-9.6068736386
 20
5.8281682725
 10
-9.923043877
 20
6.0425827507
 10
-10.2885438307
 20
6.1816536613
 10
-10.6836693026
 20
6.2378836556
 10
-11.0871189762
 20
6.2082413601
 10
-11.4771427752
 20
6.0943247984
 10
-11.8327144156
 20
5.9022752421
 10
-12.1346649383
 20
5.6424461324
 10
-12.3667161125
 20
5.3288449237
 10
-12.5163579992
 20
4.9783779386
 10
-12.5755233656
 20
4.6099389427
 10
-12.5410225915
 20
4.2433905779
 10
-12.4147156226
 20
3.8984935613
 10
-12.2034117002
 20
3.5938413803
 10
-11.9185022735
 20
3.3458579128
 10
-11.5753468835
 20
3.1679120119
 10
-11.192445126
 20
3.0695967871
 10
-10.7904393339
 20
3.0562124375
 10
-10.3910017435
 20
3.128480517
  0
LWPOLYLINE
  5
8B
330
1F
100
AcDbEntity
  8
0
  6
Continuous
 62
     7
370
    25
100
AcDbPolyline
 90
       28
 70
   128
 43
0.0
 10
23.2105982951
 20
23.8842056571
 10
22.8352626903
 20
23.7301811395
 10
22.5042635106
 20
23.5027036853
 10
22.2354450077
 20
23.2140366629
 10
22.0432992564
 20
22.8797421864
 10
21.9381848841
 20
22.5178421573
 10
21.9257686337
 20
22.1478467001
 10
22.0067198685
 20
21.7897023655
 10
22.1766744865
 20
21.4627168073
 10
22.4264701902
 20
21.1845179016
 10
22.7426404286
 20
20.9701034234
 10
23.1081403823
 20
20.8310325128
 10
23.5032658542
 20
20.7748025185
 10
23.9067155278
 20
20.8044448141
 10
24.2967393268
 20
20.9183613757
 10
24.6523109672
 20
21.110410932
 10
24.9542614899
 20
21.3702400418
 10
25.1863126641
 20
21.6838412504
 10
25.3359545508
 20
22.0343082356
 10
25.3951199172
 20
22.4027472314
 10
25.3606191431
 20
22.7692955962
 10
25.2343121742
 20
23.1141926129
 10
25.0230082518
 20
23.4188447939
 10
24.7380988251
 20
23.6668282613
 10
24.3949434351
 20
23.8447741622
 10
24.0120416776
 20
23.9430893871
 10
23.6100358855
 20
23.9564737366
 10
23.2105982951
 20
23.8842056571
  0
LWPOLYLINE
  5
8C
330
1F
100
AcDbEntity
  8
0
  6
Continuous
 62
     7
370
    25
100
AcDbPolyline
 90
       28
 70
   128
 43
0.0
 10
31.7689112574
 20
-5.1464807109
 10
32.1442468622
 20
-4.9924561932
 10
32.4752460419
 20
-4.764978739
 10
32.7440645448
 20
-4.4763117167
 10
32.9362102961
 20
-4.1420172401
 10
33.0413246684
 20
-3.7801172111
 10
33.0537409188
 20
-3.4101217538
 10
32.972789684
 20
-3.0519774192
 10
32.802835066
 20
-2.7249918611
 10
32.5530393623
 20
-2.4467929554
 10
32.2368691239
 20
-2.2323784772
 10
31.8713691702
 20
-2.0933075666
 10
31.4762436983
 20
-2.0370775723
 10
31.0727940247
 20
-2.0667198678
 10
30.6827702257
 20
-2.1806364294
 10
30.3271985853
 20
-2.3726859858
 10
30.0252480625
 20
-2.6325150955
 10
29.7931968884
 20
-2.9461163041
 10
29.6435550017
 20
-3.2965832893
 10
29.5843896353
 20
-3.6650222851
 10
29.6188904094
 20
-4.03157065
 10
29.7451973783
 20
-4.3764676666
 10
29.9565013007
 20
-4.6811198476
 10
30.2414107274
 20
-4.929103315
 10
30.5845661174
 20
-5.107049216
 10
30.9674678749
 20
-5.2053644408
 10
31.369473667
 20
-5.2187487904
 10
31.7689112574
 20
-5.1464807109
  0
LWPOLYLINE
  5
8D
330
1F
100
AcDbEntity
  8
0
  6
Continuous
 62
     7
370
    25
100
AcDbPolyline
 90
       28
 70
   128
 43
0.0
 10
2.0783320919
 20
-10.5241669786
 10
1.7029964871
 20
-10.6781914963
 10
1.3719973075
 20
-10.9056689505
 10
1.1031788045
 20
-11.1943359728
 10
0.9110330533
 20
-11.5286304494
 10
0.805918681
 20
-11.8905304784
 10
0.7935024306
 20
-12.2605259356
 10
0.8744536654
 20
-12.6186702702
 10
1.0444082833
 20
-12.9456558284
 10
1.2942039871
 20
-13.2238547341
 10
1.6103742255
 20
-13.4382692123
 10
1.9758741792
 20
-13.5773401229
 10
2.370999651
 20
-13.6335701172
 10
2.7744493247
 20
-13.6039278217
 10
3.1644731237
 20
-13.4900112601
 10
3.5200447641
 20
-13.2979617037
 10
3.8219952868
 20
-13.038132594
 10
4.0540464609
 20
-12.7245313853
 10
4.2036883476
 20
-12.3740644002
 10
4.2628537141
 20
-12.0056254043
 10
4.22835294
 20
-11.6390770395
 10
4.102045971
 20
-11.2941800229
 10
3.8907420487
 20
-10.9895278419
 10
3.605832622
 20
-10.7415443745
 10
3.2626772319
 20
-10.5635984735
 10
2.8797754744
 20
-10.4652832487
 10
2.4777696823
 20
-10.4518988991
 10
2.0783320919
 20
-10.5241669786
  0
LWPOLYLINE
  5
8E
330
1F
100
AcDbEntity
  8
0
  6
Continuous
 62
     7
370
    25
100
AcDbPolyline
 90
       28
 70
   128
 43
0.0
 10
-4.6916766693
 20
12.44040582
 10
-4.3163410645
 20
12.5944303376
 10
-3.9853418849
 20
12.8219077918
 10
-3.7165233819
 20
13.1105748142
 10
-3.5243776307
 20
13.4448692907
 10
-3.4192632584
 20
13.8067693197
 10
-3.406847008
 20
14.176764777
 10
-3.4877982428
 20
14.5349091116
 10
-3.6577528607
 20
14.8618946698
 10
-3.9075485644
 20
15.1400935755
 10
-4.2237188029
 20
15.3545080536
 10
-4.5892187566
 20
15.4935789643
 10
-4.9843442284
 20
15.5498089586
 10
-5.3877939021
 20
15.520166663
 10
-5.7778177011
 20
15.4062501014
 10
-6.1333893415
 20
15.2142005451
 10
-6.4353398642
 20
14.9543714353
 10
-6.6673910383
 20
14.6407702267
 10
-6.817032925
 20
14.2903032415
 10
-6.8761982914
 20
13.9218642457
 10
-6.8416975174
 20
13.5553158809
 10
-6.7153905484
 20
13.2104188642
 10
-6.5040866261
 20
12.9057666832
 10
-6.2191771994
 20
12.6577832158
 10
-5.8760218093
 20
12.4798373149
 10
-5.4931200518
 20
12.38152209
 10
-5.0911142597
 20
12.3681377405
 10
-4.6916766693
 20
12.44040582
  0
LWPOLYLINE
  5
8F
330
1F
100
AcDbEntity
  8
0
  6
Continuous
 62
     7
370
    25
100
AcDbPolyline
 90
       28
 70
   128
 43
0.0
 10
42.3238795924
 20
-9.122665191
 10
41.9485439876
 20
-9.2766897086
 10
41.6175448079
 20
-9.5041671628
 10
41.348726305
 20
-9.7928341852
 10
41.1565805537
 20
-10.1271286617
 10
41.0514661814
 20
-10.4890286908
 10
41.039049931
 20
-10.859024148
 10
41.1200011658
 20
-11.2171684826
 10
41.2899557838
 20
-11.5441540408
 10
41.5397514875
 20
-11.8223529465
 10
41.8559217259
 20
-12.0367674246
 10
42.2214216796
 20
-12.1758383353
 10
42.6165471515
 20
-12.2320683296
 10
43.0199968251
 20
-12.202426034
 10
43.4100206241
 20
-12.0885094724
 10
43.7655922645
 20
-11.8964599161
 10
44.0675427872
 20
-11.6366308063
 10
44.2995939614
 20
-11.3230295977
 10
44.4492358481
 20
-10.9725626125
 10
44.5084012145
 20
-10.6041236167
 10
44.4739004404
 20
-10.2375752519
 10
44.3475934715
 20
-9.8926782352
 10
44.1362895491
 20
-9.5880260542
 10
43.8513801224
 20
-9.3400425868
 10
43.5082247324
 20
-9.1620966859
 10
43.1253229749
 20
-9.063781461
 10
42.7233171828
 20
-9.0503971115
 10
42.3238795924
 20
-9.122665191
  0
LWPOLYLINE
  5
90
330
1F
100
AcDbEntity
  8
0
  6
Continuous
 62
     7
370
    25
100
AcDbPolyline
 90
       28
 70
   128
 43
0.0
 10
-29.7329168716
 20
-33.4629377085
 10
-29.3575812668
 20
-33.3089131909
 10
-29.0265820872
 20
-33.0814357367
 10
-28.7577635842
 20
-32.7927687143
 10
-28.565617833
 20
-32.4584742378
 10
-28.4605034607
 20
-32.0965742088
 10
-28.4480872102
 20
-31.7265787515
 10
-28.529038445
 20
-31.3684344169
 10
-28.698993063
 20
-31.0414488587
 10
-28.9487887667
 20
-30.763249953
 10
-29.2649590051
 20
-30.5488354749
 10
-29.6304589588
 20
-30.4097645642
 10
-30.0255844307
 20
-30.3535345699
 10
-30.4290341043
 20
-30.3831768655
 10
-30.8190579034
 20
-30.4970934271
 10
-31.1746295438
 20
-30.6891429834
 10
-31.4765800665
 20
-30.9489720932
 10
-31.7086312406
 20
-31.2625733018
 10
-31.8582731273
 20
-31.613040287
 10
-31.9174384937
 20
-31.9814792828
 10
-31.8829377196
 20
-32.3480276476
 10
-31.7566307507
 20
-32.6929246643
 10
-31.5453268283
 20
-32.9975768453
 10
-31.2604174017
 20
-33.2455603127
 10
-30.9172620116
 20
-33.4235062136
 10
-30.5343602541
 20
-33.5218214385
 10
-30.132354462
 20
-33.535205788
 10
-29.7329168716
 20
-33.4629377085
  0
LWPOLYLINE
  5
91
330
1F
100
AcDbEntity
  8
0
  6
Continuous
 62
     7
370
    25
100
AcDbPolyline
 90
       28
 70
   128
 43
0.0
 10
-43.911614466
 20
14.6326770205
 10
-44.2869500708
 20
14.4786525029
 10
-44.6179492504
 20
14.2511750487
 10
-44.8867677534
 20
13.9625080263
 10
-45.0789135046
 20
13.6282135498
 10
-45.1840278769
 20
13.2663135208
 10
-45.1964441274
 20
12.8963180635
 10
-45.1154928926
 20
12.5381737289
 10
-44.9455382746
 20
12.2111881707
 10
-44.6957425709
 20
11.932989265
 10
-44.3795723325
 20
11.7185747869
 10
-44.0140723788
 20
11.5795038762
 10
-43.6189469069
 20
11.5232738819
 10
-43.2154972333
 20
11.5529161775
 10
-42.8254734342
 20
11.6668327391
 10
-42.4699017938
 20
11.8588822954
 10
-42.1679512711
 20
12.1187114052
 10
-41.935900097
 20
12.4323126138
 10
-41.7862582103
 20
12.782779599
 10
-41.7270928439
 20
13.1512185948
 10
-41.761593618
 20
13.5177669596
 10
-41.8879005869
 20
13.8626639763
 10
-42.0992045093
 20
14.1673161573
 10
-42.3841139359
 20
14.4152996247
 10
-42.727269326
 20
14.5932455256
 10
-43.1101710835
 20
14.6915607505
 10
-43.5121768756
 20
14.7049451
 10
-43.911614466
 20
14.6326770205
  0
LWPOLYLINE
  5
92
330
1F
100
AcDbEntity
  8
0
  6
Continuous
 62
     7
370
    25
100
AcDbPolyline
 90
       28
 70
   128
 43
0.0
 10
29.9334861991
 20
32.9068359687
 10
30.3088218039
 20
33.0608604863
 10
30.6398209835
 20
33.2883379405
 10
30.9086394865
 20
33.5770049629
 10
31.1007852377
 20
33.9112994394
 10
31.2058996101
 20
34.2731994685
 10
31.2183158605
 20
34.6431949257
 10
31.1373646257
 20
35.0013392603
 10
30.9674100077
 20
35.3283248185
 10
30.717614304
 20
35.6065237242
 10
30.4014440656
 20
35.8209382024
 10
30.0359441119
 20
35.960009113
 10
29.64081864
 20
36.0162391073
 10
29.2373689664
 20
35.9865968117
 10
28.8473451674
 20
35.8726802501
 10
28.4917735269
 20
35.6806306938
 10
28.1898230042
 20
35.420801584
 10
27.9577718301
 20
35.1072003754
 10
27.8081299434
 20
34.7567333902
 10
27.748964577
 20
34.3882943944
 10
27.7834653511
 20
34.0217460296
 10
27.90977232
 20
33.6768490129
 10
28.1210762424
 20
33.3721968319
 10
28.405985669
 20
33.1242133645
 10
28.7491410591
 20
32.9462674636
 10
29.1320428166
 20
32.8479522388
 10
29.5340486087
 20
32.8345678892
 10
29.9334861991
 20
32.9068359687
  0
LWPOLYLINE
  5
93
330
1F
100
AcDbEntity
  8
0
  6
Continuous
 62
     7
370
    25
100
AcDbPolyline
 90
       30
 70
   128
 43
0.0
 10
-47.3883987704
 20
-26.6193166619
 10
-46.9876523183
 20
-26.4582585773
 10
-46.6295355012
 20
-26.2236900387
 10
-46.3307934634
 20
-25.9265792103
 10
-46.1053950506
 20
-25.5808186643
 10
-45.963879642
 20
-25.2025757793
 10
-45.9128643408
 20
-24.8095367725
 10
-45.9547345659
 20
-24.4200797109
 10
-46.0875325121
 20
-24.0524151738
 10
-46.3050486949
 20
-23.7237347464
 10
-46.5971122995
 20
-23.4494071601
 10
-46.9500667562
 20
-23.2422596681
 10
-47.347408307
 20
-23.1119782567
 10
-47.7705577025
 20
-23.06465474
 10
-48.1997289474
 20
-23.1025019131
 10
-48.6148544712
 20
-23.2237500842
 10
-48.9965234658
 20
-23.4227298235
 10
-49.3268895132
 20
-23.6901370597
 10
-49.5905050641
 20
-24.0134681275
 10
-49.7750437485
 20
-24.3776044256
 10
-49.8718767425
 20
-24.7655193453
 10
-49.876476243
 20
-25.1590744162
 10
-49.7886271825
 20
-25.5398674406
 10
-49.6124372852
 20
-25.8900929599
 10
-49.3561449952
 20
-26.193374818
 10
-49.0317342549
 20
-26.4355318923
 10
-48.65437415
 20
-26.6052411871
 10
-48.2417096197
 20
-26.6945672845
 10
-47.8130363987
 20
-26.6993333955
 10
-47.3883987704
 20
-26.6193166619
  0
LWPOLYLINE
  5
94
330
1F
100
AcDbEntity
  8
0
  6
Continuous
 62
     7
370
    25
100
AcDbPolyline
 90
       30
 70
   128
 43
0.0
 10
47.7167041122
 20
25.6299210956
 10
48.1174505643
 20
25.7909791802
 10
48.4755673814
 20
26.0255477188
 10
48.7743094191
 20
26.3226585472
 10
48.999707832
 20
26.6684190932
 10
49.1412232406
 20
27.0466619781
 10
49.1922385417
 20
27.439700985
 10
49.1503683166
 20
27.8291580466
 10
49.0175703705
 20
28.1968225837
 10
48.8000541877
 20
28.5255030111
 10
48.5079905831
 20
28.7998305974
 10
48.1550361264
 20
29.0069780894
 10
47.7576945756
 20
29.1372595008
 10
47.33454518
 20
29.1845830174
 10
46.9053739351
 20
29.1467358444
 10
46.4902484114
 20
29.0254876733
 10
46.1085794168
 20
28.8265079339
 10
45.7782133694
 20
28.5591006978
 10
45.5145978184
 20
28.23576963
 10
45.3300591341
 20
27.8716333319
 10
45.23322614
 20
27.4837184122
 10
45.2286266395
 20
27.0901633412
 10
45.3164757001
 20
26.7093703169
 10
45.4926655973
 20
26.3591447976
 10
45.7489578874
 20
26.0558629395
 10
46.0733686277
 20
25.8137058652
 10
46.4507287326
 20
25.6439965704
 10
46.8633932629
 20
25.554670473
 10
47.2920664839
 20
25.549904362
 10
47.7167041122
 20
25.6299210956
  0
LWPOLYLINE
  5
9D
330
1F
100
AcDbEntity
  8
0
  6
Continuous
 62
     7
370
    25
100
AcDbPolyline
 90
       30
 70
   128
 43
0.0
 10
53.3370887442
 20
6.5649927345
 10
52.9363422922
 20
6.4039346499
 10
52.5782254751
 20
6.1693661114
 10
52.2794834373
 20
5.872255283
 10
52.0540850244
 20
5.5264947369
 10
51.9125696158
 20
5.148251852
 10
51.8615543147
 20
4.7552128452
 10
51.9034245398
 20
4.3657557835
 10
52.0362224859
 20
3.9980912464
 10
52.2537386688
 20
3.669410819
 10
52.5458022733
 20
3.3950832328
 10
52.89875673
 20
3.1879357407
 10
53.2960982808
 20
3.0576543294
 10
53.7192476764
 20
3.0103308127
 10
54.1484189213
 20
3.0481779858
 10
54.563544445
 20
3.1694261569
 10
54.9452134396
 20
3.3684058962
 10
55.275579487
 20
3.6358131324
 10
55.539195038
 20
3.9591442002
 10
55.7237337224
 20
4.3232804982
 10
55.8205667164
 20
4.711195418
 10
55.8251662169
 20
5.1047504889
 10
55.7373171563
 20
5.4855435133
 10
55.5611272591
 20
5.8357690325
 10
55.304834969
 20
6.1390508906
 10
54.9804242287
 20
6.3812079649
 10
54.6030641238
 20
6.5509172598
 10
54.1903995935
 20
6.6402433572
 10
53.7617263725
 20
6.6450094681
 10
53.3370887442
 20
6.5649927345
  0
LWPOLYLINE
  5
9E
330
1F
100
AcDbEntity
  8
0
  6
Continuous
 62
     7
370
    25
100
AcDbPolyline
 90
       30
 70
   128
 43
0.0
 10
-55.0525596322
 20
-0.6216870786
 10
-55.4533060842
 20
-0.7827451632
 10
-55.8114229013
 20
-1.0173137017
 10
-56.1101649391
 20
-1.3144245301
 10
-56.335563352
 20
-1.6601850762
 10
-56.4770787606
 20
-2.0384279611
 10
-56.5280940617
 20
-2.4314669679
 10
-56.4862238366
 20
-2.8209240296
 10
-56.3534258905
 20
-3.1885885667
 10
-56.1359097076
 20
-3.5172689941
 10
-55.8438461031
 20
-3.7915965803
 10
-55.4908916464
 20
-3.9987440724
 10
-55.0935500956
 20
-4.1290254837
 10
-54.6704007
 20
-4.1763490004
 10
-54.2412294551
 20
-4.1385018273
 10
-53.8261039313
 20
-4.0172536562
 10
-53.4444349368
 20
-3.8182739169
 10
-53.1140688894
 20
-3.5508666808
 10
-52.8504533384
 20
-3.227535613
 10
-52.665914654
 20
-2.8633993149
 10
-52.56908166
 20
-2.4754843951
 10
-52.5644821595
 20
-2.0819293242
 10
-52.6523312201
 20
-1.7011362998
 10
-52.8285211173
 20
-1.3509107806
 10
-53.0848134074
 20
-1.0476289225
 10
-53.4092241477
 20
-0.8054718482
 10
-53.7865842525
 20
-0.6357625533
 10
-54.1992487829
 20
-0.5464364559
 10
-54.6279220039
 20
-0.541670345
 10
-55.0525596322
 20
-0.6216870786
  0
LWPOLYLINE
  5
C0
330
1F
100
AcDbEntity
  8
0
  6
Continuous
 62
     7
370
    25
100
AcDbPolyline
 90
       34
 70
   128
 43
0.0
 10
31.2089855483
 20
25.0438359051
 10
31.6515904053
 20
25.2156321237
 10
32.0551148077
 20
25.4595210185
 10
32.4049743323
 20
25.7666878093
 10
32.6885241442
 20
26.1260306881
 10
32.8955160145
 20
26.5245620668
 10
33.0184687177
 20
26.9478779832
 10
33.0529384227
 20
27.3806786971
 10
32.9976793046
 20
27.807321663
 10
32.8546885719
 20
28.2123868925
 10
32.6291342822
 20
28.5812342729
 10
32.3291685553
 20
28.9005326987
 10
31.965632934
 20
29.1587418931
 10
31.5516665429
 20
29.3465295028
 10
31.102231206
 20
29.4571083945
 10
30.6335706873
 20
29.4864819588
 10
30.162623599
 20
29.4335885587
 10
29.706411196
 20
29.3003398994
 10
29.2814221831
 20
29.0915519346
 10
28.9030167706
 20
28.8147708055
 10
28.584871516
 20
28.480000103
 10
28.3384850178
 20
28.0993393127
 10
28.1727623259
 20
27.6865465074
 10
28.0936930901
 20
27.2565410944
 10
28.1041350788
 20
26.8248645899
 10
28.2037108912
 20
26.4071189074
 10
28.388821598
 20
26.0184024643
 10
28.652776816
 20
25.6727644857
 10
28.9860365158
 20
25.3826972286
 10
29.3765558236
 20
25.1586844795
 10
29.8102203542
 20
25.0088226428
 10
30.2713563415
 20
24.9385281157
 10
30.7432971294
 20
24.9503415256
 10
31.2089855483
 20
25.0438359051
  0
LINE
  5
11B
330
1F
100
AcDbEntity
  8
0
  6
Continuous
 62
     7
370
    25
100
AcDbLine
 10
62.0752907844
 20
-5.4574985612
 30
0.0
 11
61.7284993979
 21
-4.2190210388
 31
0.0
  0
LINE
  5
11C
330
1F
100
AcDbEntity
  8
0
  6
Continuous
 62
     7
370
    25
100
AcDbLine
 10
-62.4220821709
 20
6.6959760836
 30
0.0
 11
-62.0752907844
 21
5.4574985612
 31
0.0
  0
LINE
  5
11D
330
1F
100
AcDbEntity
  8
0
  6
Continuous
 62
     7
370
    25
100
AcDbLine
 10
-23.9699098698
 20
-24.7206654987
 30
0.0
 11
33.6229442601
 21
-7.8991793938
 31
0.0
  0
LINE
  5
11E
330
1F
100
AcDbEntity
  8
0
  6
Continuous
 62
     7
370
    25
100
AcDbLine
 10
-23.0757577692
 20
-27.7537222835
 30
0.0
 11
34.5170963607
 21
-10.9322361786
 31
0.0
  0
LINE
  5
11F
330
1F
100
AcDbEntity
  8
0
  6
Continuous
 62
     7
370
    25
100
AcDbLine
 10
-37.395216939
 20
-3.9352463256
 30
0.0
 11
-34.3295525943
 21
-14.3342981589
 31
0.0
  0
LINE
  5
120
330
1F
100
AcDbEntity
  8
0
  6
Continuous
 62
     7
370
    25
100
AcDbLine
 10
-31.635931526
 20
-2.2530977151
 30
0.0
 11
-28.5702671813
 21
-12.6521495484
 31
0.0
  0
LINE
  5
121
330
1F
100
AcDbEntity
  8
0
  6
Continuous
 62
     7
370
    25
100
AcDbLine
 10
-34.3165270332
 20
10.3761344387
 30
0.0
 11
23.2763270967
 21
27.1976205436
 31
0.0
  0
LINE
  5
122
330
1F
100
AcDbEntity
  8
0
  6
Continuous
 62
     7
370
    25
100
AcDbLine
 10
-35.2106791338
 20
13.4091912234
 30
0.0
 11
22.3821749961
 21
30.2306773283
 31
0.0
  0
LINE
  5
123
330
1F
100
AcDbEntity
  8
0
  6
Continuous
 62
     7
370
    25
100
AcDbLine
 10
-38.9919171185
 20
1.4809265043
 30
0.0
 11
-19.7942990752
 21
7.0880885392
 31
0.0
  0
LINE
  5
124
330
1F
100
AcDbEntity
  8
0
  6
Continuous
 62
     7
370
    25
100
AcDbLine
 10
-39.8860692191
 20
4.513983289
 30
0.0
 11
-20.6884511758
 21
10.1211453239
 31
0.0
  0
LINE
  5
125
330
1F
100
AcDbEntity
  8
0
  6
Continuous
 62
     7
370
    25
100
AcDbLine
 10
-43.5563183395
 20
-39.6181314535
 30
0.0
 11
58.19105729
 21
-9.9001726682
 31
0.0
  0
LINE
  5
126
330
1F
100
AcDbEntity
  8
0
  6
Continuous
 62
     7
370
    25
100
AcDbLine
 10
-62.4066844303
 20
6.6423989404
 30
0.0
 11
-49.6330829939
 21
-36.6869836984
 31
0.0
  0
LINE
  5
127
330
1F
100
AcDbEntity
  8
0
  6
Continuous
 62
     7
370
    25
100
AcDbLine
 10
42.8627355664
 20
42.0950864984
 30
0.0
 11
-58.8846400631
 21
12.3771277131
 31
0.0
  0
LINE
  5
128
330
1F
100
AcDbEntity
  8
0
  6
Continuous
 62
     7
370
    25
100
AcDbLine
 10
61.7131016572
 20
-4.1654438956
 30
0.0
 11
48.9395002208
 21
39.1639387432
 31
0.0
  0
LINE
  5
129
330
1F
100
AcDbEntity
  8
0
  6
Continuous
 62
     7
370
    25
100
AcDbLine
 10
-48.3645654285
 20
-11.8362008315
 30
0.0
 11
-48.2254785135
 21
-12.3079980917
 31
0.0
  0
LINE
  5
12A
330
1F
100
AcDbEntity
  8
0
  6
Continuous
 62
     7
370
    25
100
AcDbLine
 10
-50.1508746794
 20
-13.4061274489
 30
0.0
 11
-48.3645654285
 21
-11.8362008315
 31
0.0
  0
LINE
  5
12B
330
1F
100
AcDbEntity
  8
0
  6
Continuous
 62
     7
370
    25
100
AcDbLine
 10
-50.0363229562
 20
-13.7946987905
 30
0.0
 11
-50.1508746794
 21
-13.4061274489
 31
0.0
  0
LINE
  5
12C
330
1F
100
AcDbEntity
  8
0
  6
Continuous
 62
     7
370
    25
100
AcDbLine
 10
-47.6809922376
 20
-14.1549520856
 30
0.0
 11
-50.0363229562
 21
-13.7946987905
 31
0.0
  0
LINE
  5
12D
330
1F
100
AcDbEntity
  8
0
  6
Continuous
 62
     7
370
    25
100
AcDbLine
 10
-47.8199166679
 20
-13.6837059904
 30
0.0
 11
-47.6809922376
 21
-14.1549520856
 31
0.0
  0
LINE
  5
12E
330
1F
100
AcDbEntity
  8
0
  6
Continuous
 62
     7
370
    25
100
AcDbLine
 10
-49.4988894312
 20
-13.4270121374
 30
0.0
 11
-47.8199166679
 21
-13.6837059904
 31
0.0
  0
LINE
  5
12F
330
1F
100
AcDbEntity
  8
0
  6
Continuous
 62
     7
370
    25
100
AcDbLine
 10
-48.2254785135
 20
-12.3079980917
 30
0.0
 11
-49.4988894312
 21
-13.4270121374
 31
0.0
  0
LINE
  5
130
330
1F
100
AcDbEntity
  8
0
  6
Continuous
 62
     7
370
    25
100
AcDbLine
 10
-43.2851956545
 20
-10.3526392097
 30
0.0
 11
-43.1461087395
 21
-10.8244364699
 31
0.0
  0
LINE
  5
131
330
1F
100
AcDbEntity
  8
0
  6
Continuous
 62
     7
370
    25
100
AcDbLine
 10
-45.0715049055
 20
-11.9225658272
 30
0.0
 11
-43.2851956545
 21
-10.3526392097
 31
0.0
  0
LINE
  5
132
330
1F
100
AcDbEntity
  8
0
  6
Continuous
 62
     7
370
    25
100
AcDbLine
 10
-44.9569531823
 20
-12.3111371688
 30
0.0
 11
-45.0715049055
 21
-11.9225658272
 31
0.0
  0
LINE
  5
133
330
1F
100
AcDbEntity
  8
0
  6
Continuous
 62
     7
370
    25
100
AcDbLine
 10
-42.6016224636
 20
-12.6713904638
 30
0.0
 11
-44.9569531823
 21
-12.3111371688
 31
0.0
  0
LINE
  5
134
330
1F
100
AcDbEntity
  8
0
  6
Continuous
 62
     7
370
    25
100
AcDbLine
 10
-42.7405468939
 20
-12.2001443687
 30
0.0
 11
-42.6016224636
 21
-12.6713904638
 31
0.0
  0
LINE
  5
135
330
1F
100
AcDbEntity
  8
0
  6
Continuous
 62
     7
370
    25
100
AcDbLine
 10
-44.4195196573
 20
-11.9434505156
 30
0.0
 11
-42.7405468939
 21
-12.2001443687
 31
0.0
  0
LINE
  5
136
330
1F
100
AcDbEntity
  8
0
  6
Continuous
 62
     7
370
    25
100
AcDbLine
 10
-43.1461087395
 20
-10.8244364699
 30
0.0
 11
-44.4195196573
 21
-11.9434505156
 31
0.0
  0
LINE
  5
137
330
1F
100
AcDbEntity
  8
0
  6
Continuous
 62
     7
370
    25
100
AcDbLine
 10
-45.8248805415
 20
-11.0944200206
 30
0.0
 11
-45.6857936265
 21
-11.5662172808
 31
0.0
  0
LINE
  5
138
330
1F
100
AcDbEntity
  8
0
  6
Continuous
 62
     7
370
    25
100
AcDbLine
 10
-47.6111897924
 20
-12.664346638
 30
0.0
 11
-45.8248805415
 21
-11.0944200206
 31
0.0
  0
LINE
  5
139
330
1F
100
AcDbEntity
  8
0
  6
Continuous
 62
     7
370
    25
100
AcDbLine
 10
-47.4966380692
 20
-13.0529179796
 30
0.0
 11
-47.6111897924
 21
-12.664346638
 31
0.0
  0
LINE
  5
13A
330
1F
100
AcDbEntity
  8
0
  6
Continuous
 62
     7
370
    25
100
AcDbLine
 10
-45.1413073506
 20
-13.4131712747
 30
0.0
 11
-47.4966380692
 21
-13.0529179796
 31
0.0
  0
LINE
  5
13B
330
1F
100
AcDbEntity
  8
0
  6
Continuous
 62
     7
370
    25
100
AcDbLine
 10
-45.2802317809
 20
-12.9419251796
 30
0.0
 11
-45.1413073506
 21
-13.4131712747
 31
0.0
  0
LINE
  5
13C
330
1F
100
AcDbEntity
  8
0
  6
Continuous
 62
     7
370
    25
100
AcDbLine
 10
-46.9592045443
 20
-12.6852313265
 30
0.0
 11
-45.2802317809
 21
-12.9419251796
 31
0.0
  0
LINE
  5
13D
330
1F
100
AcDbEntity
  8
0
  6
Continuous
 62
     7
370
    25
100
AcDbLine
 10
-45.6857936265
 20
-11.5662172808
 30
0.0
 11
-46.9592045443
 21
-12.6852313265
 31
0.0
  0
LINE
  5
13E
330
1F
100
AcDbEntity
  8
0
  6
Continuous
 62
     7
370
    25
100
AcDbLine
 10
-5.7501507739
 20
7.1899253885
 30
0.0
 11
-1.6625983143
 21
-6.6754770559
 31
0.0
  0
LINE
  5
13F
330
1F
100
AcDbEntity
  8
0
  6
Continuous
 62
     7
370
    25
100
AcDbLine
 10
0.7681075475
 20
-7.847936158
 30
0.0
 11
36.2837009276
 21
2.5253136067
 31
0.0
  0
LINE
  5
140
330
1F
100
AcDbEntity
  8
0
  6
Continuous
 62
     7
370
    25
100
AcDbLine
 10
33.6049662148
 20
18.6846075602
 30
0.0
 11
37.6925186745
 21
4.8192051158
 31
0.0
  0
LINE
  5
141
330
1F
100
AcDbEntity
  8
0
  6
Continuous
 62
     7
370
    25
100
AcDbLine
 10
-4.3413330271
 20
9.4838168976
 30
0.0
 11
31.174260353
 21
19.8570666622
 31
0.0
  0
LINE
  5
142
330
1F
100
AcDbEntity
  8
0
  6
Continuous
 62
     7
370
    25
100
AcDbLine
 10
-32.7328524147
 20
-19.7504709888
 30
0.0
 11
-13.5352343714
 21
-14.1433089538
 31
0.0
  0
LINE
  5
143
330
1F
100
AcDbEntity
  8
0
  6
Continuous
 62
     7
370
    25
100
AcDbLine
 10
-31.8387003142
 20
-22.7835277735
 30
0.0
 11
-12.6410822709
 21
-17.1763657385
 31
0.0
  0
LINE
  5
144
330
1F
100
AcDbEntity
  8
0
  6
Continuous
 62
     7
370
    25
100
AcDbLine
 10
-43.5563183395
 20
-39.6181314535
 30
0.0
 11
-43.2095269529
 21
-40.8566089759
 31
0.0
  0
LINE
  5
145
330
1F
100
AcDbEntity
  8
0
  6
Continuous
 62
     7
370
    25
100
AcDbLine
 10
-49.2862916074
 20
-37.9254612208
 30
0.0
 11
-49.6330829939
 21
-36.6869836984
 31
0.0
  0
LINE
  5
146
330
1F
100
AcDbEntity
  8
0
  6
Continuous
 62
     7
370
    25
100
AcDbLine
 10
58.5378486766
 20
-11.1386501906
 30
0.0
 11
58.19105729
 21
-9.9001726682
 31
0.0
  0
LINE
  5
147
330
1F
100
AcDbEntity
  8
0
  6
Continuous
 62
     7
370
    25
100
AcDbLine
 10
-43.2095269529
 20
-40.8566089759
 30
0.0
 11
58.5378486766
 21
-11.1386501906
 31
0.0
  0
LINE
  5
148
330
1F
100
AcDbEntity
  8
0
  6
Continuous
 62
     7
370
    25
100
AcDbLine
 10
-62.4066844303
 20
6.6423989404
 30
0.0
 11
-62.0598930437
 21
5.403921418
 31
0.0
  0
LINE
  5
149
330
1F
100
AcDbEntity
  8
0
  6
Continuous
 62
     7
370
    25
100
AcDbLine
 10
-62.0598930437
 20
5.403921418
 30
0.0
 11
-49.2862916074
 21
-37.9254612208
 31
0.0
  0
LINE
  5
14A
330
1F
100
AcDbEntity
  8
0
  6
Continuous
 62
     7
370
    25
100
AcDbLine
 10
-23.6231184832
 20
-25.9591430212
 30
0.0
 11
-23.9699098698
 21
-24.7206654987
 31
0.0
  0
LINE
  5
14B
330
1F
100
AcDbEntity
  8
0
  6
Continuous
 62
     7
370
    25
100
AcDbLine
 10
33.9697356467
 20
-9.1376569163
 30
0.0
 11
33.6229442601
 21
-7.8991793938
 31
0.0
  0
LINE
  5
14C
330
1F
100
AcDbEntity
  8
0
  6
Continuous
 62
     7
370
    25
100
AcDbLine
 10
-23.6231184832
 20
-25.9591430212
 30
0.0
 11
33.9697356467
 21
-9.1376569163
 31
0.0
  0
LINE
  5
14D
330
1F
100
AcDbEntity
  8
0
  6
Continuous
 62
     7
370
    25
100
AcDbLine
 10
-32.3860610282
 20
-20.9889485112
 30
0.0
 11
-32.7328524147
 21
-19.7504709888
 31
0.0
  0
LINE
  5
14E
330
1F
100
AcDbEntity
  8
0
  6
Continuous
 62
     7
370
    25
100
AcDbLine
 10
-13.1884429849
 20
-15.3817864762
 30
0.0
 11
-13.5352343714
 21
-14.1433089538
 31
0.0
  0
LINE
  5
14F
330
1F
100
AcDbEntity
  8
0
  6
Continuous
 62
     7
370
    25
100
AcDbLine
 10
-32.3860610282
 20
-20.9889485112
 30
0.0
 11
-13.1884429849
 21
-15.3817864762
 31
0.0
  0
LINE
  5
150
330
1F
100
AcDbEntity
  8
0
  6
Continuous
 62
     7
370
    25
100
AcDbLine
 10
33.9517576014
 20
17.4461300378
 30
0.0
 11
33.6049662148
 21
18.6846075602
 31
0.0
  0
LINE
  5
151
330
1F
100
AcDbEntity
  8
0
  6
Continuous
 62
     7
370
    25
100
AcDbLine
 10
33.9517576014
 20
17.4461300378
 30
0.0
 11
37.7432288323
 21
4.5850658696
 31
0.0
  0
LINE
  5
152
330
1F
100
AcDbEntity
  8
0
  6
Continuous
 62
     7
370
    25
100
AcDbLine
 10
-31.2891401395
 20
-3.4915752375
 30
0.0
 11
-31.635931526
 21
-2.2530977151
 31
0.0
  0
LINE
  5
153
330
1F
100
AcDbEntity
  8
0
  6
Continuous
 62
     7
370
    25
100
AcDbLine
 10
-31.2891401395
 20
-3.4915752375
 30
0.0
 11
-28.5043095529
 21
-12.9380097979
 31
0.0
  0
LINE
  5
154
330
1F
100
AcDbEntity
  8
0
  6
Continuous
 62
     7
370
    25
100
AcDbLine
 10
-47.7967972421
 20
-13.7662711586
 30
0.0
 11
-47.6822708672
 21
-14.1547565162
 31
0.0
  0
LINE
  5
155
330
1F
100
AcDbEntity
  8
0
  6
Continuous
 62
     7
370
    25
100
AcDbLine
 10
-47.7967972421
 20
-13.7662711586
 30
0.0
 11
-47.8199166679
 21
-13.6837059904
 31
0.0
  0
LINE
  5
156
330
1F
100
AcDbEntity
  8
0
  6
Continuous
 62
     7
370
    25
100
AcDbLine
 10
-45.2571123551
 20
-13.0244903477
 30
0.0
 11
-45.1425859802
 21
-13.4129757053
 31
0.0
  0
LINE
  5
157
330
1F
100
AcDbEntity
  8
0
  6
Continuous
 62
     7
370
    25
100
AcDbLine
 10
-45.2571123551
 20
-13.0244903477
 30
0.0
 11
-45.2802317809
 21
-12.9419251796
 31
0.0
  0
LINE
  5
158
330
1F
100
AcDbEntity
  8
0
  6
Continuous
 62
     7
370
    25
100
AcDbLine
 10
-42.7174274682
 20
-12.2827095369
 30
0.0
 11
-42.6029010932
 21
-12.6711948945
 31
0.0
  0
LINE
  5
159
330
1F
100
AcDbEntity
  8
0
  6
Continuous
 62
     7
370
    25
100
AcDbLine
 10
-42.7174274682
 20
-12.2827095369
 30
0.0
 11
-42.7405468939
 21
-12.2001443687
 31
0.0
  0
LINE
  5
15A
330
1F
100
AcDbEntity
  8
0
  6
Continuous
 62
     7
370
    25
100
AcDbLine
 10
-50.1267855266
 20
-13.4878403569
 30
0.0
 11
-48.3414460027
 21
-11.9187659997
 31
0.0
  0
LINE
  5
15B
330
1F
100
AcDbEntity
  8
0
  6
Continuous
 62
     7
370
    25
100
AcDbLine
 10
-48.3414460027
 20
-11.9187659997
 30
0.0
 11
-48.2264482661
 21
-12.308850265
 31
0.0
  0
LINE
  5
15C
330
1F
100
AcDbEntity
  8
0
  6
Continuous
 62
     7
370
    25
100
AcDbLine
 10
-49.4757700055
 20
-13.5095773055
 30
0.0
 11
-47.7967972421
 21
-13.7662711586
 31
0.0
  0
LINE
  5
15D
330
1F
100
AcDbEntity
  8
0
  6
Continuous
 62
     7
370
    25
100
AcDbLine
 10
-47.5871006397
 20
-12.746059546
 30
0.0
 11
-45.8017611157
 21
-11.1769851888
 31
0.0
  0
LINE
  5
15E
330
1F
100
AcDbEntity
  8
0
  6
Continuous
 62
     7
370
    25
100
AcDbLine
 10
-45.8017611157
 20
-11.1769851888
 30
0.0
 11
-45.6867633791
 21
-11.5670694541
 31
0.0
  0
LINE
  5
15F
330
1F
100
AcDbEntity
  8
0
  6
Continuous
 62
     7
370
    25
100
AcDbLine
 10
-46.9360851185
 20
-12.7677964947
 30
0.0
 11
-45.2571123551
 21
-13.0244903477
 31
0.0
  0
LINE
  5
160
330
1F
100
AcDbEntity
  8
0
  6
Continuous
 62
     7
370
    25
100
AcDbLine
 10
-45.0474157527
 20
-12.0042787351
 30
0.0
 11
-43.2620762288
 21
-10.4352043779
 31
0.0
  0
LINE
  5
161
330
1F
100
AcDbEntity
  8
0
  6
Continuous
 62
     7
370
    25
100
AcDbLine
 10
-43.2620762288
 20
-10.4352043779
 30
0.0
 11
-43.1470784922
 21
-10.8252886432
 31
0.0
  0
LINE
  5
162
330
1F
100
AcDbEntity
  8
0
  6
Continuous
 62
     7
370
    25
100
AcDbLine
 10
-44.3964002315
 20
-12.0260156838
 30
0.0
 11
-42.7174274682
 21
-12.2827095369
 31
0.0
  0
LINE
  5
163
330
1F
100
AcDbEntity
  8
0
  6
Continuous
 62
     7
370
    25
100
AcDbLine
 10
-49.4757700055
 20
-13.5095773055
 30
0.0
 11
-49.4988894312
 21
-13.4270121374
 31
0.0
  0
LINE
  5
164
330
1F
100
AcDbEntity
  8
0
  6
Continuous
 62
     7
370
    25
100
AcDbLine
 10
-46.9360851185
 20
-12.7677964947
 30
0.0
 11
-46.9592045443
 21
-12.6852313265
 31
0.0
  0
LINE
  5
165
330
1F
100
AcDbEntity
  8
0
  6
Continuous
 62
     7
370
    25
100
AcDbLine
 10
-44.3964002315
 20
-12.0260156838
 30
0.0
 11
-44.4195196573
 21
-11.9434505156
 31
0.0
  0
LINE
  5
166
330
1F
100
AcDbEntity
  8
0
  6
Continuous
 62
     7
370
    25
100
AcDbLine
 10
-48.3414460027
 20
-11.9187659997
 30
0.0
 11
-48.3645654285
 21
-11.8362008315
 31
0.0
  0
LINE
  5
167
330
1F
100
AcDbEntity
  8
0
  6
Continuous
 62
     7
370
    25
100
AcDbLine
 10
-45.8017611157
 20
-11.1769851888
 30
0.0
 11
-45.8248805415
 21
-11.0944200206
 31
0.0
  0
LINE
  5
168
330
1F
100
AcDbEntity
  8
0
  6
Continuous
 62
     7
370
    25
100
AcDbLine
 10
-43.2620762288
 20
-10.4352043779
 30
0.0
 11
-43.2851956545
 21
-10.3526392097
 31
0.0
  0
LINE
  5
169
330
1F
100
AcDbEntity
  8
0
  6
Continuous
 62
     7
370
    25
100
AcDbLine
 10
-3.9945416405
 20
8.2453393751
 30
0.0
 11
-4.3413330271
 21
9.4838168976
 31
0.0
  0
LINE
  5
16A
330
1F
100
AcDbEntity
  8
0
  6
Continuous
 62
     7
370
    25
100
AcDbLine
 10
31.5210517396
 20
18.6185891398
 30
0.0
 11
31.174260353
 21
19.8570666622
 31
0.0
  0
LINE
  5
16B
330
1F
100
AcDbEntity
  8
0
  6
Continuous
 62
     7
370
    25
100
AcDbLine
 10
-3.9945416405
 20
8.2453393751
 30
0.0
 11
31.5210517396
 21
18.6185891398
 31
0.0
  0
LINE
  5
16C
330
1F
100
AcDbEntity
  8
0
  6
Continuous
 62
     7
370
    25
100
AcDbLine
 10
-39.5392778326
 20
3.2755057665
 30
0.0
 11
-39.8860692191
 21
4.513983289
 31
0.0
  0
LINE
  5
16D
330
1F
100
AcDbEntity
  8
0
  6
Continuous
 62
     7
370
    25
100
AcDbLine
 10
-20.3416597893
 20
8.8826678015
 30
0.0
 11
-20.6884511758
 21
10.1211453239
 31
0.0
  0
LINE
  5
16E
330
1F
100
AcDbEntity
  8
0
  6
Continuous
 62
     7
370
    25
100
AcDbLine
 10
-39.5392778326
 20
3.2755057665
 30
0.0
 11
-20.3416597893
 21
8.8826678015
 31
0.0
  0
LINE
  5
16F
330
1F
100
AcDbEntity
  8
0
  6
Continuous
 62
     7
370
    25
100
AcDbLine
 10
-34.8638877472
 20
12.170713701
 30
0.0
 11
-35.2106791338
 21
13.4091912234
 31
0.0
  0
LINE
  5
170
330
1F
100
AcDbEntity
  8
0
  6
Continuous
 62
     7
370
    25
100
AcDbLine
 10
22.7289663827
 20
28.9921998059
 30
0.0
 11
22.3821749961
 21
30.2306773283
 31
0.0
  0
LINE
  5
171
330
1F
100
AcDbEntity
  8
0
  6
Continuous
 62
     7
370
    25
100
AcDbLine
 10
-34.8638877472
 20
12.170713701
 30
0.0
 11
22.7289663827
 21
28.9921998059
 31
0.0
  0
LINE
  5
172
330
1F
100
AcDbEntity
  8
0
  6
Continuous
 62
     7
370
    25
100
AcDbLine
 10
-62.0598930437
 20
5.403921418
 30
0.0
 11
-62.0752907844
 21
5.4574985612
 31
0.0
  0
LINE
  5
173
330
1F
100
AcDbEntity
  8
0
  6
Continuous
 62
     8
370
    25
100
AcDbLine
 10
37.7045435637
 20
4.7762612721
 30
0.0
 11
37.6925186745
 21
4.8192051158
 31
0.0
  0
LINE
  5
174
330
1F
100
AcDbEntity
  8
0
  6
Continuous
 62
     8
370
    25
100
AcDbLine
 10
-28.5522298474
 20
-12.7165653139
 30
0.0
 11
-28.5702671813
 21
-12.6521495484
 31
0.0
  0
ARC
  5
175
330
1F
100
AcDbEntity
  8
0
  6
Continuous
 62
     7
370
    25
100
AcDbCircle
 10
34.1893727815
 20
-9.3805224038
 30
0.0
 40
1.585944003757664
100
AcDbArc
 50
281.9256717261
 51
110.9256040041
  0
ARC
  5
176
330
1F
100
AcDbEntity
  8
0
  6
Continuous
 62
     7
370
    25
100
AcDbCircle
 10
-23.6421862906
 20
-26.2723792735
 30
0.0
 40
1.585944003757658
100
AcDbArc
 50
101.9256717261
 51
290.9256040041
  0
ARC
  5
177
330
1F
100
AcDbEntity
  8
0
  6
Continuous
 62
     7
370
    25
100
AcDbCircle
 10
-31.5150669754
 20
-13.2701411474
 30
0.0
 40
3.008946567139741
100
AcDbArc
 50
200.7116052161
 51
11.8520201562
  0
ARC
  5
178
330
1F
100
AcDbEntity
  8
0
  6
Continuous
 62
     7
370
    25
100
AcDbCircle
 10
-34.4504171449
 20
-3.3172547266
 30
0.0
 40
3.008946567139739
100
AcDbArc
 50
20.7116052161
 51
191.8520201562
  0
ARC
  5
179
330
1F
100
AcDbEntity
  8
0
  6
Continuous
 62
     7
370
    25
100
AcDbCircle
 10
22.9482976089
 20
28.7492441358
 30
0.0
 40
1.585919013270318
100
AcDbArc
 50
281.9371582596
 51
110.9141174706
  0
ARC
  5
17A
330
1F
100
AcDbEntity
  8
0
  6
Continuous
 62
     7
370
    25
100
AcDbCircle
 10
-34.882649646
 20
11.8575676312
 30
0.0
 40
1.58591901327032
100
AcDbArc
 50
101.9371582596
 51
290.9141174706
  0
ARC
  5
17B
330
1F
100
AcDbEntity
  8
0
  6
Continuous
 62
     7
370
    25
100
AcDbCircle
 10
-20.122328563
 20
8.6397121314
 30
0.0
 40
1.585919013270326
100
AcDbArc
 50
281.9371582596
 51
110.9141174706
  0
ARC
  5
17C
330
1F
100
AcDbEntity
  8
0
  6
Continuous
 62
     7
370
    25
100
AcDbCircle
 10
-39.5580397313
 20
2.9623596968
 30
0.0
 40
1.585919013270323
100
AcDbArc
 50
101.9371582596
 51
290.9141174706
  0
ARC
  5
17D
330
1F
100
AcDbEntity
  8
0
  6
Continuous
 62
     7
370
    25
100
AcDbCircle
 10
57.1071054952
 20
-5.2855374043
 30
0.0
 40
4.740233128546116
100
AcDbArc
 50
283.2188150747
 51
13.6679723969
  0
ARC
  5
17E
330
1F
100
AcDbEntity
  8
0
  6
Continuous
 62
     7
370
    25
100
AcDbCircle
 10
-45.1025588052
 20
-35.0590953281
 30
0.0
 40
4.814111545336762
100
AcDbArc
 50
199.7641584774
 51
288.7348557691
  0
ARC
  5
17F
330
1F
100
AcDbEntity
  8
0
  6
Continuous
 62
     7
370
    25
100
AcDbCircle
 10
-57.8006882682
 20
7.7624924491
 30
0.0
 40
4.740233128546117
100
AcDbArc
 50
103.2188150747
 51
193.6679723969
  0
ARC
  5
180
330
1F
100
AcDbEntity
  8
0
  6
Continuous
 62
     7
370
    25
100
AcDbCircle
 10
44.4089760321
 20
37.5360503729
 30
0.0
 40
4.81411154533675
100
AcDbArc
 50
19.7641584774
 51
108.7348557691
  0
ARC
  5
181
330
1F
100
AcDbEntity
  8
0
  6
Continuous
 62
     7
370
    25
100
AcDbCircle
 10
0.143984421
 20
-6.0359873058
 30
0.0
 40
1.916425923407045
100
AcDbArc
 50
199.492820568
 51
289.0061936785
  0
ARC
  5
182
330
1F
100
AcDbEntity
  8
0
  6
Continuous
 62
     7
370
    25
100
AcDbCircle
 10
35.8391112198
 20
4.3779289999
 30
0.0
 40
1.905214896939829
100
AcDbArc
 50
283.4946224502
 51
13.3921650214
  0
ARC
  5
183
330
1F
100
AcDbEntity
  8
0
  6
Continuous
 62
     7
370
    25
100
AcDbCircle
 10
31.7983834796
 20
18.0451178101
 30
0.0
 40
1.916425923407047
100
AcDbArc
 50
19.492820568
 51
109.0061936785
  0
ARC
  5
184
330
1F
100
AcDbEntity
  8
0
  6
Continuous
 62
     7
370
    25
100
AcDbCircle
 10
-3.8967433192
 20
7.6312015043
 30
0.0
 40
1.905214896939831
100
AcDbArc
 50
103.4946224502
 51
193.3921650214
  0
ARC
  5
185
330
1F
100
AcDbEntity
  8
0
  6
Continuous
 62
     7
370
    25
100
AcDbCircle
 10
-12.96880585
 20
-15.6246519638
 30
0.0
 40
1.585944003757656
100
AcDbArc
 50
281.9256717261
 51
110.9256040041
  0
ARC
  5
186
330
1F
100
AcDbEntity
  8
0
  6
Continuous
 62
     7
370
    25
100
AcDbCircle
 10
-32.4051288356
 20
-21.3021847635
 30
0.0
 40
1.585944003757654
100
AcDbArc
 50
101.9256717261
 51
290.9256040041
  0
ARC
  5
187
330
1F
100
AcDbEntity
  8
0
  6
Continuous
 62
     7
370
    25
100
AcDbCircle
 10
-44.7840258705
 20
-36.3561573969
 30
0.0
 40
4.767925257069085
100
AcDbArc
 50
199.2164441158
 51
289.2825701307
  0
ARC
  5
188
330
1F
100
AcDbEntity
  8
0
  6
Continuous
 62
     7
370
    25
100
AcDbCircle
 10
57.3954567835
 20
-6.4854324697
 30
0.0
 40
4.791397958424334
100
AcDbArc
 50
283.7936361235
 51
12.3883871435
  0
ARC
  5
189
330
1F
100
AcDbEntity
  8
0
  6
Continuous
 62
     7
370
    25
100
AcDbCircle
 10
-29.7735039589
 20
-33.3980815991
 30
0.0
 40
1.817454736683968
100
AcDbArc
 50
44.0439718454
 51
167.2420380199
  0
ARC
  5
18A
330
1F
100
AcDbEntity
  8
0
  6
Continuous
 62
     7
370
    25
100
AcDbCircle
 10
43.1214347616
 20
-12.0579624606
 30
0.0
 40
1.755672304903869
100
AcDbArc
 50
104.8771340626
 51
167.8856807479
  0
ARC
  5
18B
330
1F
100
AcDbEntity
  8
0
  6
Continuous
 62
     7
370
    25
100
AcDbCircle
 10
43.2088624111
 20
-12.0269979408
 30
0.0
 40
1.750635215144058
100
AcDbArc
 50
43.2562785146
 51
107.9041999482
  0
ARC
  5
18C
330
1F
100
AcDbEntity
  8
0
  6
Continuous
 62
     7
370
    25
100
AcDbCircle
 10
-23.1658319921
 20
-27.6621782969
 30
0.0
 40
1.763360452498219
100
AcDbArc
 50
105.0301161465
 51
167.732698664
  0
ARC
  5
18D
330
1F
100
AcDbEntity
  8
0
  6
Continuous
 62
     7
370
    25
100
AcDbCircle
 10
34.5055652161
 20
-10.8126978385
 30
0.0
 40
1.758657277173776
100
AcDbArc
 50
43.4215015075
 51
107.7389769552
  0
ARC
  5
18E
330
1F
100
AcDbEntity
  8
0
  6
Continuous
 62
     7
370
    25
100
AcDbCircle
 10
40.2493711838
 20
-5.3946367478
 30
0.0
 40
2.460665470271346
100
AcDbArc
 50
35.6671764423
 51
108.3326449853
  0
ARC
  5
18F
330
1F
100
AcDbEntity
  8
0
  6
Continuous
 62
     7
370
    25
100
AcDbCircle
 10
40.1104697063
 20
-5.4628650395
 30
0.0
 40
2.486472761887642
100
AcDbArc
 50
104.797639562
 51
175.1420496554
  0
ARC
  5
190
330
1F
100
AcDbEntity
  8
0
  6
Continuous
 62
     7
370
    25
100
AcDbCircle
 10
2.8758872612
 20
-13.4594642482
 30
0.0
 40
1.755672304903872
100
AcDbArc
 50
104.8771340626
 51
167.8856807479
  0
ARC
  5
191
330
1F
100
AcDbEntity
  8
0
  6
Continuous
 62
     7
370
    25
100
AcDbCircle
 10
2.9633149107
 20
-13.4284997285
 30
0.0
 40
1.750635215138963
100
AcDbArc
 50
43.2562785145
 51
107.9041999483
  0
ARC
  5
192
330
1F
100
AcDbEntity
  8
0
  6
Continuous
 62
     7
370
    25
100
AcDbCircle
 10
31.7283241702
 20
-5.0816246015
 30
0.0
 40
1.817454736683975
100
AcDbArc
 50
44.0439718454
 51
167.2420380199
  0
ARC
  5
193
330
1F
100
AcDbEntity
  8
0
  6
Continuous
 62
     7
370
    25
100
AcDbCircle
 10
-31.9287745371
 20
-22.691983787
 30
0.0
 40
1.763360452498067
100
AcDbArc
 50
105.0301161465
 51
167.732698664
  0
ARC
  5
194
330
1F
100
AcDbEntity
  8
0
  6
Continuous
 62
     7
370
    25
100
AcDbCircle
 10
-12.6526134154
 20
-17.0568273984
 30
0.0
 40
1.758657277173817
100
AcDbArc
 50
43.4215015075
 51
107.7389769552
  0
ARC
  5
195
330
1F
100
AcDbEntity
  8
0
  6
Continuous
 62
     7
370
    25
100
AcDbCircle
 10
-47.4883311375
 20
-26.3539654132
 30
0.0
 40
2.066378969463321
100
AcDbArc
 50
40.8860404739
 51
170.3999693914
  0
ARC
  5
196
330
1F
100
AcDbEntity
  8
0
  6
Continuous
 62
     7
370
    25
100
AcDbCircle
 10
54.1886407383
 20
3.4005477218
 30
0.0
 40
1.991013321047151
100
AcDbArc
 50
104.6858734745
 51
171.0993088035
  0
ARC
  5
197
330
1F
100
AcDbEntity
  8
0
  6
Continuous
 62
     7
370
    25
100
AcDbCircle
 10
54.2968582546
 20
3.4246762678
 30
0.0
 40
1.998182561829344
100
AcDbArc
 50
40.2802689421
 51
107.8645523157
  0
ARC
  5
198
330
1F
100
AcDbEntity
  8
0
  6
Continuous
 62
     7
370
    25
100
AcDbCircle
 10
-22.0849666899
 20
-13.1519016069
 30
0.0
 40
1.817454736683968
100
AcDbArc
 50
44.0439718454
 51
167.2420380199
  0
ARC
  5
199
330
1F
100
AcDbEntity
  8
0
  6
Continuous
 62
     7
370
    25
100
AcDbCircle
 10
-6.9748582798
 20
-8.6893401936
 30
0.0
 40
1.755672304903876
100
AcDbArc
 50
104.8771340626
 51
167.8856807479
  0
ARC
  5
19A
330
1F
100
AcDbEntity
  8
0
  6
Continuous
 62
     7
370
    25
100
AcDbCircle
 10
-6.8874306302
 20
-8.6583756738
 30
0.0
 40
1.750635215138526
100
AcDbArc
 50
43.2562785145
 51
107.9041999483
  0
ARC
  5
19B
330
1F
100
AcDbEntity
  8
0
  6
Continuous
 62
     7
370
    25
100
AcDbCircle
 10
-16.1951380081
 20
-5.2047701088
 30
0.0
 40
4.577151387240499
100
AcDbArc
 50
29.530795417
 51
181.7552144483
  0
ARC
  5
19C
330
1F
100
AcDbEntity
  8
0
  6
Continuous
 62
     7
370
    25
100
AcDbCircle
 10
-25.653716929
 20
-1.2034179755
 30
0.0
 40
1.755672304903871
100
AcDbArc
 50
104.8771340626
 51
167.8856807479
  0
ARC
  5
19D
330
1F
100
AcDbEntity
  8
0
  6
Continuous
 62
     7
370
    25
100
AcDbCircle
 10
-25.5662892794
 20
-1.1724534558
 30
0.0
 40
1.750635215135588
100
AcDbArc
 50
43.2562785144
 51
107.9041999484
  0
ARC
  5
19E
330
1F
100
AcDbEntity
  8
0
  6
Continuous
 62
     7
370
    25
100
AcDbCircle
 10
-10.4315888307
 20
3.1933366264
 30
0.0
 40
1.817454736683968
100
AcDbArc
 50
44.0439718454
 51
167.2420380199
  0
ARC
  5
19F
330
1F
100
AcDbEntity
  8
0
  6
Continuous
 62
     7
370
    25
100
AcDbCircle
 10
-34.109577529
 20
-4.5743068597
 30
0.0
 40
3.02112145300552
100
AcDbArc
 50
21.0011888354
 51
185.9573537169
  0
ARC
  5
1A0
330
1F
100
AcDbEntity
  8
0
  6
Continuous
 62
     7
370
    25
100
AcDbCircle
 10
-3.5355401848
 20
6.3731113179
 30
0.0
 40
1.927672232199396
100
AcDbArc
 50
103.7751225168
 51
185.5825696499
  0
ARC
  5
1A1
330
1F
100
AcDbEntity
  8
0
  6
Continuous
 62
     7
370
    25
100
AcDbCircle
 10
32.1451748661
 20
16.8066402877
 30
0.0
 40
1.916425923407053
100
AcDbArc
 50
19.492820568
 51
109.0061936785
  0
ARC
  5
1A2
330
1F
100
AcDbEntity
  8
0
  6
Continuous
 62
     7
370
    25
100
AcDbCircle
 10
-54.201007638
 20
-3.7861320913
 30
0.0
 40
1.991013321047176
100
AcDbArc
 50
104.6858734745
 51
171.0993088035
  0
ARC
  5
1A3
330
1F
100
AcDbEntity
  8
0
  6
Continuous
 62
     7
370
    25
100
AcDbCircle
 10
-54.0927901218
 20
-3.7620035453
 30
0.0
 40
1.998182561829308
100
AcDbArc
 50
40.2802689421
 51
107.8645523157
  0
ARC
  5
1A4
330
1F
100
AcDbEntity
  8
0
  6
Continuous
 62
     7
370
    25
100
AcDbCircle
 10
47.616771745
 20
25.8952723443
 30
0.0
 40
2.066378969463388
100
AcDbArc
 50
40.8860404739
 51
170.3999693914
  0
ARC
  5
1A5
330
1F
100
AcDbEntity
  8
0
  6
Continuous
 62
     7
370
    25
100
AcDbCircle
 10
-39.0913658402
 20
1.5814035078
 30
0.0
 40
1.75231493060427
100
AcDbArc
 50
104.8098272964
 51
167.952987514
  0
ARC
  5
1A6
330
1F
100
AcDbEntity
  8
0
  6
Continuous
 62
     7
370
    25
100
AcDbCircle
 10
-19.809009543
 20
7.1952619387
 30
0.0
 40
1.769478688946762
100
AcDbArc
 50
43.6415413367
 51
107.5189371261
  0
ARC
  5
1A7
330
1F
100
AcDbEntity
  8
0
  6
Continuous
 62
     7
370
    25
100
AcDbCircle
 10
-4.7322637566
 20
12.5052619294
 30
0.0
 40
1.817454736683974
100
AcDbArc
 50
44.0439718454
 51
167.2420380199
  0
ARC
  5
1A8
330
1F
100
AcDbEntity
  8
0
  6
Continuous
 62
     7
370
    25
100
AcDbCircle
 10
24.0081534643
 20
20.9489083875
 30
0.0
 40
1.755672304903867
100
AcDbArc
 50
104.8771340626
 51
167.8856807479
  0
ARC
  5
1A9
330
1F
100
AcDbEntity
  8
0
  6
Continuous
 62
     7
370
    25
100
AcDbCircle
 10
24.0955811138
 20
20.9798729073
 30
0.0
 40
1.750635215137479
100
AcDbArc
 50
43.2562785145
 51
107.9041999483
  0
ARC
  5
1AA
330
1F
100
AcDbEntity
  8
0
  6
Continuous
 62
     7
370
    25
100
AcDbCircle
 10
30.992233975
 20
25.703494367
 30
0.0
 40
2.56766744887976
100
AcDbArc
 50
36.6798656213
 51
174.606144244
  0
ARC
  5
1AB
330
1F
100
AcDbEntity
  8
0
  6
Continuous
 62
     7
370
    25
100
AcDbCircle
 10
-34.4159757549
 20
10.4766114422
 30
0.0
 40
1.752314930604326
100
AcDbArc
 50
104.8098272964
 51
167.952987514
  0
ARC
  5
1AC
330
1F
100
AcDbEntity
  8
0
  6
Continuous
 62
     7
370
    25
100
AcDbCircle
 10
23.2616166289
 20
27.3047939431
 30
0.0
 40
1.769478688946686
100
AcDbArc
 50
43.6415413367
 51
107.5189371261
  0
ARC
  5
1AD
330
1F
100
AcDbEntity
  8
0
  6
Continuous
 62
     7
370
    25
100
AcDbCircle
 10
-43.1140592967
 20
11.6973797509
 30
0.0
 40
1.755672304903864
100
AcDbArc
 50
104.8771340626
 51
167.8856807479
  0
ARC
  5
1AE
330
1F
100
AcDbEntity
  8
0
  6
Continuous
 62
     7
370
    25
100
AcDbCircle
 10
-43.0266316472
 20
11.7283442707
 30
0.0
 40
1.750635215138777
100
AcDbArc
 50
43.2562785145
 51
107.9041999483
  0
ARC
  5
1AF
330
1F
100
AcDbEntity
  8
0
  6
Continuous
 62
     7
370
    25
100
AcDbCircle
 10
29.8928991118
 20
32.9716920781
 30
0.0
 40
1.817454736683941
100
AcDbArc
 50
44.0439718453
 51
167.2420380199
  0
MTEXT
  5
1B1
330
1F
100
AcDbEntity
  8
0
  6
Continuous
 62
     7
100
AcDbMText
 10
-62.5409213968
 20
-42.1436490456
 30
0.0
 40
4.83362
 41
0.0
 71
     1
 72
     1
  1
SOLIDWORKS Educational Product.
  7
SLDTEXTSTYLE0
 73
     1
 44
1.0
  0
MTEXT
  5
1B2
330
1F
100
AcDbEntity
  8
0
  6
Continuous
 62
     7
100
AcDbMText
 10
-62.5409213968
 20
-49.3940790456
 30
0.0
 40
4.83362
 41
0.0
 71
     1
 72
     1
  1
For Instructional Use Only.
  7
SLDTEXTSTYLE0
 73
     1
 44
1.0
  0
ENDSEC
  0
SECTION
  2
OBJECTS
  0
DICTIONARY
  5
C
330
0
100
AcDbDictionary
281
     1
  3
ACAD_GROUP
350
D
  3
ACAD_LAYOUT
350
1A
  3
ACAD_MLINESTYLE
350
17
  3
ACAD_PLOTSETTINGS
350
19
  3
ACAD_PLOTSTYLENAME
350
E
  3
ACAD_SCALELIST
350
47
  0
DICTIONARY
  5
D
102
{ACAD_REACTORS
330
C
102
}
330
C
100
AcDbDictionary
281
     1
  0
DICTIONARY
  5
1A
102
{ACAD_REACTORS
330
C
102
}
330
C
100
AcDbDictionary
281
     1
  3
Layout1
350
1E
  3
Layout2
350
26
  3
Model
350
22
  0
DICTIONARY
  5
17
102
{ACAD_REACTORS
330
C
102
}
330
C
100
AcDbDictionary
281
     1
  3
Standard
350
18
  0
DICTIONARY
  5
19
102
{ACAD_REACTORS
330
C
102
}
330
C
100
AcDbDictionary
281
     1
  0
ACDBDICTIONARYWDFLT
  5
E
102
{ACAD_REACTORS
330
C
102
}
330
C
100
AcDbDictionary
281
     1
  3
Normal
350
F
100
AcDbDictionaryWithDefault
340
F
  0
DICTIONARY
  5
47
102
{ACAD_REACTORS
330
C
102
}
330
C
100
AcDbDictionary
281
     1
  3
A0
350
48
  3
A1
350
49
  3
A2
350
4A
  3
A3
350
4B
  3
A4
350
4C
  3
A5
350
4D
  3
A6
350
4E
  3
A7
350
4F
  3
A8
350
50
  3
A9
350
51
  3
B0
350
52
  3
B1
350
53
  3
B2
350
54
  3
B3
350
55
  3
B4
350
56
  3
B5
350
57
  3
B6
350
58
  3
B7
350
59
  3
B8
350
5A
  3
B9
350
5B
  3
C0
350
5C
  3
C1
350
5D
  3
C2
350
5E
  3
C3
350
5F
  3
C4
350
60
  3
C5
350
61
  3
C6
350
62
  3
C7
350
63
  3
C8
350
64
  3
C9
350
65
  3
D0
350
66
  3
D1
350
67
  3
D2
350
68
  0
LAYOUT
  5
1E
102
{ACAD_REACTORS
330
1A
102
}
330
1A
100
AcDbPlotSettings
  1

  2
none_device
  4

  6

 40
0.0
 41
0.0
 42
0.0
 43
0.0
 44
0.0
 45
0.0
 46
0.0
 47
0.0
 48
0.0
 49
0.0
140
0.0
141
0.0
142
1.0
143
1.0
 70
   688
 72
     1
 73
     0
 74
     5
  7

 75
    16
147
1.0
148
0.0
149
0.0
100
AcDbLayout
  1
Layout1
 70
     1
 71
     1
 10
0.0
 20
0.0
 11
420.0
 21
297.0
 12
0.0
 22
0.0
 32
0.0
 14
1.0000000000E+20
 24
1.0000000000E+20
 34
1.0000000000E+20
 15
-1.0000000000E+20
 25
-1.0000000000E+20
 35
-1.0000000000E+20
146
0.0
 13
0.0
 23
0.0
 33
0.0
 16
1.0
 26
0.0
 36
0.0
 17
0.0
 27
1.0
 37
0.0
 76
     0
330
1B
  0
LAYOUT
  5
26
102
{ACAD_REACTORS
330
1A
102
}
330
1A
100
AcDbPlotSettings
  1

  2
none_device
  4

  6

 40
0.0
 41
0.0
 42
0.0
 43
0.0
 44
0.0
 45
0.0
 46
0.0
 47
0.0
 48
0.0
 49
0.0
140
0.0
141
0.0
142
1.0
143
1.0
 70
   688
 72
     1
 73
     0
 74
     5
  7

 75
    16
147
1.0
148
0.0
149
0.0
100
AcDbLayout
  1
Layout2
 70
     1
 71
     2
 10
0.0
 20
0.0
 11
0.0
 21
0.0
 12
0.0
 22
0.0
 32
0.0
 14
0.0
 24
0.0
 34
0.0
 15
0.0
 25
0.0
 35
0.0
146
0.0
 13
0.0
 23
0.0
 33
0.0
 16
1.0
 26
0.0
 36
0.0
 17
0.0
 27
1.0
 37
0.0
 76
     0
330
23
  0
LAYOUT
  5
22
102
{ACAD_REACTORS
330
1A
102
}
330
1A
100
AcDbPlotSettings
  1

  2
none_device
  4
ANSI_A_(11.00_x_8.50_Inches)
  6

 40
6.35
 41
19.05
 42
6.35000508
 43
19.05000254
 44
279.4
 45
215.9
 46
133.7426003114
 47
87.5404744465
 48
0.0
 49
0.0
140
0.0
141
0.0
142
0.0873101432
143
1.0
 70
  1696
 72
     0
 73
     0
 74
     0
  7

 75
     0
147
0.0179189148
148
-1300.4909072572
149
0.0
100
AcDbLayout
  1
Model
 70
     1
 71
     0
 10
0.0
 20
0.0
 11
420.0
 21
297.0
 12
0.0
 22
0.0
 32
0.0
 14
-62.5409213968
 24
-41.1240826539
 34
0.0
 15
62.1868547419
 25
42.3501619183
 35
0.0
146
0.0
 13
0.0
 23
0.0
 33
0.0
 16
1.0
 26
0.0
 36
0.0
 17
0.0
 27
1.0
 37
0.0
 76
     0
330
1F
331
29
  0
MLINESTYLE
  5
18
102
{ACAD_REACTORS
330
17
102
}
330
17
100
AcDbMlineStyle
  2
Standard
 70
     0
  3

 62
   256
 51
90.0
 52
90.0
 71
     2
 49
0.5
 62
   256
  6
BYLAYER
 49
-0.5
 62
   256
  6
BYLAYER
  0
ACDBPLACEHOLDER
  5
F
102
{ACAD_REACTORS
330
E
102
}
330
E
  0
SCALE
  5
48
102
{ACAD_REACTORS
330
47
102
}
330
47
100
AcDbScale
 70
     0
300
1:1
140
1.0
141
1.0
290
     1
  0
SCALE
  5
49
102
{ACAD_REACTORS
330
47
102
}
330
47
100
AcDbScale
 70
     0
300
1:2
140
1.0
141
2.0
290
     0
  0
SCALE
  5
4A
102
{ACAD_REACTORS
330
47
102
}
330
47
100
AcDbScale
 70
     0
300
1:4
140
1.0
141
4.0
290
     0
  0
SCALE
  5
4B
102
{ACAD_REACTORS
330
47
102
}
330
47
100
AcDbScale
 70
     0
300
1:5
140
1.0
141
5.0
290
     0
  0
SCALE
  5
4C
102
{ACAD_REACTORS
330
47
102
}
330
47
100
AcDbScale
 70
     0
300
1:8
140
1.0
141
8.0
290
     0
  0
SCALE
  5
4D
102
{ACAD_REACTORS
330
47
102
}
330
47
100
AcDbScale
 70
     0
300
1:10
140
1.0
141
10.0
290
     0
  0
SCALE
  5
4E
102
{ACAD_REACTORS
330
47
102
}
330
47
100
AcDbScale
 70
     0
300
1:16
140
1.0
141
16.0
290
     0
  0
SCALE
  5
4F
102
{ACAD_REACTORS
330
47
102
}
330
47
100
AcDbScale
 70
     0
300
1:20
140
1.0
141
20.0
290
     0
  0
SCALE
  5
50
102
{ACAD_REACTORS
330
47
102
}
330
47
100
AcDbScale
 70
     0
300
1:30
140
1.0
141
30.0
290
     0
  0
SCALE
  5
51
102
{ACAD_REACTORS
330
47
102
}
330
47
100
AcDbScale
 70
     0
300
1:40
140
1.0
141
40.0
290
     0
  0
SCALE
  5
52
102
{ACAD_REACTORS
330
47
102
}
330
47
100
AcDbScale
 70
     0
300
1:50
140
1.0
141
50.0
290
     0
  0
SCALE
  5
53
102
{ACAD_REACTORS
330
47
102
}
330
47
100
AcDbScale
 70
     0
300
1:100
140
1.0
141
100.0
290
     0
  0
SCALE
  5
54
102
{ACAD_REACTORS
330
47
102
}
330
47
100
AcDbScale
 70
     0
300
2:1
140
2.0
141
1.0
290
     0
  0
SCALE
  5
55
102
{ACAD_REACTORS
330
47
102
}
330
47
100
AcDbScale
 70
     0
300
4:1
140
4.0
141
1.0
290
     0
  0
SCALE
  5
56
102
{ACAD_REACTORS
330
47
102
}
330
47
100
AcDbScale
 70
     0
300
8:1
140
8.0
141
1.0
290
     0
  0
SCALE
  5
57
102
{ACAD_REACTORS
330
47
102
}
330
47
100
AcDbScale
 70
     0
300
10:1
140
10.0
141
1.0
290
     0
  0
SCALE
  5
58
102
{ACAD_REACTORS
330
47
102
}
330
47
100
AcDbScale
 70
     0
300
100:1
140
100.0
141
1.0
290
     0
  0
SCALE
  5
59
102
{ACAD_REACTORS
330
47
102
}
330
47
100
AcDbScale
 70
     0
300
1/128" = 1'-0"
140
0.0078125
141
12.0
290
     0
  0
SCALE
  5
5A
102
{ACAD_REACTORS
330
47
102
}
330
47
100
AcDbScale
 70
     0
300
1/64" = 1'-0"
140
0.015625
141
12.0
290
     0
  0
SCALE
  5
5B
102
{ACAD_REACTORS
330
47
102
}
330
47
100
AcDbScale
 70
     0
300
1/32" = 1'-0"
140
0.03125
141
12.0
290
     0
  0
SCALE
  5
5C
102
{ACAD_REACTORS
330
47
102
}
330
47
100
AcDbScale
 70
     0
300
1/16" = 1'-0"
140
0.0625
141
12.0
290
     0
  0
SCALE
  5
5D
102
{ACAD_REACTORS
330
47
102
}
330
47
100
AcDbScale
 70
     0
300
3/32" = 1'-0"
140
0.09375
141
12.0
290
     0
  0
SCALE
  5
5E
102
{ACAD_REACTORS
330
47
102
}
330
47
100
AcDbScale
 70
     0
300
1/8" = 1'-0"
140
0.125
141
12.0
290
     0
  0
SCALE
  5
5F
102
{ACAD_REACTORS
330
47
102
}
330
47
100
AcDbScale
 70
     0
300
3/16" = 1'-0"
140
0.1875
141
12.0
290
     0
  0
SCALE
  5
60
102
{ACAD_REACTORS
330
47
102
}
330
47
100
AcDbScale
 70
     0
300
1/4" = 1'-0"
140
0.25
141
12.0
290
     0
  0
SCALE
  5
61
102
{ACAD_REACTORS
330
47
102
}
330
47
100
AcDbScale
 70
     0
300
3/8" = 1'-0"
140
0.375
141
12.0
290
     0
  0
SCALE
  5
62
102
{ACAD_REACTORS
330
47
102
}
330
47
100
AcDbScale
 70
     0
300
1/2" = 1'-0"
140
0.5
141
12.0
290
     0
  0
SCALE
  5
63
102
{ACAD_REACTORS
330
47
102
}
330
47
100
AcDbScale
 70
     0
300
3/4" = 1'-0"
140
0.75
141
12.0
290
     0
  0
SCALE
  5
64
102
{ACAD_REACTORS
330
47
102
}
330
47
100
AcDbScale
 70
     0
300
1" = 1'-0"
140
1.0
141
12.0
290
     0
  0
SCALE
  5
65
102
{ACAD_REACTORS
330
47
102
}
330
47
100
AcDbScale
 70
     0
300
1-1/2" = 1'-0"
140
1.5
141
12.0
290
     0
  0
SCALE
  5
66
102
{ACAD_REACTORS
330
47
102
}
330
47
100
AcDbScale
 70
     0
300
3" = 1'-0"
140
3.0
141
12.0
290
     0
  0
SCALE
  5
67
102
{ACAD_REACTORS
330
47
102
}
330
47
100
AcDbScale
 70
     0
300
6" = 1'-0"
140
6.0
141
12.0
290
     0
  0
SCALE
  5
68
102
{ACAD_REACTORS
330
47
102
}
330
47
100
AcDbScale
 70
     0
300
1'-0" = 1'-0"
140
12.0
141
12.0
290
     0
  0
ENDSEC
  0
EOF
