<?xml version="1.0" encoding="UTF-8" standalone="no"?>
<svg
   xmlns:dc="http://purl.org/dc/elements/1.1/"
   xmlns:cc="http://creativecommons.org/ns#"
   xmlns:rdf="http://www.w3.org/1999/02/22-rdf-syntax-ns#"
   xmlns:svg="http://www.w3.org/2000/svg"
   xmlns="http://www.w3.org/2000/svg"
   xmlns:sodipodi="http://sodipodi.sourceforge.net/DTD/sodipodi-0.dtd"
   xmlns:inkscape="http://www.inkscape.org/namespaces/inkscape"
   width="744.094488189"
   height="1052.36220472"
   id="svg2"
   version="1.1"
   inkscape:version="0.91 r13725"
   sodipodi:docname="tx2_adapter.svg">
  <metadata
     id="metadata65">
    <rdf:RDF>
      <cc:Work
         rdf:about="">
        <dc:format>image/svg+xml</dc:format>
        <dc:type
           rdf:resource="http://purl.org/dc/dcmitype/StillImage" />
        <dc:title></dc:title>
      </cc:Work>
    </rdf:RDF>
  </metadata>
  <sodipodi:namedview
     pagecolor="#ffffff"
     bordercolor="#666666"
     borderopacity="1"
     objecttolerance="10"
     gridtolerance="10"
     guidetolerance="10"
     inkscape:pageopacity="0"
     inkscape:pageshadow="2"
     inkscape:window-width="1855"
     inkscape:window-height="1056"
     id="namedview63"
     showgrid="false"
     inkscape:zoom="1.7940591"
     inkscape:cx="387.49919"
     inkscape:cy="64.326252"
     inkscape:window-x="65"
     inkscape:window-y="24"
     inkscape:window-maximized="1"
     inkscape:current-layer="g21" />
  <desc
     id="desc4">/home/kunal/ros/src/msl_quad/Hardware/CAD/tx2_adapter.DXF - scale = 1.000000, origin = (0.000000, 0.000000), auto = False</desc>
  <defs
     id="defs6">
    <marker
       id="DistanceX"
       orient="auto"
       refX="0.0"
       refY="0.0"
       style="overflow:visible">
      <path
         d="M 3,-3 L -3,3 M 0,-5 L  0,5"
         style="stroke:#000000; stroke-width:0.5"
         id="path9" />
    </marker>
    <pattern
       height="8"
       id="Hatch"
       patternUnits="userSpaceOnUse"
       width="8"
       x="0"
       y="0">
      <path
         d="M8 4 l-4,4"
         linecap="square"
         stroke="#000000"
         stroke-width="0.25"
         id="path12" />
      <path
         d="M6 2 l-4,4"
         linecap="square"
         stroke="#000000"
         stroke-width="0.25"
         id="path14" />
      <path
         d="M4 0 l-4,4"
         linecap="square"
         stroke="#000000"
         stroke-width="0.25"
         id="path16" />
    </pattern>
    <symbol
       id="*Model_Space" />
    <symbol
       id="*Paper_Space" />
    <symbol
       id="*Paper_Space0" />
    <marker
       style="overflow:visible"
       refY="0.0"
       refX="0.0"
       orient="auto"
       id="DistanceX-3">
      <path
         id="path8141"
         style="stroke:#000000; stroke-width:0.5"
         d="M 3,-3 L -3,3 M 0,-5 L  0,5" />
    </marker>
    <pattern
       y="0"
       x="0"
       width="8"
       patternUnits="userSpaceOnUse"
       id="Hatch-6"
       height="8">
      <path
         id="path8144"
         stroke-width="0.25"
         stroke="#000000"
         linecap="square"
         d="M8 4 l-4,4" />
      <path
         id="path8146"
         stroke-width="0.25"
         stroke="#000000"
         linecap="square"
         d="M6 2 l-4,4" />
      <path
         id="path8148"
         stroke-width="0.25"
         stroke="#000000"
         linecap="square"
         d="M4 0 l-4,4" />
    </pattern>
    <symbol
       id="*Model_Space-7" />
    <symbol
       id="*Paper_Space-5" />
    <symbol
       id="*Paper_Space0-3" />
  </defs>
  <g
     inkscape:groupmode="layer"
     inkscape:label="0"
     id="g21">
    <path
       inkscape:connector-curvature="0"
       d="m 423.00968,815.0036 a 6.023622,6.023622 0 1 0 -12.04724,0 6.023622,6.023622 0 1 0 12.04724,0 z"
       style="fill:none;stroke:#ff0000;stroke-width:0.03543307;stroke-linecap:round;stroke-opacity:1;stroke-miterlimit:4;stroke-dasharray:none"
       id="path8155" />
    <path
       inkscape:connector-curvature="0"
       d="m 423.00968,963.8225 a 6.023622,6.023622 0 1 0 -12.04724,0 6.023622,6.023622 0 1 0 12.04724,0 z"
       style="fill:none;stroke:#ff0000;stroke-width:0.03543307;stroke-linecap:round;stroke-opacity:1;stroke-miterlimit:4;stroke-dasharray:none"
       id="path8157" />
    <path
       inkscape:connector-curvature="0"
       d="m 182.33763,1019.874 a 5.226378,5.226378 0 1 0 -10.45275,0 5.226378,5.226378 0 1 0 10.45275,0 z"
       style="fill:none;stroke:#ff0000;stroke-width:0.03543307;stroke-linecap:round;stroke-opacity:1;stroke-miterlimit:4;stroke-dasharray:none"
       id="path8159" />
    <path
       inkscape:connector-curvature="0"
       d="m 382.16598,758.952 a 5.22638,5.22638 0 1 0 -10.45276,0 5.22638,5.22638 0 0 0 10.45276,0 z"
       style="fill:none;stroke:#ff0000;stroke-width:0.03543307;stroke-linecap:round;stroke-opacity:1;stroke-miterlimit:4;stroke-dasharray:none"
       id="path8161" />
    <path
       inkscape:connector-curvature="0"
       d="M 431.15929,758.3107 A 10.629921,10.629921 0 0 0 420.52937,747.6808"
       style="fill:none;stroke:#ff0000;stroke-width:0.03543307;stroke-linecap:round;stroke-opacity:1;stroke-miterlimit:4;stroke-dasharray:none"
       id="path8163" />
    <path
       inkscape:connector-curvature="0"
       d="m 133.52149,747.6808 287.00788,0"
       style="fill:none;stroke:#ff0000;stroke-width:0.03543307;stroke-linecap:round;stroke-opacity:1;stroke-miterlimit:4;stroke-dasharray:none"
       id="path8165" />
    <path
       inkscape:connector-curvature="0"
       d="m 133.52149,747.6808 a 10.629921,10.629921 0 0 0 -10.62992,10.6299"
       style="fill:none;stroke:#ff0000;stroke-width:0.03543307;stroke-linecap:round;stroke-opacity:1;stroke-miterlimit:4;stroke-dasharray:none"
       id="path8167" />
    <path
       inkscape:connector-curvature="0"
       d="m 122.89157,1020.5154 0,-262.2047"
       style="fill:none;stroke:#ff0000;stroke-width:0.03543307;stroke-linecap:round;stroke-opacity:1;stroke-miterlimit:4;stroke-dasharray:none"
       id="path8169" />
    <path
       inkscape:connector-curvature="0"
       d="m 122.89157,1020.5154 a 10.629921,10.629921 0 0 0 10.62992,10.6299"
       style="fill:none;stroke:#ff0000;stroke-width:0.03543307;stroke-linecap:round;stroke-opacity:1;stroke-miterlimit:4;stroke-dasharray:none"
       id="path8171" />
    <path
       inkscape:connector-curvature="0"
       d="m 420.52937,1031.1453 -287.00788,0"
       style="fill:none;stroke:#ff0000;stroke-width:0.03543307;stroke-linecap:round;stroke-opacity:1;stroke-miterlimit:4;stroke-dasharray:none"
       id="path8173" />
    <path
       inkscape:connector-curvature="0"
       d="m 420.52937,1031.1453 a 10.629921,10.629921 0 0 0 10.62992,-10.6299"
       style="fill:none;stroke:#ff0000;stroke-width:0.03543307;stroke-linecap:round;stroke-opacity:1;stroke-miterlimit:4;stroke-dasharray:none"
       id="path8175" />
    <path
       inkscape:connector-curvature="0"
       d="m 431.15929,758.3107 0,262.2047"
       style="fill:none;stroke:#ff0000;stroke-width:0.03543307;stroke-linecap:round;stroke-opacity:1;stroke-miterlimit:4;stroke-dasharray:none"
       id="path8177" />
    <path
       inkscape:connector-curvature="0"
       d="m 382.16598,1019.874 a 5.22638,5.22638 0 1 0 -10.45276,0 5.22638,5.22638 0 0 0 10.45276,0 z"
       style="fill:none;stroke:#ff0000;stroke-width:0.03543307;stroke-linecap:round;stroke-opacity:1;stroke-miterlimit:4;stroke-dasharray:none"
       id="path8179" />
    <path
       inkscape:connector-curvature="0"
       d="m 182.33763,758.952 a 5.226378,5.226378 0 1 0 -10.45275,0 5.226378,5.226378 0 1 0 10.45275,0 z"
       style="fill:none;stroke:#ff0000;stroke-width:0.03543307;stroke-linecap:round;stroke-opacity:1;stroke-miterlimit:4;stroke-dasharray:none"
       id="path8181" />
    <path
       inkscape:connector-curvature="0"
       d="m 143.08842,963.8225 a 6.023622,6.023622 0 1 0 -12.04724,0 6.023622,6.023622 0 1 0 12.04724,0 z"
       style="fill:none;stroke:#ff0000;stroke-width:0.03543307;stroke-linecap:round;stroke-opacity:1;stroke-miterlimit:4;stroke-dasharray:none"
       id="path8183" />
    <path
       inkscape:connector-curvature="0"
       d="m 143.08842,815.0036 a 6.023622,6.023622 0 1 0 -12.04724,0 6.023622,6.023622 0 1 0 12.04724,0 z"
       style="fill:none;stroke:#ff0000;stroke-width:0.03543307;stroke-linecap:round;stroke-opacity:1;stroke-miterlimit:4;stroke-dasharray:none"
       id="path8185" />
  </g>
</svg>
