  0
SECTION
  2
HEADER
  9
$ACADVER
  1
AC1014
  9
$HANDSEED
  5
FFFF
  9
$MEASUREMENT
 70
     1
  0
ENDSEC
  0
SECTION
  2
TABLES
  0
TABLE
  2
VPORT
  5
8
330
0
100
AcDbSymbolTable
 70
     4
  0
VPORT
  5
2E
330
8
100
AcDbSymbolTableRecord
100
AcDbViewportTableRecord
  2
*ACTIVE
 70
     0
 10
0.0
 20
0.0
 11
1.0
 21
1.0
 12
210.0
 22
148.5
 13
0.0
 23
0.0
 14
10.0
 24
10.0
 15
10.0
 25
10.0
 16
0.0
 26
0.0
 36
1.0
 17
0.0
 27
0.0
 37
0.0
 40
341.0
 41
1.24
 42
50.0
 43
0.0
 44
0.0
 50
0.0
 51
0.0
 71
     0
 72
   100
 73
     1
 74
     3
 75
     0
 76
     0
 77
     0
 78
     0
  0
ENDTAB
  0
TABLE
  2
LTYPE
  5
5
330
0
100
AcDbSymbolTable
 70
     1
  0
LTYPE
  5
14
330
5
100
AcDbSymbolTableRecord
100
AcDbLinetypeTableRecord
  2
BYBLOCK
 70
     0
  3

 72
    65
 73
     0
 40
0.0
  0
LTYPE
  5
15
330
5
100
AcDbSymbolTableRecord
100
AcDbLinetypeTableRecord
  2
BYLAYER
 70
     0
  3

 72
    65
 73
     0
 40
0.0
  0
LTYPE
  5
16
330
5
100
AcDbSymbolTableRecord
100
AcDbLinetypeTableRecord
  2
CONTINUOUS
 70
     0
  3
Solid line
 72
    65
 73
     0
 40
0.0
  0
ENDTAB
  0
TABLE
  2
LAYER
  5
2
100
AcDbSymbolTable
 70
1
  0
LAYER
  5
50
100
AcDbSymbolTableRecord
100
AcDbLayerTableRecord
  2
0
 70
0
  6
CONTINUOUS
  0
ENDTAB
  0
TABLE
  2
STYLE
  5
3
330
0
100
AcDbSymbolTable
 70
     1
  0
STYLE
  5
11
330
3
100
AcDbSymbolTableRecord
100
AcDbTextStyleTableRecord
  2
STANDARD
 70
     0
 40
0.0
 41
1.0
 50
0.0
 71
     0
 42
2.5
  3
txt
  4

  0
ENDTAB
  0
TABLE
  2
VIEW
  5
6
330
0
100
AcDbSymbolTable
 70
     0
  0
ENDTAB
  0
TABLE
  2
UCS
  5
7
330
0
100
AcDbSymbolTable
 70
     0
  0
ENDTAB
  0
TABLE
  2
APPID
  5
9
330
0
100
AcDbSymbolTable
 70
     2
  0
APPID
  5
12
330
9
100
AcDbSymbolTableRecord
100
AcDbRegAppTableRecord
  2
ACAD
 70
     0
  0
ENDTAB
  0
TABLE
  2
DIMSTYLE
  5
A
330
0
100
AcDbSymbolTable
 70
     1
  0
DIMSTYLE
105
27
330
A
100
AcDbSymbolTableRecord
100
AcDbDimStyleTableRecord
  2
ISO-25
 70
     0
  3

  4

  5

  6

  7

 40
1.0
 41
2.5
 42
0.625
 43
3.75
 44
1.25
 45
0.0
 46
0.0
 47
0.0
 48
0.0
140
2.5
141
2.5
142
0.0
143
0.03937007874016
144
1.0
145
0.0
146
1.0
147
0.625
 71
     0
 72
     0
 73
     0
 74
     0
 75
     0
 76
     0
 77
     1
 78
     8
170
     0
171
     3
172
     1
173
     0
174
     0
175
     0
176
     0
177
     0
178
     0
270
     2
271
     2
272
     2
273
     2
274
     3
340
11
275
     0
280
     0
281
     0
282
     0
283
     0
284
     8
285
     0
286
     0
287
     3
288
     0
  0
ENDTAB
  0
TABLE
  2
BLOCK_RECORD
  5
1
330
0
100
AcDbSymbolTable
 70
     1
  0
BLOCK_RECORD
  5
1F
330
1
100
AcDbSymbolTableRecord
100
AcDbBlockTableRecord
  2
*MODEL_SPACE
  0
BLOCK_RECORD
  5
1B
330
1
100
AcDbSymbolTableRecord
100
AcDbBlockTableRecord
  2
*PAPER_SPACE
  0
ENDTAB
  0
ENDSEC
  0
SECTION
  2
BLOCKS
  0
BLOCK
  5
20
330
1F
100
AcDbEntity
  8
0
100
AcDbBlockBegin
  2
*MODEL_SPACE
 70
     0
 10
0.0
 20
0.0
 30
0.0
  3
*MODEL_SPACE
  1

  0
ENDBLK
  5
21
330
1F
100
AcDbEntity
  8
0
100
AcDbBlockEnd
  0
BLOCK
  5
1C
330
1B
100
AcDbEntity
 67
     1
  8
0
100
AcDbBlockBegin
  2
*PAPER_SPACE
  1

  0
ENDBLK
  5
1D
330
1B
100
AcDbEntity
 67
     1
  8
0
100
AcDbBlockEnd
  0
ENDSEC
  0
SECTION
  2
ENTITIES
  0
SPLINE
  5
100
100
AcDbEntity
  8
0
 62
1
100
AcDbSpline
 70
8
 71
3
 72
8
 73
4
 74
0
 40
0
 40
0
 40
0
 40
0
 40
1
 40
1
 40
1
 40
1
 10
136.402540
 20
91.306143
 30
0.0
 10
136.402540
 20
92.199307
 30
0.0
 10
135.926043
 20
93.024625
 30
0.0
 10
135.152540
 20
93.471207
 30
0.0
  0
SPLINE
  5
101
100
AcDbEntity
  8
0
 62
1
100
AcDbSpline
 70
8
 71
3
 72
8
 73
4
 74
0
 40
0
 40
0
 40
0
 40
0
 40
1
 40
1
 40
1
 40
1
 10
135.152540
 20
93.471207
 30
0.0
 10
134.379038
 20
93.917789
 30
0.0
 10
133.426043
 20
93.917789
 30
0.0
 10
132.652540
 20
93.471207
 30
0.0
  0
SPLINE
  5
102
100
AcDbEntity
  8
0
 62
1
100
AcDbSpline
 70
8
 71
3
 72
8
 73
4
 74
0
 40
0
 40
0
 40
0
 40
0
 40
1
 40
1
 40
1
 40
1
 10
132.652540
 20
93.471207
 30
0.0
 10
131.879038
 20
93.024625
 30
0.0
 10
131.402540
 20
92.199307
 30
0.0
 10
131.402541
 20
91.306143
 30
0.0
  0
SPLINE
  5
103
100
AcDbEntity
  8
0
 62
1
100
AcDbSpline
 70
8
 71
3
 72
8
 73
4
 74
0
 40
0
 40
0
 40
0
 40
0
 40
1
 40
1
 40
1
 40
1
 10
131.402541
 20
91.306143
 30
0.0
 10
131.402541
 20
90.412979
 30
0.0
 10
131.879038
 20
89.587662
 30
0.0
 10
132.652541
 20
89.141080
 30
0.0
  0
SPLINE
  5
104
100
AcDbEntity
  8
0
 62
1
100
AcDbSpline
 70
8
 71
3
 72
8
 73
4
 74
0
 40
0
 40
0
 40
0
 40
0
 40
1
 40
1
 40
1
 40
1
 10
132.652541
 20
89.141080
 30
0.0
 10
133.426043
 20
88.694498
 30
0.0
 10
134.379038
 20
88.694498
 30
0.0
 10
135.152541
 20
89.141080
 30
0.0
  0
SPLINE
  5
105
100
AcDbEntity
  8
0
 62
1
100
AcDbSpline
 70
8
 71
3
 72
8
 73
4
 74
0
 40
0
 40
0
 40
0
 40
0
 40
1
 40
1
 40
1
 40
1
 10
135.152541
 20
89.141080
 30
0.0
 10
135.926043
 20
89.587662
 30
0.0
 10
136.402541
 20
90.412979
 30
0.0
 10
136.402541
 20
91.306143
 30
0.0
  0
SPLINE
  5
106
100
AcDbEntity
  8
0
 62
1
100
AcDbSpline
 70
8
 71
3
 72
8
 73
4
 74
0
 40
0
 40
0
 40
0
 40
0
 40
1
 40
1
 40
1
 40
1
 10
59.902542
 20
61.056142
 30
0.0
 10
59.277327
 20
61.056142
 30
0.0
 10
58.699605
 20
60.722594
 30
0.0
 10
58.386997
 20
60.181142
 30
0.0
  0
SPLINE
  5
107
100
AcDbEntity
  8
0
 62
1
100
AcDbSpline
 70
8
 71
3
 72
8
 73
4
 74
0
 40
0
 40
0
 40
0
 40
0
 40
1
 40
1
 40
1
 40
1
 10
58.386997
 20
60.181142
 30
0.0
 10
58.074390
 20
59.639691
 30
0.0
 10
58.074390
 20
58.972594
 30
0.0
 10
58.386997
 20
58.431142
 30
0.0
  0
SPLINE
  5
108
100
AcDbEntity
  8
0
 62
1
100
AcDbSpline
 70
8
 71
3
 72
8
 73
4
 74
0
 40
0
 40
0
 40
0
 40
0
 40
1
 40
1
 40
1
 40
1
 10
58.386997
 20
58.431142
 30
0.0
 10
58.699605
 20
57.889691
 30
0.0
 10
59.277327
 20
57.556143
 30
0.0
 10
59.902542
 20
57.556143
 30
0.0
  0
LWPOLYLINE
  5
109
100
AcDbEntity
  8
0
 62
1
100
AcDbPolyline
 90
4
 70
1
 10
136.402541
 20
91.306143
 30
0.0
 10
136.402541
 20
91.306143
 30
0.0
 10
136.402541
 20
91.306143
 30
0.0
 10
136.402541
 20
91.306143
 30
0.0
  0
SPLINE
  5
10a
100
AcDbEntity
  8
0
 62
1
100
AcDbSpline
 70
8
 71
3
 72
8
 73
4
 74
0
 40
0
 40
0
 40
0
 40
0
 40
1
 40
1
 40
1
 40
1
 10
79.902541
 20
57.556143
 30
0.0
 10
80.527756
 20
57.556143
 30
0.0
 10
81.105478
 20
57.889691
 30
0.0
 10
81.418085
 20
58.431142
 30
0.0
  0
SPLINE
  5
10b
100
AcDbEntity
  8
0
 62
1
100
AcDbSpline
 70
8
 71
3
 72
8
 73
4
 74
0
 40
0
 40
0
 40
0
 40
0
 40
1
 40
1
 40
1
 40
1
 10
81.418085
 20
58.431142
 30
0.0
 10
81.730693
 20
58.972594
 30
0.0
 10
81.730693
 20
59.639691
 30
0.0
 10
81.418085
 20
60.181142
 30
0.0
  0
SPLINE
  5
10c
100
AcDbEntity
  8
0
 62
1
100
AcDbSpline
 70
8
 71
3
 72
8
 73
4
 74
0
 40
0
 40
0
 40
0
 40
0
 40
1
 40
1
 40
1
 40
1
 10
81.418085
 20
60.181142
 30
0.0
 10
81.105478
 20
60.722594
 30
0.0
 10
80.527756
 20
61.056142
 30
0.0
 10
79.902541
 20
61.056142
 30
0.0
  0
SPLINE
  5
10d
100
AcDbEntity
  8
0
 62
1
100
AcDbSpline
 70
8
 71
3
 72
8
 73
4
 74
0
 40
0
 40
0
 40
0
 40
0
 40
1
 40
1
 40
1
 40
1
 10
95.402541
 20
83.306142
 30
0.0
 10
94.872108
 20
83.306143
 30
0.0
 10
94.363400
 20
83.095430
 30
0.0
 10
93.988327
 20
82.720357
 30
0.0
  0
SPLINE
  5
10e
100
AcDbEntity
  8
0
 62
1
100
AcDbSpline
 70
8
 71
3
 72
8
 73
4
 74
0
 40
0
 40
0
 40
0
 40
0
 40
1
 40
1
 40
1
 40
1
 10
93.988327
 20
82.720357
 30
0.0
 10
93.613254
 20
82.345284
 30
0.0
 10
93.402540
 20
81.836577
 30
0.0
 10
93.402539
 20
81.306144
 30
0.0
  0
LWPOLYLINE
  5
10f
100
AcDbEntity
  8
0
 62
1
100
AcDbPolyline
 90
2
 70
0
 10
59.902542
 20
57.556142
 30
0.0
 10
79.902541
 20
57.556142
 30
0.0
  0
SPLINE
  5
110
100
AcDbEntity
  8
0
 62
1
100
AcDbSpline
 70
8
 71
3
 72
8
 73
4
 74
0
 40
0
 40
0
 40
0
 40
0
 40
1
 40
1
 40
1
 40
1
 10
134.402539
 20
81.306144
 30
0.0
 10
134.402539
 20
82.410712
 30
0.0
 10
133.507109
 20
83.306142
 30
0.0
 10
132.402540
 20
83.306142
 30
0.0
  0
LWPOLYLINE
  5
111
100
AcDbEntity
  8
0
 62
1
100
AcDbPolyline
 90
2
 70
0
 10
59.902542
 20
61.056143
 30
0.0
 10
79.902541
 20
61.056143
 30
0.0
  0
SPLINE
  5
112
100
AcDbEntity
  8
0
 62
1
100
AcDbSpline
 70
8
 71
3
 72
8
 73
4
 74
0
 40
0
 40
0
 40
0
 40
0
 40
1
 40
1
 40
1
 40
1
 10
132.402540
 20
63.306143
 30
0.0
 10
133.507109
 20
63.306144
 30
0.0
 10
134.402539
 20
64.201573
 30
0.0
 10
134.402539
 20
65.306142
 30
0.0
  0
LWPOLYLINE
  5
113
100
AcDbEntity
  8
0
 62
1
100
AcDbPolyline
 90
2
 70
0
 10
95.402541
 20
83.306142
 30
0.0
 10
132.402540
 20
83.306142
 30
0.0
  0
SPLINE
  5
114
100
AcDbEntity
  8
0
 62
1
100
AcDbSpline
 70
8
 71
3
 72
8
 73
4
 74
0
 40
0
 40
0
 40
0
 40
0
 40
1
 40
1
 40
1
 40
1
 10
93.402539
 20
65.306142
 30
0.0
 10
93.402540
 20
64.775709
 30
0.0
 10
93.613254
 20
64.267001
 30
0.0
 10
93.988327
 20
63.891928
 30
0.0
  0
SPLINE
  5
115
100
AcDbEntity
  8
0
 62
1
100
AcDbSpline
 70
8
 71
3
 72
8
 73
4
 74
0
 40
0
 40
0
 40
0
 40
0
 40
1
 40
1
 40
1
 40
1
 10
93.988327
 20
63.891928
 30
0.0
 10
94.363400
 20
63.516856
 30
0.0
 10
94.872108
 20
63.306142
 30
0.0
 10
95.402541
 20
63.306143
 30
0.0
  0
LWPOLYLINE
  5
116
100
AcDbEntity
  8
0
 62
1
100
AcDbPolyline
 90
2
 70
0
 10
134.402539
 20
81.306144
 30
0.0
 10
134.402539
 20
65.306142
 30
0.0
  0
LWPOLYLINE
  5
117
100
AcDbEntity
  8
0
 62
1
100
AcDbPolyline
 90
2
 70
0
 10
95.402541
 20
63.306143
 30
0.0
 10
132.402540
 20
63.306143
 30
0.0
  0
LWPOLYLINE
  5
118
100
AcDbEntity
  8
0
 62
1
100
AcDbPolyline
 90
2
 70
0
 10
93.402539
 20
81.306144
 30
0.0
 10
93.402539
 20
65.306142
 30
0.0
  0
LWPOLYLINE
  5
119
100
AcDbEntity
  8
0
 62
7
100
AcDbPolyline
 90
8
 70
0
 10
49.792334
 20
73.771222
 30
0.0
 10
48.254443
 20
72.977472
 30
0.0
 10
49.792334
 20
72.183722
 30
0.0
 10
49.792334
 20
71.639928
 30
0.0
 10
47.634962
 20
72.753594
 30
0.0
 10
47.634962
 20
73.201989
 30
0.0
 10
49.792334
 20
74.315654
 30
0.0
 10
49.792334
 20
73.771222
 30
0.0
  0
SPLINE
  5
11a
100
AcDbEntity
  8
0
 62
1
100
AcDbSpline
 70
8
 71
3
 72
8
 73
4
 74
0
 40
0
 40
0
 40
0
 40
0
 40
1
 40
1
 40
1
 40
1
 10
45.902541
 20
86.306142
 30
0.0
 10
45.902541
 20
87.020673
 30
0.0
 10
45.521343
 20
87.680927
 30
0.0
 10
44.902541
 20
88.038193
 30
0.0
  0
SPLINE
  5
11b
100
AcDbEntity
  8
0
 62
1
100
AcDbSpline
 70
8
 71
3
 72
8
 73
4
 74
0
 40
0
 40
0
 40
0
 40
0
 40
1
 40
1
 40
1
 40
1
 10
44.902541
 20
88.038193
 30
0.0
 10
44.283739
 20
88.395459
 30
0.0
 10
43.521343
 20
88.395459
 30
0.0
 10
42.902541
 20
88.038193
 30
0.0
  0
SPLINE
  5
11c
100
AcDbEntity
  8
0
 62
1
100
AcDbSpline
 70
8
 71
3
 72
8
 73
4
 74
0
 40
0
 40
0
 40
0
 40
0
 40
1
 40
1
 40
1
 40
1
 10
42.902541
 20
88.038193
 30
0.0
 10
42.283739
 20
87.680927
 30
0.0
 10
41.902541
 20
87.020673
 30
0.0
 10
41.902541
 20
86.306142
 30
0.0
  0
SPLINE
  5
11d
100
AcDbEntity
  8
0
 62
1
100
AcDbSpline
 70
8
 71
3
 72
8
 73
4
 74
0
 40
0
 40
0
 40
0
 40
0
 40
1
 40
1
 40
1
 40
1
 10
41.902541
 20
86.306142
 30
0.0
 10
41.902541
 20
85.591611
 30
0.0
 10
42.283739
 20
84.931357
 30
0.0
 10
42.902541
 20
84.574091
 30
0.0
  0
SPLINE
  5
11e
100
AcDbEntity
  8
0
 62
1
100
AcDbSpline
 70
8
 71
3
 72
8
 73
4
 74
0
 40
0
 40
0
 40
0
 40
0
 40
1
 40
1
 40
1
 40
1
 10
42.902541
 20
84.574091
 30
0.0
 10
43.521343
 20
84.216826
 30
0.0
 10
44.283739
 20
84.216826
 30
0.0
 10
44.902541
 20
84.574091
 30
0.0
  0
SPLINE
  5
11f
100
AcDbEntity
  8
0
 62
1
100
AcDbSpline
 70
8
 71
3
 72
8
 73
4
 74
0
 40
0
 40
0
 40
0
 40
0
 40
1
 40
1
 40
1
 40
1
 10
44.902541
 20
84.574091
 30
0.0
 10
45.521343
 20
84.931357
 30
0.0
 10
45.902541
 20
85.591611
 30
0.0
 10
45.902541
 20
86.306142
 30
0.0
  0
LWPOLYLINE
  5
120
100
AcDbEntity
  8
0
 62
7
100
AcDbPolyline
 90
8
 70
0
 10
52.438167
 20
73.771222
 30
0.0
 10
50.900276
 20
72.977472
 30
0.0
 10
52.438167
 20
72.183722
 30
0.0
 10
52.438167
 20
71.639928
 30
0.0
 10
50.280796
 20
72.753594
 30
0.0
 10
50.280796
 20
73.201989
 30
0.0
 10
52.438167
 20
74.315654
 30
0.0
 10
52.438167
 20
73.771222
 30
0.0
  0
SPLINE
  5
121
100
AcDbEntity
  8
0
 62
1
100
AcDbSpline
 70
8
 71
3
 72
8
 73
4
 74
0
 40
0
 40
0
 40
0
 40
0
 40
1
 40
1
 40
1
 40
1
 10
151.902541
 20
60.306143
 30
0.0
 10
151.902541
 20
61.020674
 30
0.0
 10
151.521343
 20
61.680929
 30
0.0
 10
150.902541
 20
62.038194
 30
0.0
  0
SPLINE
  5
122
100
AcDbEntity
  8
0
 62
1
100
AcDbSpline
 70
8
 71
3
 72
8
 73
4
 74
0
 40
0
 40
0
 40
0
 40
0
 40
1
 40
1
 40
1
 40
1
 10
150.902541
 20
62.038194
 30
0.0
 10
150.283739
 20
62.395460
 30
0.0
 10
149.521343
 20
62.395460
 30
0.0
 10
148.902541
 20
62.038194
 30
0.0
  0
SPLINE
  5
123
100
AcDbEntity
  8
0
 62
1
100
AcDbSpline
 70
8
 71
3
 72
8
 73
4
 74
0
 40
0
 40
0
 40
0
 40
0
 40
1
 40
1
 40
1
 40
1
 10
148.902541
 20
62.038194
 30
0.0
 10
148.283739
 20
61.680929
 30
0.0
 10
147.902541
 20
61.020674
 30
0.0
 10
147.902541
 20
60.306143
 30
0.0
  0
SPLINE
  5
124
100
AcDbEntity
  8
0
 62
1
100
AcDbSpline
 70
8
 71
3
 72
8
 73
4
 74
0
 40
0
 40
0
 40
0
 40
0
 40
1
 40
1
 40
1
 40
1
 10
147.902541
 20
60.306143
 30
0.0
 10
147.902541
 20
59.591612
 30
0.0
 10
148.283739
 20
58.931358
 30
0.0
 10
148.902541
 20
58.574092
 30
0.0
  0
SPLINE
  5
125
100
AcDbEntity
  8
0
 62
1
100
AcDbSpline
 70
8
 71
3
 72
8
 73
4
 74
0
 40
0
 40
0
 40
0
 40
0
 40
1
 40
1
 40
1
 40
1
 10
148.902541
 20
58.574092
 30
0.0
 10
149.521343
 20
58.216827
 30
0.0
 10
150.283739
 20
58.216827
 30
0.0
 10
150.902541
 20
58.574092
 30
0.0
  0
SPLINE
  5
126
100
AcDbEntity
  8
0
 62
1
100
AcDbSpline
 70
8
 71
3
 72
8
 73
4
 74
0
 40
0
 40
0
 40
0
 40
0
 40
1
 40
1
 40
1
 40
1
 10
150.902541
 20
58.574092
 30
0.0
 10
151.521343
 20
58.931358
 30
0.0
 10
151.902541
 20
59.591612
 30
0.0
 10
151.902541
 20
60.306143
 30
0.0
  0
LWPOLYLINE
  5
127
100
AcDbEntity
  8
0
 62
7
100
AcDbPolyline
 90
8
 70
0
 10
47.146501
 20
73.771222
 30
0.0
 10
45.608610
 20
72.977472
 30
0.0
 10
47.146501
 20
72.183722
 30
0.0
 10
47.146501
 20
71.639928
 30
0.0
 10
44.989129
 20
72.753594
 30
0.0
 10
44.989129
 20
73.201989
 30
0.0
 10
47.146501
 20
74.315654
 30
0.0
 10
47.146501
 20
73.771222
 30
0.0
  0
LWPOLYLINE
  5
128
100
AcDbEntity
  8
0
 62
1
100
AcDbPolyline
 90
4
 70
1
 10
45.902541
 20
86.306142
 30
0.0
 10
45.902541
 20
86.306142
 30
0.0
 10
45.902541
 20
86.306142
 30
0.0
 10
45.902541
 20
86.306142
 30
0.0
  0
SPLINE
  5
129
100
AcDbEntity
  8
0
 62
1
100
AcDbSpline
 70
8
 71
3
 72
8
 73
4
 74
0
 40
0
 40
0
 40
0
 40
0
 40
1
 40
1
 40
1
 40
1
 10
154.902541
 20
98.306143
 30
0.0
 10
154.902540
 20
99.632226
 30
0.0
 10
154.375756
 20
100.903995
 30
0.0
 10
153.438074
 20
101.841677
 30
0.0
  0
SPLINE
  5
12a
100
AcDbEntity
  8
0
 62
1
100
AcDbSpline
 70
8
 71
3
 72
8
 73
4
 74
0
 40
0
 40
0
 40
0
 40
0
 40
1
 40
1
 40
1
 40
1
 10
153.438074
 20
101.841677
 30
0.0
 10
152.500391
 20
102.779358
 30
0.0
 10
151.228622
 20
103.306142
 30
0.0
 10
149.902539
 20
103.306142
 30
0.0
  0
LWPOLYLINE
  5
12b
100
AcDbEntity
  8
0
 62
1
100
AcDbPolyline
 90
4
 70
1
 10
151.902541
 20
60.306143
 30
0.0
 10
151.902541
 20
60.306143
 30
0.0
 10
151.902541
 20
60.306143
 30
0.0
 10
151.902541
 20
60.306143
 30
0.0
  0
SPLINE
  5
12c
100
AcDbEntity
  8
0
 62
1
100
AcDbSpline
 70
8
 71
3
 72
8
 73
4
 74
0
 40
0
 40
0
 40
0
 40
0
 40
1
 40
1
 40
1
 40
1
 10
43.902540
 20
103.306142
 30
0.0
 10
41.141117
 20
103.306141
 30
0.0
 10
38.902542
 20
101.067566
 30
0.0
 10
38.902541
 20
98.306143
 30
0.0
  0
LWPOLYLINE
  5
12d
100
AcDbEntity
  8
0
 62
1
100
AcDbPolyline
 90
2
 70
0
 10
154.902541
 20
48.306142
 30
0.0
 10
154.902541
 20
98.306143
 30
0.0
  0
SPLINE
  5
12e
100
AcDbEntity
  8
0
 62
1
100
AcDbSpline
 70
8
 71
3
 72
8
 73
4
 74
0
 40
0
 40
0
 40
0
 40
0
 40
1
 40
1
 40
1
 40
1
 10
38.902541
 20
48.306142
 30
0.0
 10
38.902542
 20
45.544719
 30
0.0
 10
41.141117
 20
43.306144
 30
0.0
 10
43.902540
 20
43.306143
 30
0.0
  0
LWPOLYLINE
  5
12f
100
AcDbEntity
  8
0
 62
1
100
AcDbPolyline
 90
2
 70
0
 10
149.902539
 20
103.306142
 30
0.0
 10
43.902540
 20
103.306142
 30
0.0
  0
SPLINE
  5
130
100
AcDbEntity
  8
0
 62
1
100
AcDbSpline
 70
8
 71
3
 72
8
 73
4
 74
0
 40
0
 40
0
 40
0
 40
0
 40
1
 40
1
 40
1
 40
1
 10
149.902539
 20
43.306143
 30
0.0
 10
151.228622
 20
43.306143
 30
0.0
 10
152.500391
 20
43.832927
 30
0.0
 10
153.438074
 20
44.770608
 30
0.0
  0
SPLINE
  5
131
100
AcDbEntity
  8
0
 62
1
100
AcDbSpline
 70
8
 71
3
 72
8
 73
4
 74
0
 40
0
 40
0
 40
0
 40
0
 40
1
 40
1
 40
1
 40
1
 10
153.438074
 20
44.770608
 30
0.0
 10
154.375756
 20
45.708290
 30
0.0
 10
154.902540
 20
46.980059
 30
0.0
 10
154.902541
 20
48.306142
 30
0.0
  0
SPLINE
  5
132
100
AcDbEntity
  8
0
 62
1
100
AcDbSpline
 70
8
 71
3
 72
8
 73
4
 74
0
 40
0
 40
0
 40
0
 40
0
 40
1
 40
1
 40
1
 40
1
 10
151.902541
 20
86.306142
 30
0.0
 10
151.902541
 20
87.020673
 30
0.0
 10
151.521343
 20
87.680927
 30
0.0
 10
150.902541
 20
88.038193
 30
0.0
  0
SPLINE
  5
133
100
AcDbEntity
  8
0
 62
1
100
AcDbSpline
 70
8
 71
3
 72
8
 73
4
 74
0
 40
0
 40
0
 40
0
 40
0
 40
1
 40
1
 40
1
 40
1
 10
150.902541
 20
88.038193
 30
0.0
 10
150.283739
 20
88.395459
 30
0.0
 10
149.521343
 20
88.395459
 30
0.0
 10
148.902541
 20
88.038193
 30
0.0
  0
SPLINE
  5
134
100
AcDbEntity
  8
0
 62
1
100
AcDbSpline
 70
8
 71
3
 72
8
 73
4
 74
0
 40
0
 40
0
 40
0
 40
0
 40
1
 40
1
 40
1
 40
1
 10
148.902541
 20
88.038193
 30
0.0
 10
148.283739
 20
87.680927
 30
0.0
 10
147.902541
 20
87.020673
 30
0.0
 10
147.902541
 20
86.306142
 30
0.0
  0
SPLINE
  5
135
100
AcDbEntity
  8
0
 62
1
100
AcDbSpline
 70
8
 71
3
 72
8
 73
4
 74
0
 40
0
 40
0
 40
0
 40
0
 40
1
 40
1
 40
1
 40
1
 10
147.902541
 20
86.306142
 30
0.0
 10
147.902541
 20
85.591611
 30
0.0
 10
148.283739
 20
84.931357
 30
0.0
 10
148.902541
 20
84.574091
 30
0.0
  0
SPLINE
  5
136
100
AcDbEntity
  8
0
 62
1
100
AcDbSpline
 70
8
 71
3
 72
8
 73
4
 74
0
 40
0
 40
0
 40
0
 40
0
 40
1
 40
1
 40
1
 40
1
 10
148.902541
 20
84.574091
 30
0.0
 10
149.521343
 20
84.216826
 30
0.0
 10
150.283739
 20
84.216826
 30
0.0
 10
150.902541
 20
84.574091
 30
0.0
  0
SPLINE
  5
137
100
AcDbEntity
  8
0
 62
1
100
AcDbSpline
 70
8
 71
3
 72
8
 73
4
 74
0
 40
0
 40
0
 40
0
 40
0
 40
1
 40
1
 40
1
 40
1
 10
150.902541
 20
84.574091
 30
0.0
 10
151.521343
 20
84.931357
 30
0.0
 10
151.902541
 20
85.591611
 30
0.0
 10
151.902541
 20
86.306142
 30
0.0
  0
LWPOLYLINE
  5
138
100
AcDbEntity
  8
0
 62
1
100
AcDbPolyline
 90
2
 70
0
 10
38.902541
 20
98.306143
 30
0.0
 10
38.902541
 20
48.306142
 30
0.0
  0
SPLINE
  5
139
100
AcDbEntity
  8
0
 62
1
100
AcDbSpline
 70
8
 71
3
 72
8
 73
4
 74
0
 40
0
 40
0
 40
0
 40
0
 40
1
 40
1
 40
1
 40
1
 10
45.902541
 20
60.306143
 30
0.0
 10
45.902541
 20
61.020674
 30
0.0
 10
45.521343
 20
61.680929
 30
0.0
 10
44.902541
 20
62.038194
 30
0.0
  0
SPLINE
  5
13a
100
AcDbEntity
  8
0
 62
1
100
AcDbSpline
 70
8
 71
3
 72
8
 73
4
 74
0
 40
0
 40
0
 40
0
 40
0
 40
1
 40
1
 40
1
 40
1
 10
44.902541
 20
62.038194
 30
0.0
 10
44.283739
 20
62.395460
 30
0.0
 10
43.521343
 20
62.395460
 30
0.0
 10
42.902541
 20
62.038194
 30
0.0
  0
SPLINE
  5
13b
100
AcDbEntity
  8
0
 62
1
100
AcDbSpline
 70
8
 71
3
 72
8
 73
4
 74
0
 40
0
 40
0
 40
0
 40
0
 40
1
 40
1
 40
1
 40
1
 10
42.902541
 20
62.038194
 30
0.0
 10
42.283739
 20
61.680929
 30
0.0
 10
41.902541
 20
61.020674
 30
0.0
 10
41.902541
 20
60.306143
 30
0.0
  0
SPLINE
  5
13c
100
AcDbEntity
  8
0
 62
1
100
AcDbSpline
 70
8
 71
3
 72
8
 73
4
 74
0
 40
0
 40
0
 40
0
 40
0
 40
1
 40
1
 40
1
 40
1
 10
41.902541
 20
60.306143
 30
0.0
 10
41.902541
 20
59.591612
 30
0.0
 10
42.283739
 20
58.931358
 30
0.0
 10
42.902541
 20
58.574092
 30
0.0
  0
SPLINE
  5
13d
100
AcDbEntity
  8
0
 62
1
100
AcDbSpline
 70
8
 71
3
 72
8
 73
4
 74
0
 40
0
 40
0
 40
0
 40
0
 40
1
 40
1
 40
1
 40
1
 10
42.902541
 20
58.574092
 30
0.0
 10
43.521343
 20
58.216827
 30
0.0
 10
44.283739
 20
58.216827
 30
0.0
 10
44.902541
 20
58.574092
 30
0.0
  0
SPLINE
  5
13e
100
AcDbEntity
  8
0
 62
1
100
AcDbSpline
 70
8
 71
3
 72
8
 73
4
 74
0
 40
0
 40
0
 40
0
 40
0
 40
1
 40
1
 40
1
 40
1
 10
44.902541
 20
58.574092
 30
0.0
 10
45.521343
 20
58.931358
 30
0.0
 10
45.902541
 20
59.591612
 30
0.0
 10
45.902541
 20
60.306143
 30
0.0
  0
LWPOLYLINE
  5
13f
100
AcDbEntity
  8
0
 62
1
100
AcDbPolyline
 90
2
 70
0
 10
43.902540
 20
43.306143
 30
0.0
 10
149.902539
 20
43.306143
 30
0.0
  0
SPLINE
  5
140
100
AcDbEntity
  8
0
 62
1
100
AcDbSpline
 70
8
 71
3
 72
8
 73
4
 74
0
 40
0
 40
0
 40
0
 40
0
 40
1
 40
1
 40
1
 40
1
 10
136.652541
 20
99.306141
 30
0.0
 10
136.652541
 20
99.931356
 30
0.0
 10
136.318993
 20
100.509079
 30
0.0
 10
135.777541
 20
100.821686
 30
0.0
  0
SPLINE
  5
141
100
AcDbEntity
  8
0
 62
1
100
AcDbSpline
 70
8
 71
3
 72
8
 73
4
 74
0
 40
0
 40
0
 40
0
 40
0
 40
1
 40
1
 40
1
 40
1
 10
135.777541
 20
100.821686
 30
0.0
 10
135.236089
 20
101.134293
 30
0.0
 10
134.568993
 20
101.134293
 30
0.0
 10
134.027541
 20
100.821686
 30
0.0
  0
SPLINE
  5
142
100
AcDbEntity
  8
0
 62
1
100
AcDbSpline
 70
8
 71
3
 72
8
 73
4
 74
0
 40
0
 40
0
 40
0
 40
0
 40
1
 40
1
 40
1
 40
1
 10
134.027541
 20
100.821686
 30
0.0
 10
133.486089
 20
100.509079
 30
0.0
 10
133.152541
 20
99.931356
 30
0.0
 10
133.152541
 20
99.306141
 30
0.0
  0
SPLINE
  5
143
100
AcDbEntity
  8
0
 62
1
100
AcDbSpline
 70
8
 71
3
 72
8
 73
4
 74
0
 40
0
 40
0
 40
0
 40
0
 40
1
 40
1
 40
1
 40
1
 10
133.152541
 20
99.306141
 30
0.0
 10
133.152541
 20
98.680927
 30
0.0
 10
133.486090
 20
98.103204
 30
0.0
 10
134.027541
 20
97.790597
 30
0.0
  0
SPLINE
  5
144
100
AcDbEntity
  8
0
 62
1
100
AcDbSpline
 70
8
 71
3
 72
8
 73
4
 74
0
 40
0
 40
0
 40
0
 40
0
 40
1
 40
1
 40
1
 40
1
 10
134.027541
 20
97.790597
 30
0.0
 10
134.568993
 20
97.477990
 30
0.0
 10
135.236090
 20
97.477990
 30
0.0
 10
135.777541
 20
97.790597
 30
0.0
  0
SPLINE
  5
145
100
AcDbEntity
  8
0
 62
1
100
AcDbSpline
 70
8
 71
3
 72
8
 73
4
 74
0
 40
0
 40
0
 40
0
 40
0
 40
1
 40
1
 40
1
 40
1
 10
135.777541
 20
97.790597
 30
0.0
 10
136.318993
 20
98.103204
 30
0.0
 10
136.652542
 20
98.680927
 30
0.0
 10
136.652542
 20
99.306141
 30
0.0
  0
LWPOLYLINE
  5
146
100
AcDbEntity
  8
0
 62
1
100
AcDbPolyline
 90
4
 70
1
 10
151.902541
 20
86.306142
 30
0.0
 10
151.902541
 20
86.306142
 30
0.0
 10
151.902541
 20
86.306142
 30
0.0
 10
151.902541
 20
86.306142
 30
0.0
  0
SPLINE
  5
147
100
AcDbEntity
  8
0
 62
1
100
AcDbSpline
 70
8
 71
3
 72
8
 73
4
 74
0
 40
0
 40
0
 40
0
 40
0
 40
1
 40
1
 40
1
 40
1
 10
60.652541
 20
99.306141
 30
0.0
 10
60.652541
 20
99.931356
 30
0.0
 10
60.318993
 20
100.509079
 30
0.0
 10
59.777541
 20
100.821686
 30
0.0
  0
SPLINE
  5
148
100
AcDbEntity
  8
0
 62
1
100
AcDbSpline
 70
8
 71
3
 72
8
 73
4
 74
0
 40
0
 40
0
 40
0
 40
0
 40
1
 40
1
 40
1
 40
1
 10
59.777541
 20
100.821686
 30
0.0
 10
59.236089
 20
101.134293
 30
0.0
 10
58.568993
 20
101.134293
 30
0.0
 10
58.027541
 20
100.821686
 30
0.0
  0
SPLINE
  5
149
100
AcDbEntity
  8
0
 62
1
100
AcDbSpline
 70
8
 71
3
 72
8
 73
4
 74
0
 40
0
 40
0
 40
0
 40
0
 40
1
 40
1
 40
1
 40
1
 10
58.027541
 20
100.821686
 30
0.0
 10
57.486089
 20
100.509079
 30
0.0
 10
57.152541
 20
99.931356
 30
0.0
 10
57.152541
 20
99.306141
 30
0.0
  0
SPLINE
  5
14a
100
AcDbEntity
  8
0
 62
1
100
AcDbSpline
 70
8
 71
3
 72
8
 73
4
 74
0
 40
0
 40
0
 40
0
 40
0
 40
1
 40
1
 40
1
 40
1
 10
57.152541
 20
99.306141
 30
0.0
 10
57.152541
 20
98.680927
 30
0.0
 10
57.486089
 20
98.103204
 30
0.0
 10
58.027541
 20
97.790597
 30
0.0
  0
SPLINE
  5
14b
100
AcDbEntity
  8
0
 62
1
100
AcDbSpline
 70
8
 71
3
 72
8
 73
4
 74
0
 40
0
 40
0
 40
0
 40
0
 40
1
 40
1
 40
1
 40
1
 10
58.027541
 20
97.790597
 30
0.0
 10
58.568993
 20
97.477990
 30
0.0
 10
59.236089
 20
97.477990
 30
0.0
 10
59.777541
 20
97.790597
 30
0.0
  0
SPLINE
  5
14c
100
AcDbEntity
  8
0
 62
1
100
AcDbSpline
 70
8
 71
3
 72
8
 73
4
 74
0
 40
0
 40
0
 40
0
 40
0
 40
1
 40
1
 40
1
 40
1
 10
59.777541
 20
97.790597
 30
0.0
 10
60.318993
 20
98.103204
 30
0.0
 10
60.652541
 20
98.680927
 30
0.0
 10
60.652541
 20
99.306141
 30
0.0
  0
LWPOLYLINE
  5
14d
100
AcDbEntity
  8
0
 62
1
100
AcDbPolyline
 90
4
 70
1
 10
45.902541
 20
60.306143
 30
0.0
 10
45.902541
 20
60.306143
 30
0.0
 10
45.902541
 20
60.306143
 30
0.0
 10
45.902541
 20
60.306143
 30
0.0
  0
SPLINE
  5
14e
100
AcDbEntity
  8
0
 62
1
100
AcDbSpline
 70
8
 71
3
 72
8
 73
4
 74
0
 40
0
 40
0
 40
0
 40
0
 40
1
 40
1
 40
1
 40
1
 10
60.652541
 20
47.306144
 30
0.0
 10
60.652541
 20
47.931359
 30
0.0
 10
60.318993
 20
48.509081
 30
0.0
 10
59.777541
 20
48.821688
 30
0.0
  0
SPLINE
  5
14f
100
AcDbEntity
  8
0
 62
1
100
AcDbSpline
 70
8
 71
3
 72
8
 73
4
 74
0
 40
0
 40
0
 40
0
 40
0
 40
1
 40
1
 40
1
 40
1
 10
59.777541
 20
48.821688
 30
0.0
 10
59.236089
 20
49.134296
 30
0.0
 10
58.568993
 20
49.134296
 30
0.0
 10
58.027541
 20
48.821688
 30
0.0
  0
SPLINE
  5
150
100
AcDbEntity
  8
0
 62
1
100
AcDbSpline
 70
8
 71
3
 72
8
 73
4
 74
0
 40
0
 40
0
 40
0
 40
0
 40
1
 40
1
 40
1
 40
1
 10
58.027541
 20
48.821688
 30
0.0
 10
57.486089
 20
48.509081
 30
0.0
 10
57.152541
 20
47.931359
 30
0.0
 10
57.152541
 20
47.306144
 30
0.0
  0
SPLINE
  5
151
100
AcDbEntity
  8
0
 62
1
100
AcDbSpline
 70
8
 71
3
 72
8
 73
4
 74
0
 40
0
 40
0
 40
0
 40
0
 40
1
 40
1
 40
1
 40
1
 10
57.152541
 20
47.306144
 30
0.0
 10
57.152541
 20
46.680929
 30
0.0
 10
57.486089
 20
46.103207
 30
0.0
 10
58.027541
 20
45.790599
 30
0.0
  0
SPLINE
  5
152
100
AcDbEntity
  8
0
 62
1
100
AcDbSpline
 70
8
 71
3
 72
8
 73
4
 74
0
 40
0
 40
0
 40
0
 40
0
 40
1
 40
1
 40
1
 40
1
 10
58.027541
 20
45.790599
 30
0.0
 10
58.568993
 20
45.477992
 30
0.0
 10
59.236089
 20
45.477992
 30
0.0
 10
59.777541
 20
45.790599
 30
0.0
  0
SPLINE
  5
153
100
AcDbEntity
  8
0
 62
1
100
AcDbSpline
 70
8
 71
3
 72
8
 73
4
 74
0
 40
0
 40
0
 40
0
 40
0
 40
1
 40
1
 40
1
 40
1
 10
59.777541
 20
45.790599
 30
0.0
 10
60.318993
 20
46.103207
 30
0.0
 10
60.652541
 20
46.680929
 30
0.0
 10
60.652541
 20
47.306144
 30
0.0
  0
LWPOLYLINE
  5
154
100
AcDbEntity
  8
0
 62
1
100
AcDbPolyline
 90
4
 70
1
 10
136.652542
 20
99.306141
 30
0.0
 10
136.652542
 20
99.306141
 30
0.0
 10
136.652542
 20
99.306141
 30
0.0
 10
136.652542
 20
99.306141
 30
0.0
  0
SPLINE
  5
155
100
AcDbEntity
  8
0
 62
1
100
AcDbSpline
 70
8
 71
3
 72
8
 73
4
 74
0
 40
0
 40
0
 40
0
 40
0
 40
1
 40
1
 40
1
 40
1
 10
136.652541
 20
47.306144
 30
0.0
 10
136.652541
 20
47.931359
 30
0.0
 10
136.318993
 20
48.509081
 30
0.0
 10
135.777541
 20
48.821688
 30
0.0
  0
SPLINE
  5
156
100
AcDbEntity
  8
0
 62
1
100
AcDbSpline
 70
8
 71
3
 72
8
 73
4
 74
0
 40
0
 40
0
 40
0
 40
0
 40
1
 40
1
 40
1
 40
1
 10
135.777541
 20
48.821688
 30
0.0
 10
135.236089
 20
49.134296
 30
0.0
 10
134.568993
 20
49.134296
 30
0.0
 10
134.027541
 20
48.821688
 30
0.0
  0
SPLINE
  5
157
100
AcDbEntity
  8
0
 62
1
100
AcDbSpline
 70
8
 71
3
 72
8
 73
4
 74
0
 40
0
 40
0
 40
0
 40
0
 40
1
 40
1
 40
1
 40
1
 10
134.027541
 20
48.821688
 30
0.0
 10
133.486089
 20
48.509081
 30
0.0
 10
133.152541
 20
47.931359
 30
0.0
 10
133.152541
 20
47.306144
 30
0.0
  0
SPLINE
  5
158
100
AcDbEntity
  8
0
 62
1
100
AcDbSpline
 70
8
 71
3
 72
8
 73
4
 74
0
 40
0
 40
0
 40
0
 40
0
 40
1
 40
1
 40
1
 40
1
 10
133.152541
 20
47.306144
 30
0.0
 10
133.152541
 20
46.680929
 30
0.0
 10
133.486090
 20
46.103207
 30
0.0
 10
134.027541
 20
45.790599
 30
0.0
  0
SPLINE
  5
159
100
AcDbEntity
  8
0
 62
1
100
AcDbSpline
 70
8
 71
3
 72
8
 73
4
 74
0
 40
0
 40
0
 40
0
 40
0
 40
1
 40
1
 40
1
 40
1
 10
134.027541
 20
45.790599
 30
0.0
 10
134.568993
 20
45.477992
 30
0.0
 10
135.236090
 20
45.477992
 30
0.0
 10
135.777541
 20
45.790599
 30
0.0
  0
SPLINE
  5
15a
100
AcDbEntity
  8
0
 62
1
100
AcDbSpline
 70
8
 71
3
 72
8
 73
4
 74
0
 40
0
 40
0
 40
0
 40
0
 40
1
 40
1
 40
1
 40
1
 10
135.777541
 20
45.790599
 30
0.0
 10
136.318993
 20
46.103207
 30
0.0
 10
136.652542
 20
46.680929
 30
0.0
 10
136.652542
 20
47.306144
 30
0.0
  0
LWPOLYLINE
  5
15b
100
AcDbEntity
  8
0
 62
1
100
AcDbPolyline
 90
4
 70
1
 10
60.652541
 20
99.306141
 30
0.0
 10
60.652541
 20
99.306141
 30
0.0
 10
60.652541
 20
99.306141
 30
0.0
 10
60.652541
 20
99.306141
 30
0.0
  0
SPLINE
  5
15c
100
AcDbEntity
  8
0
 62
1
100
AcDbSpline
 70
8
 71
3
 72
8
 73
4
 74
0
 40
0
 40
0
 40
0
 40
0
 40
1
 40
1
 40
1
 40
1
 10
97.652540
 20
88.306144
 30
0.0
 10
97.652540
 20
88.931358
 30
0.0
 10
97.318992
 20
89.509081
 30
0.0
 10
96.777540
 20
89.821688
 30
0.0
  0
SPLINE
  5
15d
100
AcDbEntity
  8
0
 62
1
100
AcDbSpline
 70
8
 71
3
 72
8
 73
4
 74
0
 40
0
 40
0
 40
0
 40
0
 40
1
 40
1
 40
1
 40
1
 10
96.777540
 20
89.821688
 30
0.0
 10
96.236088
 20
90.134295
 30
0.0
 10
95.568992
 20
90.134295
 30
0.0
 10
95.027540
 20
89.821688
 30
0.0
  0
SPLINE
  5
15e
100
AcDbEntity
  8
0
 62
1
100
AcDbSpline
 70
8
 71
3
 72
8
 73
4
 74
0
 40
0
 40
0
 40
0
 40
0
 40
1
 40
1
 40
1
 40
1
 10
95.027540
 20
89.821688
 30
0.0
 10
94.486088
 20
89.509081
 30
0.0
 10
94.152540
 20
88.931358
 30
0.0
 10
94.152541
 20
88.306144
 30
0.0
  0
SPLINE
  5
15f
100
AcDbEntity
  8
0
 62
1
100
AcDbSpline
 70
8
 71
3
 72
8
 73
4
 74
0
 40
0
 40
0
 40
0
 40
0
 40
1
 40
1
 40
1
 40
1
 10
94.152541
 20
88.306144
 30
0.0
 10
94.152541
 20
87.680929
 30
0.0
 10
94.486089
 20
87.103207
 30
0.0
 10
95.027541
 20
86.790599
 30
0.0
  0
SPLINE
  5
160
100
AcDbEntity
  8
0
 62
1
100
AcDbSpline
 70
8
 71
3
 72
8
 73
4
 74
0
 40
0
 40
0
 40
0
 40
0
 40
1
 40
1
 40
1
 40
1
 10
95.027541
 20
86.790599
 30
0.0
 10
95.568992
 20
86.477992
 30
0.0
 10
96.236089
 20
86.477992
 30
0.0
 10
96.777540
 20
86.790599
 30
0.0
  0
SPLINE
  5
161
100
AcDbEntity
  8
0
 62
1
100
AcDbSpline
 70
8
 71
3
 72
8
 73
4
 74
0
 40
0
 40
0
 40
0
 40
0
 40
1
 40
1
 40
1
 40
1
 10
96.777540
 20
86.790599
 30
0.0
 10
97.318992
 20
87.103207
 30
0.0
 10
97.652540
 20
87.680929
 30
0.0
 10
97.652540
 20
88.306144
 30
0.0
  0
LWPOLYLINE
  5
162
100
AcDbEntity
  8
0
 62
1
100
AcDbPolyline
 90
4
 70
1
 10
60.652541
 20
47.306144
 30
0.0
 10
60.652541
 20
47.306144
 30
0.0
 10
60.652541
 20
47.306144
 30
0.0
 10
60.652541
 20
47.306144
 30
0.0
  0
SPLINE
  5
163
100
AcDbEntity
  8
0
 62
1
100
AcDbSpline
 70
8
 71
3
 72
8
 73
4
 74
0
 40
0
 40
0
 40
0
 40
0
 40
1
 40
1
 40
1
 40
1
 10
97.652540
 20
58.306142
 30
0.0
 10
97.652540
 20
58.931356
 30
0.0
 10
97.318992
 20
59.509079
 30
0.0
 10
96.777540
 20
59.821686
 30
0.0
  0
SPLINE
  5
164
100
AcDbEntity
  8
0
 62
1
100
AcDbSpline
 70
8
 71
3
 72
8
 73
4
 74
0
 40
0
 40
0
 40
0
 40
0
 40
1
 40
1
 40
1
 40
1
 10
96.777540
 20
59.821686
 30
0.0
 10
96.236088
 20
60.134293
 30
0.0
 10
95.568992
 20
60.134293
 30
0.0
 10
95.027540
 20
59.821686
 30
0.0
  0
SPLINE
  5
165
100
AcDbEntity
  8
0
 62
1
100
AcDbSpline
 70
8
 71
3
 72
8
 73
4
 74
0
 40
0
 40
0
 40
0
 40
0
 40
1
 40
1
 40
1
 40
1
 10
95.027540
 20
59.821686
 30
0.0
 10
94.486088
 20
59.509079
 30
0.0
 10
94.152540
 20
58.931356
 30
0.0
 10
94.152541
 20
58.306142
 30
0.0
  0
SPLINE
  5
166
100
AcDbEntity
  8
0
 62
1
100
AcDbSpline
 70
8
 71
3
 72
8
 73
4
 74
0
 40
0
 40
0
 40
0
 40
0
 40
1
 40
1
 40
1
 40
1
 10
94.152541
 20
58.306142
 30
0.0
 10
94.152541
 20
57.680927
 30
0.0
 10
94.486089
 20
57.103205
 30
0.0
 10
95.027541
 20
56.790597
 30
0.0
  0
SPLINE
  5
167
100
AcDbEntity
  8
0
 62
1
100
AcDbSpline
 70
8
 71
3
 72
8
 73
4
 74
0
 40
0
 40
0
 40
0
 40
0
 40
1
 40
1
 40
1
 40
1
 10
95.027541
 20
56.790597
 30
0.0
 10
95.568992
 20
56.477990
 30
0.0
 10
96.236089
 20
56.477990
 30
0.0
 10
96.777540
 20
56.790597
 30
0.0
  0
SPLINE
  5
168
100
AcDbEntity
  8
0
 62
1
100
AcDbSpline
 70
8
 71
3
 72
8
 73
4
 74
0
 40
0
 40
0
 40
0
 40
0
 40
1
 40
1
 40
1
 40
1
 10
96.777540
 20
56.790597
 30
0.0
 10
97.318992
 20
57.103205
 30
0.0
 10
97.652540
 20
57.680927
 30
0.0
 10
97.652540
 20
58.306142
 30
0.0
  0
LWPOLYLINE
  5
169
100
AcDbEntity
  8
0
 62
1
100
AcDbPolyline
 90
4
 70
1
 10
136.652542
 20
47.306144
 30
0.0
 10
136.652542
 20
47.306144
 30
0.0
 10
136.652542
 20
47.306144
 30
0.0
 10
136.652542
 20
47.306144
 30
0.0
  0
SPLINE
  5
16a
100
AcDbEntity
  8
0
 62
1
100
AcDbSpline
 70
8
 71
3
 72
8
 73
4
 74
0
 40
0
 40
0
 40
0
 40
0
 40
1
 40
1
 40
1
 40
1
 10
127.652540
 20
58.306142
 30
0.0
 10
127.653102
 20
58.931730
 30
0.0
 10
127.319677
 20
59.510039
 30
0.0
 10
126.777994
 20
59.822996
 30
0.0
  0
SPLINE
  5
16b
100
AcDbEntity
  8
0
 62
1
100
AcDbSpline
 70
8
 71
3
 72
8
 73
4
 74
0
 40
0
 40
0
 40
0
 40
0
 40
1
 40
1
 40
1
 40
1
 10
126.777994
 20
59.822996
 30
0.0
 10
126.236312
 20
60.135952
 30
0.0
 10
125.568770
 20
60.135952
 30
0.0
 10
125.027087
 20
59.822996
 30
0.0
  0
SPLINE
  5
16c
100
AcDbEntity
  8
0
 62
1
100
AcDbSpline
 70
8
 71
3
 72
8
 73
4
 74
0
 40
0
 40
0
 40
0
 40
0
 40
1
 40
1
 40
1
 40
1
 10
125.027087
 20
59.822996
 30
0.0
 10
124.485405
 20
59.510039
 30
0.0
 10
124.151980
 20
58.931730
 30
0.0
 10
124.152541
 20
58.306142
 30
0.0
  0
SPLINE
  5
16d
100
AcDbEntity
  8
0
 62
1
100
AcDbSpline
 70
8
 71
3
 72
8
 73
4
 74
0
 40
0
 40
0
 40
0
 40
0
 40
1
 40
1
 40
1
 40
1
 10
124.152541
 20
58.306142
 30
0.0
 10
124.153409
 20
57.340257
 30
0.0
 10
124.936656
 20
56.557713
 30
0.0
 10
125.902541
 20
56.557713
 30
0.0
  0
SPLINE
  5
16e
100
AcDbEntity
  8
0
 62
1
100
AcDbSpline
 70
8
 71
3
 72
8
 73
4
 74
0
 40
0
 40
0
 40
0
 40
0
 40
1
 40
1
 40
1
 40
1
 10
125.902541
 20
56.557713
 30
0.0
 10
126.868425
 20
56.557713
 30
0.0
 10
127.651673
 20
57.340257
 30
0.0
 10
127.652540
 20
58.306142
 30
0.0
  0
LWPOLYLINE
  5
16f
100
AcDbEntity
  8
0
 62
1
100
AcDbPolyline
 90
4
 70
1
 10
97.652540
 20
88.306144
 30
0.0
 10
97.652541
 20
88.306144
 30
0.0
 10
97.652540
 20
88.306144
 30
0.0
 10
97.652540
 20
88.306144
 30
0.0
  0
SPLINE
  5
170
100
AcDbEntity
  8
0
 62
1
100
AcDbSpline
 70
8
 71
3
 72
8
 73
4
 74
0
 40
0
 40
0
 40
0
 40
0
 40
1
 40
1
 40
1
 40
1
 10
127.652540
 20
88.306144
 30
0.0
 10
127.653102
 20
88.931733
 30
0.0
 10
127.319677
 20
89.510041
 30
0.0
 10
126.777994
 20
89.822998
 30
0.0
  0
SPLINE
  5
171
100
AcDbEntity
  8
0
 62
1
100
AcDbSpline
 70
8
 71
3
 72
8
 73
4
 74
0
 40
0
 40
0
 40
0
 40
0
 40
1
 40
1
 40
1
 40
1
 10
126.777994
 20
89.822998
 30
0.0
 10
126.236312
 20
90.135954
 30
0.0
 10
125.568770
 20
90.135954
 30
0.0
 10
125.027087
 20
89.822998
 30
0.0
  0
SPLINE
  5
172
100
AcDbEntity
  8
0
 62
1
100
AcDbSpline
 70
8
 71
3
 72
8
 73
4
 74
0
 40
0
 40
0
 40
0
 40
0
 40
1
 40
1
 40
1
 40
1
 10
125.027087
 20
89.822998
 30
0.0
 10
124.485405
 20
89.510041
 30
0.0
 10
124.151980
 20
88.931733
 30
0.0
 10
124.152541
 20
88.306144
 30
0.0
  0
SPLINE
  5
173
100
AcDbEntity
  8
0
 62
1
100
AcDbSpline
 70
8
 71
3
 72
8
 73
4
 74
0
 40
0
 40
0
 40
0
 40
0
 40
1
 40
1
 40
1
 40
1
 10
124.152541
 20
88.306144
 30
0.0
 10
124.153409
 20
87.340259
 30
0.0
 10
124.936656
 20
86.557715
 30
0.0
 10
125.902541
 20
86.557715
 30
0.0
  0
SPLINE
  5
174
100
AcDbEntity
  8
0
 62
1
100
AcDbSpline
 70
8
 71
3
 72
8
 73
4
 74
0
 40
0
 40
0
 40
0
 40
0
 40
1
 40
1
 40
1
 40
1
 10
125.902541
 20
86.557715
 30
0.0
 10
126.868425
 20
86.557715
 30
0.0
 10
127.651673
 20
87.340259
 30
0.0
 10
127.652540
 20
88.306144
 30
0.0
  0
LWPOLYLINE
  5
175
100
AcDbEntity
  8
0
 62
1
100
AcDbPolyline
 90
4
 70
1
 10
97.652540
 20
58.306142
 30
0.0
 10
97.652541
 20
58.306142
 30
0.0
 10
97.652540
 20
58.306142
 30
0.0
 10
97.652540
 20
58.306142
 30
0.0
  0
SPLINE
  5
176
100
AcDbEntity
  8
0
 62
1
100
AcDbSpline
 70
8
 71
3
 72
8
 73
4
 74
0
 40
0
 40
0
 40
0
 40
0
 40
1
 40
1
 40
1
 40
1
 10
89.552540
 20
80.181144
 30
0.0
 10
89.553102
 20
80.806733
 30
0.0
 10
89.219677
 20
81.385041
 30
0.0
 10
88.677994
 20
81.697998
 30
0.0
  0
SPLINE
  5
177
100
AcDbEntity
  8
0
 62
1
100
AcDbSpline
 70
8
 71
3
 72
8
 73
4
 74
0
 40
0
 40
0
 40
0
 40
0
 40
1
 40
1
 40
1
 40
1
 10
88.677994
 20
81.697998
 30
0.0
 10
88.136312
 20
82.010954
 30
0.0
 10
87.468770
 20
82.010954
 30
0.0
 10
86.927087
 20
81.697998
 30
0.0
  0
SPLINE
  5
178
100
AcDbEntity
  8
0
 62
1
100
AcDbSpline
 70
8
 71
3
 72
8
 73
4
 74
0
 40
0
 40
0
 40
0
 40
0
 40
1
 40
1
 40
1
 40
1
 10
86.927087
 20
81.697998
 30
0.0
 10
86.385405
 20
81.385041
 30
0.0
 10
86.051980
 20
80.806733
 30
0.0
 10
86.052541
 20
80.181144
 30
0.0
  0
SPLINE
  5
179
100
AcDbEntity
  8
0
 62
1
100
AcDbSpline
 70
8
 71
3
 72
8
 73
4
 74
0
 40
0
 40
0
 40
0
 40
0
 40
1
 40
1
 40
1
 40
1
 10
86.052541
 20
80.181144
 30
0.0
 10
86.053409
 20
79.215259
 30
0.0
 10
86.836656
 20
78.432715
 30
0.0
 10
87.802541
 20
78.432715
 30
0.0
  0
SPLINE
  5
17a
100
AcDbEntity
  8
0
 62
1
100
AcDbSpline
 70
8
 71
3
 72
8
 73
4
 74
0
 40
0
 40
0
 40
0
 40
0
 40
1
 40
1
 40
1
 40
1
 10
87.802541
 20
78.432715
 30
0.0
 10
88.768425
 20
78.432715
 30
0.0
 10
89.551673
 20
79.215259
 30
0.0
 10
89.552540
 20
80.181144
 30
0.0
  0
LWPOLYLINE
  5
17b
100
AcDbEntity
  8
0
 62
1
100
AcDbPolyline
 90
4
 70
1
 10
127.652540
 20
58.306142
 30
0.0
 10
127.652540
 20
58.306142
 30
0.0
 10
127.652540
 20
58.306142
 30
0.0
 10
127.652540
 20
58.306142
 30
0.0
  0
SPLINE
  5
17c
100
AcDbEntity
  8
0
 62
1
100
AcDbSpline
 70
8
 71
3
 72
8
 73
4
 74
0
 40
0
 40
0
 40
0
 40
0
 40
1
 40
1
 40
1
 40
1
 10
89.552540
 20
66.431142
 30
0.0
 10
89.553102
 20
67.056730
 30
0.0
 10
89.219677
 20
67.635039
 30
0.0
 10
88.677994
 20
67.947996
 30
0.0
  0
SPLINE
  5
17d
100
AcDbEntity
  8
0
 62
1
100
AcDbSpline
 70
8
 71
3
 72
8
 73
4
 74
0
 40
0
 40
0
 40
0
 40
0
 40
1
 40
1
 40
1
 40
1
 10
88.677994
 20
67.947996
 30
0.0
 10
88.136312
 20
68.260952
 30
0.0
 10
87.468770
 20
68.260952
 30
0.0
 10
86.927087
 20
67.947996
 30
0.0
  0
SPLINE
  5
17e
100
AcDbEntity
  8
0
 62
1
100
AcDbSpline
 70
8
 71
3
 72
8
 73
4
 74
0
 40
0
 40
0
 40
0
 40
0
 40
1
 40
1
 40
1
 40
1
 10
86.927087
 20
67.947996
 30
0.0
 10
86.385405
 20
67.635039
 30
0.0
 10
86.051980
 20
67.056730
 30
0.0
 10
86.052541
 20
66.431142
 30
0.0
  0
SPLINE
  5
17f
100
AcDbEntity
  8
0
 62
1
100
AcDbSpline
 70
8
 71
3
 72
8
 73
4
 74
0
 40
0
 40
0
 40
0
 40
0
 40
1
 40
1
 40
1
 40
1
 10
86.052541
 20
66.431142
 30
0.0
 10
86.053409
 20
65.465257
 30
0.0
 10
86.836656
 20
64.682713
 30
0.0
 10
87.802541
 20
64.682713
 30
0.0
  0
SPLINE
  5
180
100
AcDbEntity
  8
0
 62
1
100
AcDbSpline
 70
8
 71
3
 72
8
 73
4
 74
0
 40
0
 40
0
 40
0
 40
0
 40
1
 40
1
 40
1
 40
1
 10
87.802541
 20
64.682713
 30
0.0
 10
88.768425
 20
64.682713
 30
0.0
 10
89.551673
 20
65.465257
 30
0.0
 10
89.552540
 20
66.431142
 30
0.0
  0
LWPOLYLINE
  5
181
100
AcDbEntity
  8
0
 62
1
100
AcDbPolyline
 90
4
 70
1
 10
127.652540
 20
88.306144
 30
0.0
 10
127.652540
 20
88.306144
 30
0.0
 10
127.652540
 20
88.306144
 30
0.0
 10
127.652540
 20
88.306144
 30
0.0
  0
SPLINE
  5
182
100
AcDbEntity
  8
0
 62
1
100
AcDbSpline
 70
8
 71
3
 72
8
 73
4
 74
0
 40
0
 40
0
 40
0
 40
0
 40
1
 40
1
 40
1
 40
1
 10
73.752540
 20
66.431142
 30
0.0
 10
73.752540
 20
67.056356
 30
0.0
 10
73.418992
 20
67.634079
 30
0.0
 10
72.877540
 20
67.946686
 30
0.0
  0
SPLINE
  5
183
100
AcDbEntity
  8
0
 62
1
100
AcDbSpline
 70
8
 71
3
 72
8
 73
4
 74
0
 40
0
 40
0
 40
0
 40
0
 40
1
 40
1
 40
1
 40
1
 10
72.877540
 20
67.946686
 30
0.0
 10
72.336088
 20
68.259293
 30
0.0
 10
71.668992
 20
68.259293
 30
0.0
 10
71.127540
 20
67.946686
 30
0.0
  0
SPLINE
  5
184
100
AcDbEntity
  8
0
 62
1
100
AcDbSpline
 70
8
 71
3
 72
8
 73
4
 74
0
 40
0
 40
0
 40
0
 40
0
 40
1
 40
1
 40
1
 40
1
 10
71.127540
 20
67.946686
 30
0.0
 10
70.586088
 20
67.634079
 30
0.0
 10
70.252540
 20
67.056356
 30
0.0
 10
70.252540
 20
66.431142
 30
0.0
  0
SPLINE
  5
185
100
AcDbEntity
  8
0
 62
1
100
AcDbSpline
 70
8
 71
3
 72
8
 73
4
 74
0
 40
0
 40
0
 40
0
 40
0
 40
1
 40
1
 40
1
 40
1
 10
70.252540
 20
66.431142
 30
0.0
 10
70.252540
 20
65.805927
 30
0.0
 10
70.586088
 20
65.228204
 30
0.0
 10
71.127540
 20
64.915597
 30
0.0
  0
SPLINE
  5
186
100
AcDbEntity
  8
0
 62
1
100
AcDbSpline
 70
8
 71
3
 72
8
 73
4
 74
0
 40
0
 40
0
 40
0
 40
0
 40
1
 40
1
 40
1
 40
1
 10
71.127540
 20
64.915597
 30
0.0
 10
71.668992
 20
64.602990
 30
0.0
 10
72.336088
 20
64.602990
 30
0.0
 10
72.877540
 20
64.915597
 30
0.0
  0
SPLINE
  5
187
100
AcDbEntity
  8
0
 62
1
100
AcDbSpline
 70
8
 71
3
 72
8
 73
4
 74
0
 40
0
 40
0
 40
0
 40
0
 40
1
 40
1
 40
1
 40
1
 10
72.877540
 20
64.915597
 30
0.0
 10
73.418992
 20
65.228204
 30
0.0
 10
73.752540
 20
65.805927
 30
0.0
 10
73.752540
 20
66.431142
 30
0.0
  0
LWPOLYLINE
  5
188
100
AcDbEntity
  8
0
 62
1
100
AcDbPolyline
 90
4
 70
1
 10
89.552540
 20
80.181144
 30
0.0
 10
89.552540
 20
80.181144
 30
0.0
 10
89.552540
 20
80.181144
 30
0.0
 10
89.552540
 20
80.181144
 30
0.0
  0
SPLINE
  5
189
100
AcDbEntity
  8
0
 62
1
100
AcDbSpline
 70
8
 71
3
 72
8
 73
4
 74
0
 40
0
 40
0
 40
0
 40
0
 40
1
 40
1
 40
1
 40
1
 10
73.752540
 20
80.181144
 30
0.0
 10
73.752540
 20
80.806359
 30
0.0
 10
73.418992
 20
81.384081
 30
0.0
 10
72.877540
 20
81.696688
 30
0.0
  0
SPLINE
  5
18a
100
AcDbEntity
  8
0
 62
1
100
AcDbSpline
 70
8
 71
3
 72
8
 73
4
 74
0
 40
0
 40
0
 40
0
 40
0
 40
1
 40
1
 40
1
 40
1
 10
72.877540
 20
81.696688
 30
0.0
 10
72.336088
 20
82.009296
 30
0.0
 10
71.668992
 20
82.009296
 30
0.0
 10
71.127540
 20
81.696688
 30
0.0
  0
SPLINE
  5
18b
100
AcDbEntity
  8
0
 62
1
100
AcDbSpline
 70
8
 71
3
 72
8
 73
4
 74
0
 40
0
 40
0
 40
0
 40
0
 40
1
 40
1
 40
1
 40
1
 10
71.127540
 20
81.696688
 30
0.0
 10
70.586088
 20
81.384081
 30
0.0
 10
70.252540
 20
80.806359
 30
0.0
 10
70.252540
 20
80.181144
 30
0.0
  0
SPLINE
  5
18c
100
AcDbEntity
  8
0
 62
1
100
AcDbSpline
 70
8
 71
3
 72
8
 73
4
 74
0
 40
0
 40
0
 40
0
 40
0
 40
1
 40
1
 40
1
 40
1
 10
70.252540
 20
80.181144
 30
0.0
 10
70.252540
 20
79.555929
 30
0.0
 10
70.586088
 20
78.978207
 30
0.0
 10
71.127540
 20
78.665599
 30
0.0
  0
SPLINE
  5
18d
100
AcDbEntity
  8
0
 62
1
100
AcDbSpline
 70
8
 71
3
 72
8
 73
4
 74
0
 40
0
 40
0
 40
0
 40
0
 40
1
 40
1
 40
1
 40
1
 10
71.127540
 20
78.665599
 30
0.0
 10
71.668992
 20
78.352992
 30
0.0
 10
72.336088
 20
78.352992
 30
0.0
 10
72.877540
 20
78.665599
 30
0.0
  0
SPLINE
  5
18e
100
AcDbEntity
  8
0
 62
1
100
AcDbSpline
 70
8
 71
3
 72
8
 73
4
 74
0
 40
0
 40
0
 40
0
 40
0
 40
1
 40
1
 40
1
 40
1
 10
72.877540
 20
78.665599
 30
0.0
 10
73.418992
 20
78.978207
 30
0.0
 10
73.752540
 20
79.555929
 30
0.0
 10
73.752540
 20
80.181144
 30
0.0
  0
LWPOLYLINE
  5
18f
100
AcDbEntity
  8
0
 62
1
100
AcDbPolyline
 90
4
 70
1
 10
89.552540
 20
66.431142
 30
0.0
 10
89.552540
 20
66.431142
 30
0.0
 10
89.552540
 20
66.431142
 30
0.0
 10
89.552540
 20
66.431142
 30
0.0
  0
LWPOLYLINE
  5
190
100
AcDbEntity
  8
0
 62
1
100
AcDbPolyline
 90
4
 70
1
 10
73.752540
 20
66.431142
 30
0.0
 10
73.752541
 20
66.431142
 30
0.0
 10
73.752540
 20
66.431142
 30
0.0
 10
73.752540
 20
66.431142
 30
0.0
  0
SPLINE
  5
191
100
AcDbEntity
  8
0
 62
1
100
AcDbSpline
 70
8
 71
3
 72
8
 73
4
 74
0
 40
0
 40
0
 40
0
 40
0
 40
1
 40
1
 40
1
 40
1
 10
59.902542
 20
89.056143
 30
0.0
 10
59.277327
 20
89.056143
 30
0.0
 10
58.699604
 20
88.722595
 30
0.0
 10
58.386997
 20
88.181143
 30
0.0
  0
SPLINE
  5
192
100
AcDbEntity
  8
0
 62
1
100
AcDbSpline
 70
8
 71
3
 72
8
 73
4
 74
0
 40
0
 40
0
 40
0
 40
0
 40
1
 40
1
 40
1
 40
1
 10
58.386997
 20
88.181143
 30
0.0
 10
58.074390
 20
87.639691
 30
0.0
 10
58.074390
 20
86.972595
 30
0.0
 10
58.386997
 20
86.431143
 30
0.0
  0
SPLINE
  5
193
100
AcDbEntity
  8
0
 62
1
100
AcDbSpline
 70
8
 71
3
 72
8
 73
4
 74
0
 40
0
 40
0
 40
0
 40
0
 40
1
 40
1
 40
1
 40
1
 10
58.386997
 20
86.431143
 30
0.0
 10
58.699604
 20
85.889691
 30
0.0
 10
59.277327
 20
85.556143
 30
0.0
 10
59.902542
 20
85.556143
 30
0.0
  0
SPLINE
  5
194
100
AcDbEntity
  8
0
 62
1
100
AcDbSpline
 70
8
 71
3
 72
8
 73
4
 74
0
 40
0
 40
0
 40
0
 40
0
 40
1
 40
1
 40
1
 40
1
 10
79.902541
 20
85.556143
 30
0.0
 10
80.527756
 20
85.556143
 30
0.0
 10
81.105478
 20
85.889691
 30
0.0
 10
81.418086
 20
86.431143
 30
0.0
  0
SPLINE
  5
195
100
AcDbEntity
  8
0
 62
1
100
AcDbSpline
 70
8
 71
3
 72
8
 73
4
 74
0
 40
0
 40
0
 40
0
 40
0
 40
1
 40
1
 40
1
 40
1
 10
81.418086
 20
86.431143
 30
0.0
 10
81.730693
 20
86.972595
 30
0.0
 10
81.730693
 20
87.639691
 30
0.0
 10
81.418086
 20
88.181143
 30
0.0
  0
SPLINE
  5
196
100
AcDbEntity
  8
0
 62
1
100
AcDbSpline
 70
8
 71
3
 72
8
 73
4
 74
0
 40
0
 40
0
 40
0
 40
0
 40
1
 40
1
 40
1
 40
1
 10
81.418086
 20
88.181143
 30
0.0
 10
81.105478
 20
88.722595
 30
0.0
 10
80.527756
 20
89.056143
 30
0.0
 10
79.902541
 20
89.056143
 30
0.0
  0
LWPOLYLINE
  5
197
100
AcDbEntity
  8
0
 62
1
100
AcDbPolyline
 90
4
 70
1
 10
73.752540
 20
80.181144
 30
0.0
 10
73.752541
 20
80.181144
 30
0.0
 10
73.752540
 20
80.181144
 30
0.0
 10
73.752540
 20
80.181144
 30
0.0
  0
LWPOLYLINE
  5
198
100
AcDbEntity
  8
0
 62
1
100
AcDbPolyline
 90
2
 70
0
 10
59.902542
 20
89.056144
 30
0.0
 10
79.902541
 20
89.056144
 30
0.0
  0
SPLINE
  5
199
100
AcDbEntity
  8
0
 62
1
100
AcDbSpline
 70
8
 71
3
 72
8
 73
4
 74
0
 40
0
 40
0
 40
0
 40
0
 40
1
 40
1
 40
1
 40
1
 10
66.902542
 20
97.056142
 30
0.0
 10
66.276953
 20
97.056703
 30
0.0
 10
65.698644
 20
96.723278
 30
0.0
 10
65.385688
 20
96.181596
 30
0.0
  0
SPLINE
  5
19a
100
AcDbEntity
  8
0
 62
1
100
AcDbSpline
 70
8
 71
3
 72
8
 73
4
 74
0
 40
0
 40
0
 40
0
 40
0
 40
1
 40
1
 40
1
 40
1
 10
65.385688
 20
96.181596
 30
0.0
 10
65.072731
 20
95.639914
 30
0.0
 10
65.072731
 20
94.972371
 30
0.0
 10
65.385688
 20
94.430689
 30
0.0
  0
SPLINE
  5
19b
100
AcDbEntity
  8
0
 62
1
100
AcDbSpline
 70
8
 71
3
 72
8
 73
4
 74
0
 40
0
 40
0
 40
0
 40
0
 40
1
 40
1
 40
1
 40
1
 10
65.385688
 20
94.430689
 30
0.0
 10
65.698644
 20
93.889006
 30
0.0
 10
66.276953
 20
93.555581
 30
0.0
 10
66.902542
 20
93.556143
 30
0.0
  0
SPLINE
  5
19c
100
AcDbEntity
  8
0
 62
1
100
AcDbSpline
 70
8
 71
3
 72
8
 73
4
 74
0
 40
0
 40
0
 40
0
 40
0
 40
1
 40
1
 40
1
 40
1
 10
126.902540
 20
93.556143
 30
0.0
 10
127.868425
 20
93.557010
 30
0.0
 10
128.650969
 20
94.340258
 30
0.0
 10
128.650969
 20
95.306142
 30
0.0
  0
SPLINE
  5
19d
100
AcDbEntity
  8
0
 62
1
100
AcDbSpline
 70
8
 71
3
 72
8
 73
4
 74
0
 40
0
 40
0
 40
0
 40
0
 40
1
 40
1
 40
1
 40
1
 10
128.650969
 20
95.306142
 30
0.0
 10
128.650969
 20
96.272027
 30
0.0
 10
127.868425
 20
97.055274
 30
0.0
 10
126.902540
 20
97.056142
 30
0.0
  0
LWPOLYLINE
  5
19e
100
AcDbEntity
  8
0
 62
1
100
AcDbPolyline
 90
2
 70
0
 10
59.902542
 20
85.556142
 30
0.0
 10
79.902541
 20
85.556142
 30
0.0
  0
SPLINE
  5
19f
100
AcDbEntity
  8
0
 62
1
100
AcDbSpline
 70
8
 71
3
 72
8
 73
4
 74
0
 40
0
 40
0
 40
0
 40
0
 40
1
 40
1
 40
1
 40
1
 10
84.402541
 20
73.306143
 30
0.0
 10
84.403346
 20
74.914374
 30
0.0
 10
83.545827
 20
76.400787
 30
0.0
 10
82.153192
 20
77.205135
 30
0.0
  0
SPLINE
  5
1a0
100
AcDbEntity
  8
0
 62
1
100
AcDbSpline
 70
8
 71
3
 72
8
 73
4
 74
0
 40
0
 40
0
 40
0
 40
0
 40
1
 40
1
 40
1
 40
1
 10
82.153192
 20
77.205135
 30
0.0
 10
80.760556
 20
78.009484
 30
0.0
 10
79.044526
 20
78.009484
 30
0.0
 10
77.651890
 20
77.205135
 30
0.0
  0
SPLINE
  5
1a1
100
AcDbEntity
  8
0
 62
1
100
AcDbSpline
 70
8
 71
3
 72
8
 73
4
 74
0
 40
0
 40
0
 40
0
 40
0
 40
1
 40
1
 40
1
 40
1
 10
77.651890
 20
77.205135
 30
0.0
 10
76.259255
 20
76.400787
 30
0.0
 10
75.401736
 20
74.914374
 30
0.0
 10
75.402542
 20
73.306143
 30
0.0
  0
SPLINE
  5
1a2
100
AcDbEntity
  8
0
 62
1
100
AcDbSpline
 70
8
 71
3
 72
8
 73
4
 74
0
 40
0
 40
0
 40
0
 40
0
 40
1
 40
1
 40
1
 40
1
 10
75.402542
 20
73.306143
 30
0.0
 10
75.401736
 20
71.697911
 30
0.0
 10
76.259255
 20
70.211499
 30
0.0
 10
77.651890
 20
69.407150
 30
0.0
  0
SPLINE
  5
1a3
100
AcDbEntity
  8
0
 62
1
100
AcDbSpline
 70
8
 71
3
 72
8
 73
4
 74
0
 40
0
 40
0
 40
0
 40
0
 40
1
 40
1
 40
1
 40
1
 10
77.651890
 20
69.407150
 30
0.0
 10
79.044526
 20
68.602802
 30
0.0
 10
80.760556
 20
68.602802
 30
0.0
 10
82.153192
 20
69.407150
 30
0.0
  0
SPLINE
  5
1a4
100
AcDbEntity
  8
0
 62
1
100
AcDbSpline
 70
8
 71
3
 72
8
 73
4
 74
0
 40
0
 40
0
 40
0
 40
0
 40
1
 40
1
 40
1
 40
1
 10
82.153192
 20
69.407150
 30
0.0
 10
83.545827
 20
70.211499
 30
0.0
 10
84.403346
 20
71.697911
 30
0.0
 10
84.402541
 20
73.306143
 30
0.0
  0
LWPOLYLINE
  5
1a5
100
AcDbEntity
  8
0
 62
1
100
AcDbPolyline
 90
2
 70
0
 10
66.902542
 20
97.056142
 30
0.0
 10
126.902540
 20
97.056142
 30
0.0
  0
LWPOLYLINE
  5
1a6
100
AcDbEntity
  8
0
 62
1
100
AcDbPolyline
 90
2
 70
0
 10
66.902542
 20
93.556143
 30
0.0
 10
126.902540
 20
93.556143
 30
0.0
  0
SPLINE
  5
1a7
100
AcDbEntity
  8
0
 62
1
100
AcDbSpline
 70
8
 71
3
 72
8
 73
4
 74
0
 40
0
 40
0
 40
0
 40
0
 40
1
 40
1
 40
1
 40
1
 10
65.902541
 20
79.306142
 30
0.0
 10
65.903006
 20
80.378249
 30
0.0
 10
65.331311
 20
81.369115
 30
0.0
 10
64.402917
 20
81.905302
 30
0.0
  0
SPLINE
  5
1a8
100
AcDbEntity
  8
0
 62
1
100
AcDbSpline
 70
8
 71
3
 72
8
 73
4
 74
0
 40
0
 40
0
 40
0
 40
0
 40
1
 40
1
 40
1
 40
1
 10
64.402917
 20
81.905302
 30
0.0
 10
63.474523
 20
82.441490
 30
0.0
 10
62.330560
 20
82.441490
 30
0.0
 10
61.402166
 20
81.905302
 30
0.0
  0
SPLINE
  5
1a9
100
AcDbEntity
  8
0
 62
1
100
AcDbSpline
 70
8
 71
3
 72
8
 73
4
 74
0
 40
0
 40
0
 40
0
 40
0
 40
1
 40
1
 40
1
 40
1
 10
61.402166
 20
81.905302
 30
0.0
 10
60.473771
 20
81.369115
 30
0.0
 10
59.902077
 20
80.378249
 30
0.0
 10
59.902542
 20
79.306142
 30
0.0
  0
SPLINE
  5
1aa
100
AcDbEntity
  8
0
 62
1
100
AcDbSpline
 70
8
 71
3
 72
8
 73
4
 74
0
 40
0
 40
0
 40
0
 40
0
 40
1
 40
1
 40
1
 40
1
 10
59.902542
 20
67.306143
 30
0.0
 10
59.903260
 20
65.649797
 30
0.0
 10
61.246195
 20
64.307445
 30
0.0
 10
62.902541
 20
64.307445
 30
0.0
  0
SPLINE
  5
1ab
100
AcDbEntity
  8
0
 62
1
100
AcDbSpline
 70
8
 71
3
 72
8
 73
4
 74
0
 40
0
 40
0
 40
0
 40
0
 40
1
 40
1
 40
1
 40
1
 10
62.902541
 20
64.307445
 30
0.0
 10
64.558887
 20
64.307445
 30
0.0
 10
65.901822
 20
65.649797
 30
0.0
 10
65.902541
 20
67.306143
 30
0.0
  0
LWPOLYLINE
  5
1ac
100
AcDbEntity
  8
0
 62
1
100
AcDbPolyline
 90
4
 70
1
 10
84.402541
 20
73.306143
 30
0.0
 10
84.402541
 20
73.306143
 30
0.0
 10
84.402541
 20
73.306143
 30
0.0
 10
84.402541
 20
73.306143
 30
0.0
  0
SPLINE
  5
1ad
100
AcDbEntity
  8
0
 62
1
100
AcDbSpline
 70
8
 71
3
 72
8
 73
4
 74
0
 40
0
 40
0
 40
0
 40
0
 40
1
 40
1
 40
1
 40
1
 10
136.402540
 20
55.306142
 30
0.0
 10
136.402540
 20
56.199306
 30
0.0
 10
135.926043
 20
57.024624
 30
0.0
 10
135.152540
 20
57.471206
 30
0.0
  0
SPLINE
  5
1ae
100
AcDbEntity
  8
0
 62
1
100
AcDbSpline
 70
8
 71
3
 72
8
 73
4
 74
0
 40
0
 40
0
 40
0
 40
0
 40
1
 40
1
 40
1
 40
1
 10
135.152540
 20
57.471206
 30
0.0
 10
134.379038
 20
57.917788
 30
0.0
 10
133.426043
 20
57.917788
 30
0.0
 10
132.652540
 20
57.471206
 30
0.0
  0
SPLINE
  5
1af
100
AcDbEntity
  8
0
 62
1
100
AcDbSpline
 70
8
 71
3
 72
8
 73
4
 74
0
 40
0
 40
0
 40
0
 40
0
 40
1
 40
1
 40
1
 40
1
 10
132.652540
 20
57.471206
 30
0.0
 10
131.879038
 20
57.024624
 30
0.0
 10
131.402540
 20
56.199306
 30
0.0
 10
131.402541
 20
55.306142
 30
0.0
  0
SPLINE
  5
1b0
100
AcDbEntity
  8
0
 62
1
100
AcDbSpline
 70
8
 71
3
 72
8
 73
4
 74
0
 40
0
 40
0
 40
0
 40
0
 40
1
 40
1
 40
1
 40
1
 10
131.402541
 20
55.306142
 30
0.0
 10
131.402541
 20
54.412978
 30
0.0
 10
131.879038
 20
53.587660
 30
0.0
 10
132.652541
 20
53.141078
 30
0.0
  0
SPLINE
  5
1b1
100
AcDbEntity
  8
0
 62
1
100
AcDbSpline
 70
8
 71
3
 72
8
 73
4
 74
0
 40
0
 40
0
 40
0
 40
0
 40
1
 40
1
 40
1
 40
1
 10
132.652541
 20
53.141078
 30
0.0
 10
133.426043
 20
52.694496
 30
0.0
 10
134.379038
 20
52.694496
 30
0.0
 10
135.152541
 20
53.141078
 30
0.0
  0
SPLINE
  5
1b2
100
AcDbEntity
  8
0
 62
1
100
AcDbSpline
 70
8
 71
3
 72
8
 73
4
 74
0
 40
0
 40
0
 40
0
 40
0
 40
1
 40
1
 40
1
 40
1
 10
135.152541
 20
53.141078
 30
0.0
 10
135.926043
 20
53.587660
 30
0.0
 10
136.402541
 20
54.412978
 30
0.0
 10
136.402541
 20
55.306142
 30
0.0
  0
LWPOLYLINE
  5
1b3
100
AcDbEntity
  8
0
 62
1
100
AcDbPolyline
 90
2
 70
0
 10
65.902541
 20
79.306142
 30
0.0
 10
65.902541
 20
67.306143
 30
0.0
  0
LWPOLYLINE
  5
1b4
100
AcDbEntity
  8
0
 62
1
100
AcDbPolyline
 90
2
 70
0
 10
59.902542
 20
79.306142
 30
0.0
 10
59.902542
 20
67.306143
 30
0.0
  0
SPLINE
  5
1b5
100
AcDbEntity
  8
0
 62
1
100
AcDbSpline
 70
8
 71
3
 72
8
 73
4
 74
0
 40
0
 40
0
 40
0
 40
0
 40
1
 40
1
 40
1
 40
1
 10
66.902542
 20
53.056142
 30
0.0
 10
66.276953
 20
53.056704
 30
0.0
 10
65.698644
 20
52.723279
 30
0.0
 10
65.385688
 20
52.181597
 30
0.0
  0
SPLINE
  5
1b6
100
AcDbEntity
  8
0
 62
1
100
AcDbSpline
 70
8
 71
3
 72
8
 73
4
 74
0
 40
0
 40
0
 40
0
 40
0
 40
1
 40
1
 40
1
 40
1
 10
65.385688
 20
52.181597
 30
0.0
 10
65.072731
 20
51.639914
 30
0.0
 10
65.072731
 20
50.972372
 30
0.0
 10
65.385688
 20
50.430689
 30
0.0
  0
SPLINE
  5
1b7
100
AcDbEntity
  8
0
 62
1
100
AcDbSpline
 70
8
 71
3
 72
8
 73
4
 74
0
 40
0
 40
0
 40
0
 40
0
 40
1
 40
1
 40
1
 40
1
 10
65.385688
 20
50.430689
 30
0.0
 10
65.698644
 20
49.889007
 30
0.0
 10
66.276953
 20
49.555582
 30
0.0
 10
66.902542
 20
49.556144
 30
0.0
  0
LWPOLYLINE
  5
1b8
100
AcDbEntity
  8
0
 62
1
100
AcDbPolyline
 90
4
 70
1
 10
136.402541
 20
55.306142
 30
0.0
 10
136.402541
 20
55.306142
 30
0.0
 10
136.402541
 20
55.306142
 30
0.0
 10
136.402541
 20
55.306142
 30
0.0
  0
SPLINE
  5
1b9
100
AcDbEntity
  8
0
 62
1
100
AcDbSpline
 70
8
 71
3
 72
8
 73
4
 74
0
 40
0
 40
0
 40
0
 40
0
 40
1
 40
1
 40
1
 40
1
 10
126.902540
 20
49.556144
 30
0.0
 10
127.868425
 20
49.557011
 30
0.0
 10
128.650969
 20
50.340258
 30
0.0
 10
128.650969
 20
51.306143
 30
0.0
  0
SPLINE
  5
1ba
100
AcDbEntity
  8
0
 62
1
100
AcDbSpline
 70
8
 71
3
 72
8
 73
4
 74
0
 40
0
 40
0
 40
0
 40
0
 40
1
 40
1
 40
1
 40
1
 10
128.650969
 20
51.306143
 30
0.0
 10
128.650969
 20
52.272028
 30
0.0
 10
127.868425
 20
53.055275
 30
0.0
 10
126.902540
 20
53.056142
 30
0.0
  0
LWPOLYLINE
  5
1bb
100
AcDbEntity
  8
0
 62
1
100
AcDbPolyline
 90
2
 70
0
 10
66.902542
 20
49.556144
 30
0.0
 10
126.902540
 20
49.556144
 30
0.0
  0
LWPOLYLINE
  5
1bc
100
AcDbEntity
  8
0
 62
1
100
AcDbPolyline
 90
2
 70
0
 10
66.902542
 20
53.056142
 30
0.0
 10
126.902540
 20
53.056142
 30
0.0
  0
ENDSEC
  0
SECTION
  2
OBJECTS
  0
DICTIONARY
  5
C
330
0
100
AcDbDictionary
  3
ACAD_GROUP
350
D
  3
ACAD_MLINESTYLE
350
17
  0
DICTIONARY
  5
D
330
C
100
AcDbDictionary
  0
DICTIONARY
  5
1A
330
C
100
AcDbDictionary
  0
DICTIONARY
  5
17
330
C
100
AcDbDictionary
  3
STANDARD
350
18
  0
DICTIONARY
  5
19
330
C
100
AcDbDictionary
  0
ENDSEC
  0
EOF
